<?xml version="1.0" standalone="no"?>
<!DOCTYPE svg PUBLIC "-//W3C//DTD SVG 1.1//EN" "http://www.w3.org/Graphics/SVG/1.1/DTD/svg11.dtd" >
<svg xmlns="http://www.w3.org/2000/svg" xmlns:xlink="http://www.w3.org/1999/xlink" version="1.1">
<metadata>
Created by FontForge 20201107 at Wed Mar  6 02:45:34 2019
 By 
Copyright (c) 2016-2019 by TypeType. Designers Ivan Gladkikh, Pavel Emelyanov. Technical designers Vika Usmanova, Olexa Volochay, Nadyr Rakhimov. All rights reserved. |DCNT
</metadata>
<defs>
<font id="TTNormsPro-Light" horiz-adv-x="580" >
  <font-face 
    font-family="TT Norms Pro Light"
    font-weight="300"
    font-stretch="normal"
    units-per-em="1000"
    panose-1="2 0 5 3 2 0 0 2 0 3"
    ascent="700"
    descent="-300"
    x-height="480"
    cap-height="700"
    bbox="-505 -220 1438 990"
    underline-thickness="50"
    underline-position="-200"
    unicode-range="U+000D-FB06"
  />
<missing-glyph horiz-adv-x="0" 
 />
    <glyph glyph-name="f_f" unicode="ff" horiz-adv-x="575" 
d="M110 0v435h-80v45h80v80q0 63 31.5 96.5t88.5 33.5q22 0 46 -8l19 -7v-45l-19 7q-24 8 -46 8q-35 0 -55 -22t-20 -63v-80h225v100q0 63 31.5 96.5t88.5 33.5q22 0 46 -8l19 -7v-45l-19 7q-24 8 -46 8q-35 0 -55 -22t-20 -63v-100h120v-45h-120v-435h-45v435h-225v-435
h-45z" />
    <glyph glyph-name="uniFB01" unicode="fi" horiz-adv-x="515" 
d="M110 0v435h-80v45h80v100q0 63 31.5 96.5t88.5 33.5q22 0 46 -8l19 -7v-45l-19 7q-24 8 -46 8q-35 0 -55 -22t-20 -63v-100h270v-480h-45v435h-225v-435h-45zM370 650q0 15 10 25t25 10t25 -10t10 -25t-10 -25t-25 -10t-25 10t-10 25z" />
    <glyph glyph-name="f_f_i" unicode="ffi" horiz-adv-x="790" 
d="M110 0v435h-80v45h80v80q0 63 31.5 96.5t88.5 33.5q22 0 46 -8l19 -7v-45l-19 7q-24 8 -46 8q-35 0 -55 -22t-20 -63v-80h225v100q0 63 31.5 96.5t88.5 33.5q22 0 46 -8l19 -7v-45l-19 7q-24 8 -46 8q-35 0 -55 -22t-20 -63v-100h275v-480h-45v435h-230v-435h-45v435
h-225v-435h-45zM645 650q0 15 10 25t25 10t25 -10t10 -25t-10 -25t-25 -10t-25 10t-10 25z" />
    <glyph glyph-name=".notdef" horiz-adv-x="0" 
 />
    <glyph glyph-name=".null" horiz-adv-x="0" 
 />
    <glyph glyph-name="nonmarkingreturn" horiz-adv-x="333" 
 />
    <glyph glyph-name="NULL" horiz-adv-x="0" 
 />
    <glyph glyph-name="NULL" horiz-adv-x="0" 
 />
    <glyph glyph-name="CR" unicode="&#xd;" horiz-adv-x="0" 
 />
    <glyph glyph-name="space" unicode=" " horiz-adv-x="200" 
 />
    <glyph glyph-name="exclam" unicode="!" horiz-adv-x="280" 
d="M120 160l-10 540h60l-10 -540h-40zM105 30q0 15 10 25t25 10t25 -10t10 -25t-10 -25t-25 -10t-25 10t-10 25z" />
    <glyph glyph-name="quotedbl" unicode="&#x22;" horiz-adv-x="335" 
d="M70 490v210h45v-210h-45zM220 490v210h45v-210h-45z" />
    <glyph glyph-name="numbersign" unicode="#" horiz-adv-x="715" 
d="M135 0l40 215h-150l10 45h150l35 180h-150l10 45h150l40 215h45l-40 -215h220l40 215h45l-40 -215h150l-10 -45h-150l-35 -180h150l-10 -45h-150l-40 -215h-45l40 215h-220l-40 -215h-45zM230 260h220l35 180h-220z" />
    <glyph glyph-name="dollar" unicode="$" horiz-adv-x="560" 
d="M45 95l35 35q21 -27 47 -45q63 -45 148 -45q88 0 134 39.5t46 105.5q0 52 -40 84t-97.5 49.5t-115 37t-97.5 61.5t-40 108q0 71 52 123t138 60v102h50v-101q72 -5 134 -45q28 -20 46 -39l-35 -35q-14 16 -41 35q-58 35 -124 35q-80 0 -125 -38t-45 -97q0 -52 40 -84
t97.5 -49.5t115 -37t97.5 -61.5t40 -108q0 -78 -53.5 -131.5t-146.5 -61.5v-102h-50v101q-88 5 -158 55q-31 22 -52 49z" />
    <glyph glyph-name="percent" unicode="%" horiz-adv-x="760" 
d="M195 400q-64 0 -107 43.5t-43 111.5t43 111.5t107 43.5t107 -43.5t43 -111.5t-43 -111.5t-107 -43.5zM135 0l440 700h50l-440 -700h-50zM195 445q45 0 75 31t30 79t-30 79t-75 31t-75 -31t-30 -79t30 -79t75 -31zM565 -10q-64 0 -107 43.5t-43 111.5t43 111.5t107 43.5
t107 -43.5t43 -111.5t-43 -111.5t-107 -43.5zM565 35q45 0 75 31t30 79t-30 79t-75 31t-75 -31t-30 -79t30 -79t75 -31z" />
    <glyph glyph-name="ampersand" unicode="&#x26;" horiz-adv-x="610" 
d="M270 365l180 -220q15 26 25 53q25 73 25 142h45q0 -84 -33 -167q-13 -32 -32 -63q16 -23 28 -35q31 -35 62 -35q7 0 21 2l9 3v-45l-9 -3q-14 -2 -21 -2q-44 0 -86 40q-17 18 -34 40q-22 -24 -51 -43q-66 -42 -144 -42q-81 0 -133 48.5t-52 121.5q0 77 70 149q34 34 70 56
q-30 28 -55 63q-55 73 -55 132q0 64 43.5 107t111.5 43t109 -40.5t41 -104.5q0 -72 -68 -142q-34 -35 -67 -58zM245 395q33 25 57 52q58 64 58 118q0 45 -28.5 72.5t-76.5 27.5t-79 -30t-31 -75q0 -46 50 -110q24 -30 50 -55zM420 110l-185 225q-36 -25 -60 -52
q-60 -62 -60 -123q0 -58 36.5 -91.5t103.5 -33.5q69 0 124 37q24 17 41 38z" />
    <glyph glyph-name="quotesingle" unicode="'" horiz-adv-x="185" 
d="M70 490v210h45v-210h-45z" />
    <glyph glyph-name="parenleft" unicode="(" horiz-adv-x="325" 
d="M285 -195l-35 -25q-46 53 -85 128q-85 164 -85 342t85 342q39 75 85 128l35 -25q-45 -52 -80 -121q-80 -158 -80 -324q0 -170 80 -324q33 -66 80 -121z" />
    <glyph glyph-name="parenright" unicode=")" horiz-adv-x="325" 
d="M75 -220l-35 25q47 55 80 121q80 154 80 324q0 166 -80 324q-35 69 -80 121l35 25q48 -58 85 -128q85 -164 85 -342q0 -176 -85 -342q-37 -70 -85 -128z" />
    <glyph glyph-name="asterisk" unicode="*" horiz-adv-x="390" 
d="M85 425l85 110l-130 30l15 40l125 -40l-5 135h40l-5 -135l125 40l15 -40l-130 -30l85 -110l-30 -25l-80 115l-80 -115z" />
    <glyph glyph-name="plus" unicode="+" horiz-adv-x="505" 
d="M230 75v195h-185v45h185v195h45v-195h185v-45h-185v-195h-45z" />
    <glyph glyph-name="comma" unicode="," horiz-adv-x="200" 
d="M0 -110l85 180l50 -30l-105 -165z" />
    <glyph glyph-name="hyphen" unicode="-" horiz-adv-x="385" 
d="M50 275v45h285v-45h-285z" />
    <glyph glyph-name="period" unicode="." horiz-adv-x="200" 
d="M65 30q0 15 10 25t25 10t25 -10t10 -25t-10 -25t-25 -10t-25 10t-10 25z" />
    <glyph glyph-name="slash" unicode="/" horiz-adv-x="355" 
d="M0 -210l305 920h50l-305 -920h-50z" />
    <glyph glyph-name="zero" unicode="0" horiz-adv-x="670" 
d="M335 -10q-108 0 -189 99.5t-81 260.5t81 260.5t189 99.5t189 -99.5t81 -260.5t-81 -260.5t-189 -99.5zM335 40q88 0 154 84t66 226t-66 226t-154 84t-154 -84t-66 -226t66 -226t154 -84z" />
    <glyph glyph-name="one" unicode="1" horiz-adv-x="335" 
d="M175 0v610q-14 -17 -32 -28q-41 -27 -103 -27v40q62 0 108 52q19 20 37 53h40v-700h-50z" />
    <glyph glyph-name="two" unicode="2" horiz-adv-x="550" 
d="M105 50h385v-50h-440q0 56 21.5 103.5t56 81.5t76 64.5t83 58.5t76 56.5t56 65.5t21.5 80q0 65 -46.5 107.5t-123.5 42.5q-86 0 -135 -63q-21 -27 -30 -62l-45 20q12 42 39 77q62 78 171 78q96 0 158 -58t62 -142q0 -62 -35.5 -113.5t-88 -89t-106.5 -72.5t-98.5 -82.5
t-56.5 -102.5z" />
    <glyph glyph-name="three" unicode="3" horiz-adv-x="545" 
d="M35 95l35 35q20 -26 46 -45q61 -45 139 -45q80 0 130 44t50 106t-50 106t-130 44h-65v50h65q70 0 112.5 38.5t42.5 96.5t-42.5 96.5t-112.5 38.5q-66 0 -122 -40q-25 -18 -43 -40l-35 40q21 26 51 45q68 45 149 45q88 0 146.5 -54.5t58.5 -130.5q0 -78 -58 -124
q-28 -21 -57 -31q37 -13 70 -38q70 -56 70 -142q0 -81 -65.5 -140.5t-164.5 -59.5q-97 0 -166 52q-31 22 -54 53z" />
    <glyph glyph-name="four" unicode="4" horiz-adv-x="555" 
d="M20 160v60l350 480h60v-490h90v-50h-90v-160h-50v160h-360zM70 210h310v425z" />
    <glyph glyph-name="five" unicode="5" horiz-adv-x="570" 
d="M65 95l35 35q20 -26 45 -45q61 -45 135 -45q81 0 133 49.5t52 125.5q0 75 -50 125t-125 50q-68 0 -123 -43q-24 -19 -37 -42h-40l25 395h355v-50h-310l-15 -265q17 15 39 27q47 28 106 28q94 0 159.5 -65.5t65.5 -159.5q0 -95 -67 -160t-168 -65q-93 0 -162 52
q-32 23 -53 53z" />
    <glyph glyph-name="six" unicode="6" horiz-adv-x="570" 
d="M105 365l210 335h55l-175 -280q8 5 24 10q32 10 66 10q98 0 164 -65.5t66 -159.5t-66 -159.5t-164 -65.5t-164 65.5t-66 159.5q0 55 25 107q8 19 25 43zM105 215q0 -75 51 -125t129 -50t129 50t51 125t-51 125t-129 50t-129 -50t-51 -125z" />
    <glyph glyph-name="seven" unicode="7" horiz-adv-x="475" 
d="M80 0l320 650h-380v50h435v-50l-320 -650h-55z" />
    <glyph glyph-name="eight" unicode="8" 
d="M65 195q0 89 67 145q32 27 68 40q-30 12 -53 32q-52 44 -52 118q0 72 57 126t138 54t138 -54t57 -126q0 -73 -53 -118q-23 -20 -52 -32q35 -12 67 -40q68 -56 68 -145q0 -84 -64.5 -144.5t-160.5 -60.5t-160.5 60.5t-64.5 144.5zM145 530q0 -53 41 -89t104 -36t104 36
t41 89t-41.5 91.5t-103.5 38.5t-103.5 -38.5t-41.5 -91.5zM115 195q0 -65 49 -110t126 -45t126 45t49 110t-50.5 112.5t-124.5 47.5t-124.5 -47.5t-50.5 -112.5z" />
    <glyph glyph-name="nine" unicode="9" horiz-adv-x="570" 
d="M200 0l175 280q-8 -5 -24 -10q-32 -10 -66 -10q-98 0 -164 65.5t-66 159.5t66 159.5t164 65.5t164 -65.5t66 -159.5q0 -51 -25 -107q-8 -19 -25 -43l-210 -335h-55zM105 485q0 -75 51 -125t129 -50t129 50t51 125t-51 125t-129 50t-129 -50t-51 -125z" />
    <glyph glyph-name="colon" unicode=":" horiz-adv-x="200" 
d="M65 450q0 15 10 25t25 10t25 -10t10 -25t-10 -25t-25 -10t-25 10t-10 25zM65 30q0 15 10 25t25 10t25 -10t10 -25t-10 -25t-25 -10t-25 10t-10 25z" />
    <glyph glyph-name="semicolon" unicode=";" horiz-adv-x="200" 
d="M65 450q0 15 10 25t25 10t25 -10t10 -25t-10 -25t-25 -10t-25 10t-10 25zM0 -110l85 180l50 -30l-105 -165z" />
    <glyph glyph-name="less" unicode="&#x3c;" horiz-adv-x="490" 
d="M50 225v40l390 205v-50l-335 -175l335 -175v-50z" />
    <glyph glyph-name="equal" unicode="=" horiz-adv-x="495" 
d="M50 360v45h395v-45h-395zM50 185v45h395v-45h-395z" />
    <glyph glyph-name="greater" unicode="&#x3e;" horiz-adv-x="490" 
d="M50 20v50l335 175l-335 175v50l390 -205v-40z" />
    <glyph glyph-name="question" unicode="?" horiz-adv-x="520" 
d="M275 160h-45l-3 13q-2 16 -2 32q0 46 20 82.5t48.5 61t57.5 48t49 56t20 72.5q0 58 -43.5 96.5t-116.5 38.5q-89 0 -135 -60q-21 -26 -30 -60l-45 15q13 41 41 77q62 78 169 78q92 0 151 -54t59 -131q0 -51 -20 -89t-49 -61.5t-57.5 -47t-48.5 -59t-20 -83.5v-25zM215 30
q0 15 10 25t25 10t25 -10t10 -25t-10 -25t-25 -10t-25 10t-10 25z" />
    <glyph glyph-name="at" unicode="@" horiz-adv-x="890" 
d="M645 -15l25 -35q-25 -22 -58 -40q-78 -40 -167 -40q-150 0 -262.5 113.5t-112.5 266.5t112.5 266.5t262.5 113.5q157 0 266 -106t109 -254q0 -103 -40 -156.5t-100 -53.5q-53 0 -87 42q-16 19 -23 43q-12 -25 -30 -43q-42 -42 -105 -42q-69 0 -119.5 53.5t-50.5 131.5
t50.5 131.5t119.5 53.5q55 0 96 -35q20 -18 29 -35v65h45v-222q0 -98 75 -98q41 0 68 40.5t27 124.5q0 132 -94.5 223.5t-235.5 91.5q-136 0 -233 -98.5t-97 -236.5t97 -236.5t233 -98.5q83 0 147 35q30 15 53 35zM435 105q54 0 89.5 38.5t35.5 101.5t-35.5 101.5
t-89.5 38.5t-89.5 -38.5t-35.5 -101.5t35.5 -101.5t89.5 -38.5z" />
    <glyph glyph-name="A" unicode="A" horiz-adv-x="670" 
d="M20 0l290 700h50l290 -700h-55l-85 205h-350l-85 -205h-55zM180 255h310l-155 375z" />
    <glyph glyph-name="B" unicode="B" horiz-adv-x="660" 
d="M110 0v700h260q85 0 137.5 -49.5t52.5 -125.5q0 -73 -45 -118q-20 -20 -45 -32q34 -13 62 -38q63 -57 63 -142q0 -84 -59.5 -139.5t-155.5 -55.5h-270zM160 395h210q67 0 103.5 34.5t36.5 95.5q0 58 -36.5 91.5t-103.5 33.5h-210v-255zM160 50h220q77 0 121 40t44 105
q0 69 -43.5 109.5t-121.5 40.5h-220v-295z" />
    <glyph glyph-name="C" unicode="C" horiz-adv-x="750" 
d="M670 170l35 -30q-33 -44 -74 -75q-94 -75 -216 -75q-147 0 -251 105t-104 255t104 255t251 105q117 0 214 -75q42 -34 71 -75l-35 -30q-26 36 -62 65q-83 65 -188 65q-128 0 -216.5 -89.5t-88.5 -220.5t88.5 -220.5t216.5 -89.5q106 0 191 65q38 29 64 65z" />
    <glyph glyph-name="D" unicode="D" horiz-adv-x="740" 
d="M110 0v700h205q156 0 260.5 -101.5t104.5 -248.5t-104.5 -248.5t-260.5 -101.5h-205zM160 50h155q138 0 226.5 85.5t88.5 214.5t-88.5 214.5t-226.5 85.5h-155v-600z" />
    <glyph glyph-name="E" unicode="E" horiz-adv-x="630" 
d="M110 0v700h470v-50h-420v-260h340v-50h-340v-290h430v-50h-480z" />
    <glyph glyph-name="F" unicode="F" horiz-adv-x="605" 
d="M110 0v700h465v-50h-415v-270h335v-50h-335v-330h-50z" />
    <glyph glyph-name="G" unicode="G" horiz-adv-x="790" 
d="M480 300v50h230v-210q-30 -40 -76 -75q-98 -75 -219 -75q-147 0 -251 105t-104 255t104 255t251 105q117 0 214 -75q42 -34 71 -75l-35 -30q-26 36 -62 65q-83 65 -188 65q-128 0 -216.5 -89.5t-88.5 -220.5t88.5 -220.5t216.5 -89.5q101 0 182 57q34 24 63 58v145h-180z
" />
    <glyph glyph-name="H" unicode="H" horiz-adv-x="745" 
d="M110 0v700h50v-320h425v320h50v-700h-50v330h-425v-330h-50z" />
    <glyph glyph-name="I" unicode="I" horiz-adv-x="270" 
d="M110 0v700h50v-700h-50z" />
    <glyph glyph-name="J" unicode="J" horiz-adv-x="485" 
d="M10 65l35 35q13 -16 33 -30q46 -30 97 -30q72 0 116 45t44 120v495h50v-495q0 -93 -60 -154t-150 -61q-67 0 -122 37q-23 15 -43 38z" />
    <glyph glyph-name="K" unicode="K" horiz-adv-x="640" 
d="M110 0v700h50v-430l390 430h65l-265 -290l290 -410h-60l-263 372l-157 -172v-200h-50z" />
    <glyph glyph-name="L" unicode="L" horiz-adv-x="555" 
d="M110 0v700h50v-650h375v-50h-425z" />
    <glyph glyph-name="M" unicode="M" horiz-adv-x="920" 
d="M110 0v700h40l310 -415l310 415h40v-700h-50v605l-300 -400l-300 400v-605h-50z" />
    <glyph glyph-name="N" unicode="N" horiz-adv-x="775" 
d="M110 0v700h40l465 -605v605h50v-700h-40l-465 605v-605h-50z" />
    <glyph glyph-name="O" unicode="O" horiz-adv-x="830" 
d="M415 -10q-147 0 -251 105t-104 255t104 255t251 105t251 -105t104 -255t-104 -255t-251 -105zM415 40q128 0 216.5 89.5t88.5 220.5t-88.5 220.5t-216.5 89.5t-216.5 -89.5t-88.5 -220.5t88.5 -220.5t216.5 -89.5z" />
    <glyph glyph-name="P" unicode="P" horiz-adv-x="640" 
d="M110 0v700h250q97 0 161 -62t64 -153t-64 -153t-161 -62h-200v-270h-50zM160 320h200q78 0 126.5 46.5t48.5 118.5t-48.5 118.5t-126.5 46.5h-200v-330z" />
    <glyph glyph-name="Q" unicode="Q" horiz-adv-x="830" 
d="M805 -85v-50l-12 -3q-16 -2 -38 -2q-112 0 -190 72q-33 30 -55 73q-4 -1 -8 -2.5t-9.5 -3t-9.5 -2.5q-30 -7 -68 -7q-147 0 -251 105t-104 255t104 255t251 105t251 -105t104 -255t-105 -255q-47 -47 -105 -75q16 -31 43 -55q61 -55 152 -55q22 0 38 2zM415 40
q128 0 216.5 89.5t88.5 220.5t-88.5 220.5t-216.5 89.5t-216.5 -89.5t-88.5 -220.5t88.5 -220.5t216.5 -89.5z" />
    <glyph glyph-name="R" unicode="R" horiz-adv-x="660" 
d="M110 0v700h265q93 0 154 -59t61 -146q0 -101 -78 -158q-37 -27 -77 -37l170 -300h-55l-165 290h-225v-290h-50zM160 340h215q74 0 119.5 43t45.5 112t-45.5 112t-119.5 43h-215v-310z" />
    <glyph glyph-name="S" unicode="S" horiz-adv-x="560" 
d="M45 95l35 35q21 -27 47 -45q63 -45 148 -45q88 0 134 39.5t46 105.5q0 52 -40 84t-97.5 49.5t-115 37t-97.5 61.5t-40 108q0 77 61 131t159 54q77 0 149 -43q30 -18 51 -42l-35 -35q-14 16 -41 35q-58 35 -124 35q-80 0 -125 -38t-45 -97q0 -52 40 -84t97.5 -49.5
t115 -37t97.5 -61.5t40 -108q0 -85 -62 -140t-168 -55q-98 0 -173 52q-32 22 -57 53z" />
    <glyph glyph-name="T" unicode="T" horiz-adv-x="550" 
d="M250 0v650h-230v50h510v-50h-230v-650h-50z" />
    <glyph glyph-name="U" unicode="U" horiz-adv-x="750" 
d="M100 270v430h50v-430q0 -101 63.5 -165.5t161.5 -64.5t161.5 64.5t63.5 165.5v430h50v-430q0 -120 -79 -200t-196 -80t-196 80t-79 200z" />
    <glyph glyph-name="V" unicode="V" horiz-adv-x="650" 
d="M300 0l-275 700h55l245 -625l245 625h55l-275 -700h-50z" />
    <glyph glyph-name="W" unicode="W" horiz-adv-x="1000" 
d="M250 0l-225 700h55l195 -620l200 620h50l200 -620l195 620h55l-225 -700h-50l-200 620l-200 -620h-50z" />
    <glyph glyph-name="X" unicode="X" horiz-adv-x="610" 
d="M15 0l260 365l-240 335h60l210 -295l210 295h60l-240 -335l260 -365h-60l-230 325l-230 -325h-60z" />
    <glyph glyph-name="Y" unicode="Y" horiz-adv-x="600" 
d="M275 0v245l-260 455h60l225 -400l225 400h60l-260 -455v-245h-50z" />
    <glyph glyph-name="Z" unicode="Z" horiz-adv-x="575" 
d="M40 0v50l425 600h-410v50h470v-50l-425 -600h435v-50h-495z" />
    <glyph glyph-name="bracketleft" unicode="[" horiz-adv-x="335" 
d="M100 -210v920h195v-50h-145v-820h145v-50h-195z" />
    <glyph glyph-name="backslash" unicode="\" horiz-adv-x="355" 
d="M305 -210l-305 920h50l305 -920h-50z" />
    <glyph glyph-name="bracketright" unicode="]" horiz-adv-x="335" 
d="M40 -210v50h145v820h-145v50h195v-920h-195z" />
    <glyph glyph-name="asciicircum" unicode="^" horiz-adv-x="390" 
d="M50 425l125 275h40l125 -275h-45l-100 220l-100 -220h-45z" />
    <glyph glyph-name="underscore" unicode="_" horiz-adv-x="320" 
d="M-10 -160v45h340v-45h-340z" />
    <glyph glyph-name="grave" unicode="`" horiz-adv-x="190" 
d="M120 565l-90 130h55l75 -130h-40z" />
    <glyph glyph-name="a" unicode="a" horiz-adv-x="505" 
d="M380 0v85q-18 -29 -41 -48q-55 -47 -134 -47q-70 0 -115 40.5t-45 94.5q0 57 38.5 95.5t106.5 49.5l190 30q0 67 -37 106t-98 39q-55 0 -104 -35q-23 -18 -36 -35l-30 30q17 23 44 42q59 43 126 43q79 0 129.5 -52.5t50.5 -137.5v-300h-45zM380 210v45l-180 -30
q-110 -17 -110 -100q0 -36 32.5 -63t82.5 -27q75 0 125 50t50 125z" />
    <glyph glyph-name="b" unicode="b" horiz-adv-x="595" 
d="M90 0v700h45v-315q19 30 44 52q61 53 141 53q92 0 158.5 -71.5t66.5 -178.5t-66.5 -178.5t-158.5 -71.5q-81 0 -141 52q-26 23 -44 53v-95h-45zM320 35q73 0 126.5 58.5t53.5 146.5t-53.5 146.5t-126.5 58.5q-76 0 -130.5 -58.5t-54.5 -146.5t54.5 -146.5t130.5 -58.5z
" />
    <glyph glyph-name="c" unicode="c" horiz-adv-x="515" 
d="M440 120l35 -30q-18 -26 -48 -50q-64 -50 -142 -50q-95 0 -165 73t-70 177t70 177t165 73q78 0 142 -50q30 -24 48 -50l-35 -30q-15 23 -38 42q-55 43 -117 43q-76 0 -133 -60t-57 -145t57 -145t133 -60q63 0 117 42q24 19 38 43z" />
    <glyph glyph-name="d" unicode="d" horiz-adv-x="595" 
d="M460 0v95q-18 -30 -44 -53q-60 -52 -141 -52q-92 0 -158.5 71.5t-66.5 178.5t66.5 178.5t158.5 71.5q80 0 141 -53q25 -22 44 -52v315h45v-700h-45zM275 35q76 0 130.5 58.5t54.5 146.5t-54.5 146.5t-130.5 58.5q-73 0 -126.5 -58.5t-53.5 -146.5t53.5 -146.5
t126.5 -58.5z" />
    <glyph glyph-name="e" unicode="e" horiz-adv-x="550" 
d="M440 120l35 -30q-18 -26 -48 -50q-64 -50 -142 -50q-95 0 -165 73t-70 177q0 107 67.5 178.5t162.5 71.5q92 0 156 -70t64 -180v-20h-405q8 -79 62 -132t128 -53q63 0 117 42q24 19 38 43zM95 265h360q-8 83 -55.5 131.5t-119.5 48.5q-71 0 -126 -54t-59 -126z" />
    <glyph glyph-name="f" unicode="f" horiz-adv-x="305" 
d="M110 0v435h-80v45h80v100q0 63 31.5 96.5t88.5 33.5q22 0 46 -8l19 -7v-45l-19 7q-24 8 -46 8q-35 0 -55 -22t-20 -63v-100h120v-45h-120v-435h-45z" />
    <glyph glyph-name="g" unicode="g" 
d="M75 -110l35 30q14 -24 38 -43q54 -42 117 -42q76 0 130.5 56.5t54.5 138.5v85q-16 -29 -43 -53q-56 -52 -137 -52q-91 0 -155.5 68.5t-64.5 171.5t64.5 171.5t155.5 68.5q80 0 137 -53q26 -23 43 -52v95h45v-450q0 -100 -68 -170t-162 -70q-78 0 -142 50q-30 24 -48 50z
M270 55q76 0 128 55t52 140t-52 140t-128 55q-73 0 -124 -55t-51 -140t51 -140t124 -55z" />
    <glyph glyph-name="h" unicode="h" horiz-adv-x="575" 
d="M90 0v700h45v-305q16 27 39 47q54 48 126 48q83 0 139 -58t56 -147v-285h-45v285q0 71 -42.5 115.5t-107.5 44.5q-69 0 -117 -50.5t-48 -124.5v-270h-45z" />
    <glyph glyph-name="i" unicode="i" horiz-adv-x="225" 
d="M80 650q0 15 10 25t25 10t25 -10t10 -25t-10 -25t-25 -10t-25 10t-10 25zM90 0v480h45v-480h-45z" />
    <glyph glyph-name="j" unicode="j" horiz-adv-x="225" 
d="M80 650q0 15 10 25t25 10t25 -10t10 -25t-10 -25t-25 -10t-25 10t-10 25zM-45 -195v45q4 -2 17 -8q19 -7 43 -7q35 0 55 22t20 63v560h45v-560q0 -59 -33 -94.5t-87 -35.5q-24 0 -43 7q-13 5 -17 8z" />
    <glyph glyph-name="k" unicode="k" horiz-adv-x="490" 
d="M90 0v700h45v-505l265 285h60l-180 -195l205 -285h-55l-181 252l-114 -122v-130h-45z" />
    <glyph glyph-name="l" unicode="l" horiz-adv-x="225" 
d="M90 0v700h45v-700h-45z" />
    <glyph glyph-name="m" unicode="m" horiz-adv-x="860" 
d="M85 0v480h45v-80q14 26 33 45q45 45 112 45q68 0 123 -55q25 -28 37 -55q13 29 36 55q55 55 129 55q77 0 128.5 -56.5t51.5 -148.5v-285h-45v285q0 73 -38.5 116.5t-96.5 43.5q-62 0 -103.5 -47.5t-41.5 -127.5v-270h-45v285q0 73 -38.5 116.5t-96.5 43.5
q-62 0 -103.5 -47.5t-41.5 -127.5v-270h-45z" />
    <glyph glyph-name="n" unicode="n" horiz-adv-x="570" 
d="M85 0v480h45v-85q16 27 39 47q54 48 126 48q83 0 139 -58t56 -147v-285h-45v285q0 71 -42.5 115.5t-107.5 44.5q-69 0 -117 -50.5t-48 -124.5v-270h-45z" />
    <glyph glyph-name="o" unicode="o" 
d="M290 -10q-99 0 -169.5 73t-70.5 177t70.5 177t169.5 73t169.5 -73t70.5 -177t-70.5 -177t-169.5 -73zM290 35q80 0 137.5 60t57.5 145t-57.5 145t-137.5 60t-137.5 -60t-57.5 -145t57.5 -145t137.5 -60z" />
    <glyph glyph-name="p" unicode="p" horiz-adv-x="590" 
d="M85 -210v690h45v-95q19 30 44 52q61 53 141 53q92 0 158.5 -71.5t66.5 -178.5t-66.5 -178.5t-158.5 -71.5q-81 0 -141 52q-26 23 -44 53v-305h-45zM315 35q73 0 126.5 58.5t53.5 146.5t-53.5 146.5t-126.5 58.5q-76 0 -130.5 -58.5t-54.5 -146.5t54.5 -146.5t130.5 -58.5
z" />
    <glyph glyph-name="q" unicode="q" horiz-adv-x="590" 
d="M460 -210v305q-18 -30 -44 -53q-60 -52 -141 -52q-92 0 -158.5 71.5t-66.5 178.5t66.5 178.5t158.5 71.5q80 0 141 -53q25 -22 44 -52v95h45v-690h-45zM275 35q76 0 130.5 58.5t54.5 146.5t-54.5 146.5t-130.5 58.5q-73 0 -126.5 -58.5t-53.5 -146.5t53.5 -146.5
t126.5 -58.5z" />
    <glyph glyph-name="r" unicode="r" horiz-adv-x="335" 
d="M85 0v480h45v-85q16 27 40 47q54 48 130 48h20v-45h-20q-72 0 -121 -50t-49 -125v-270h-45z" />
    <glyph glyph-name="s" unicode="s" horiz-adv-x="430" 
d="M40 70l35 35q18 -21 36 -35q42 -35 99 -35q58 0 91.5 28.5t33.5 71.5q0 33 -28.5 53.5t-68.5 32t-80.5 25t-69 42t-28.5 72.5q0 51 44.5 90.5t110.5 39.5q55 0 111 -35q25 -18 39 -35l-35 -35q-11 15 -29 30q-38 30 -86 30q-51 0 -80.5 -25t-29.5 -60q0 -32 28.5 -51.5
t69 -30.5t80.5 -24.5t68.5 -43t28.5 -75.5q0 -62 -47 -103.5t-123 -41.5q-68 0 -126 40q-28 19 -44 40z" />
    <glyph glyph-name="t" unicode="t" horiz-adv-x="350" 
d="M125 120v315h-95v45h65q15 0 25 11t10 29v120h40v-160h110v-45h-110v-315q0 -41 20 -63t55 -22q25 0 46 7q1 1 8.5 3.5t10.5 4.5v-45l-5 -2.5t-7 -3t-7 -2.5q-21 -7 -46 -7q-57 0 -88.5 33.5t-31.5 96.5z" />
    <glyph glyph-name="u" unicode="u" horiz-adv-x="575" 
d="M85 195v285h45v-285q0 -71 42.5 -115.5t107.5 -44.5q69 0 117 50.5t48 124.5v270h45v-480h-45v85q-15 -27 -39 -48q-53 -47 -126 -47q-83 0 -139 58t-56 147z" />
    <glyph glyph-name="v" unicode="v" horiz-adv-x="480" 
d="M215 0l-195 480h50l170 -420l170 420h50l-195 -480h-50z" />
    <glyph glyph-name="w" unicode="w" horiz-adv-x="710" 
d="M180 0l-160 480h50l135 -405l130 405h40l130 -410l135 410h50l-160 -480h-45l-130 405l-130 -405h-45z" />
    <glyph glyph-name="x" unicode="x" horiz-adv-x="440" 
d="M10 0l180 250l-165 230h55l140 -195l140 195h55l-165 -230l180 -250h-55l-155 215l-155 -215h-55z" />
    <glyph glyph-name="y" unicode="y" horiz-adv-x="480" 
d="M45 -200v45q8 -4 13 -5q15 -5 32 -5q33 0 54 18t36 57l35 90l-195 480h50l170 -420l170 420h50l-230 -570q-27 -66 -57.5 -93t-82.5 -27q-17 0 -32 5q-5 1 -13 5z" />
    <glyph glyph-name="z" unicode="z" horiz-adv-x="435" 
d="M30 0v45l310 390h-300v45h355v-45l-310 -390h320v-45h-375z" />
    <glyph glyph-name="braceleft" unicode="{" horiz-adv-x="355" 
d="M140 -80v235q0 75 -75 75v40q75 0 75 75v235q0 61 36.5 95.5t103.5 34.5h35v-45h-35q-95 0 -95 -85v-235q0 -47 -33 -78q-14 -13 -32 -17q19 -6 32 -18q33 -31 33 -77v-235q0 -85 95 -85h35v-45h-35q-67 0 -103.5 34.5t-36.5 95.5z" />
    <glyph glyph-name="bar" unicode="|" horiz-adv-x="285" 
d="M120 -210v920h45v-920h-45z" />
    <glyph glyph-name="braceright" unicode="}" horiz-adv-x="355" 
d="M40 -210v45h35q95 0 95 85v235q0 47 32 77q14 12 33 18q-19 4 -33 17q-32 30 -32 78v235q0 85 -95 85h-35v45h35q67 0 103.5 -34.5t36.5 -95.5v-235q0 -75 75 -75v-40q-75 0 -75 -75v-235q0 -61 -36.5 -95.5t-103.5 -34.5h-35z" />
    <glyph glyph-name="asciitilde" unicode="~" horiz-adv-x="520" 
d="M75 245l-35 25q14 22 31 40q42 40 94 40q41 0 72.5 -17.5t59 -35t58.5 -17.5q39 0 69 30q12 14 21 30l35 -25q-14 -23 -31 -40q-42 -40 -94 -40q-41 0 -72.5 17.5t-59 35t-58.5 17.5q-39 0 -69 -30q-12 -13 -21 -30z" />
    <glyph glyph-name="nbspace" unicode="&#xa0;" horiz-adv-x="200" 
 />
    <glyph glyph-name="exclamdown" unicode="&#xa1;" horiz-adv-x="280" 
d="M105 450q0 15 10 25t25 10t25 -10t10 -25t-10 -25t-25 -10t-25 10t-10 25zM110 -210l10 530h40l10 -530h-60z" />
    <glyph glyph-name="cent" unicode="&#xa2;" horiz-adv-x="515" 
d="M265 -110v101q-88 6 -151.5 77.5t-63.5 171.5q0 97 64 170t151 79v101h45v-102q69 -9 124 -54q24 -20 41 -44l-35 -30q-15 23 -38 42q-55 43 -117 43q-76 0 -133 -60t-57 -145t57 -145t133 -60q63 0 117 42q24 19 38 43l35 -30q-17 -24 -41 -44q-55 -45 -124 -54v-102
h-45z" />
    <glyph glyph-name="sterling" unicode="&#xa3;" horiz-adv-x="545" 
d="M50 0v50q32 0 56 24t24 51v175h-70v50h70v150q0 93 56.5 151.5t143.5 58.5q72 0 131 -43q27 -19 44 -42l-35 -35q-13 17 -36 35q-49 35 -104 35q-65 0 -107.5 -44.5t-42.5 -115.5v-150h205v-50h-205v-175q0 -33 -23 -58q-12 -12 -22 -17h370v-50h-455z" />
    <glyph glyph-name="currency" unicode="&#xa4;" horiz-adv-x="550" 
d="M155 335q0 -49 35.5 -84.5t84.5 -35.5t84.5 35.5t35.5 84.5t-35.5 84.5t-84.5 35.5t-84.5 -35.5t-35.5 -84.5zM80 175l62 62q-32 44 -32 98t32 98l-62 62l30 30l61 -62q47 37 104 37t104 -37l61 62l30 -30l-62 -62q32 -44 32 -98t-32 -98l62 -62l-30 -30l-61 62
q-47 -37 -104 -37t-104 37l-61 -62z" />
    <glyph glyph-name="yen" unicode="&#xa5;" horiz-adv-x="600" 
d="M110 125v45h165v75l-10 15h-155v45h130l-225 395h60l225 -395l225 395h60l-225 -395h130v-45h-155l-10 -15v-75h165v-45h-165v-125h-50v125h-165z" />
    <glyph glyph-name="brokenbar" unicode="&#xa6;" horiz-adv-x="285" 
d="M120 330v380h45v-380h-45zM120 -210v380h45v-380h-45z" />
    <glyph glyph-name="section" unicode="&#xa7;" horiz-adv-x="520" 
d="M80 -25l35 35q18 -22 36 -38q45 -37 99 -37q58 0 94 30.5t36 74.5q0 37 -33 62t-80 41t-94 34.5t-80 54t-33 88.5q0 64 55 105q25 18 55 30q-23 10 -38 25q-37 33 -37 85q0 62 47 103.5t123 41.5q59 0 115 -35q27 -20 40 -35l-35 -35q-13 16 -32 30q-42 30 -88 30
q-58 0 -91.5 -28.5t-33.5 -71.5q0 -37 33 -62t80 -41t94 -34.5t80 -54t33 -88.5q0 -62 -55 -105q-26 -18 -55 -30q23 -13 37 -25q38 -38 38 -85q0 -62 -49 -106t-126 -44q-68 0 -126 42q-27 19 -44 43zM210 430q-30 -7 -53 -23q-52 -33 -52 -87q0 -23 11.5 -42.5t27 -32
t40.5 -24.5t43.5 -18.5t45.5 -15t37 -12.5q29 8 52 23q53 33 53 87q0 23 -11.5 42.5t-27 32t-40.5 24.5t-43.5 18.5t-45.5 15t-37 12.5z" />
    <glyph glyph-name="dieresis" unicode="&#xa8;" horiz-adv-x="305" 
d="M30 635q0 15 10 25t25 10t25 -10t10 -25t-10 -25t-25 -10t-25 10t-10 25zM205 635q0 15 10 25t25 10t25 -10t10 -25t-10 -25t-25 -10t-25 10t-10 25z" />
    <glyph glyph-name="copyright" unicode="&#xa9;" horiz-adv-x="870" 
d="M75 350q0 150 105 255t255 105t255 -105t105 -255t-105 -255t-255 -105t-255 105t-105 255zM435 35q135 0 225 90t90 225t-90 225t-225 90t-225 -90t-90 -225t90 -225t225 -90zM555 265l30 -30q-18 -23 -37 -38q-47 -37 -108 -37q-79 0 -132 54t-53 136t53 136t132 54
q60 0 108 -38q17 -13 37 -37l-30 -30q-11 15 -29 30q-38 30 -86 30q-60 0 -100 -41t-40 -104t40 -104t100 -41q48 0 86 30q18 15 29 30z" />
    <glyph glyph-name="ordfeminine" unicode="&#xaa;" horiz-adv-x="305" 
d="M225 415v45q-9 -16 -24 -28q-31 -27 -81 -27q-41 0 -65.5 22.5t-24.5 57.5q0 34 24 58t66 32l105 20v10q0 30 -18.5 47.5t-51.5 17.5q-34 0 -56 -20q-12 -10 -19 -20l-30 25q12 16 26 27q32 28 79 28q48 0 79 -30t31 -75v-190h-40zM225 546v9l-105 -20q-50 -11 -50 -50
q0 -16 15 -28t40 -12q45 0 72.5 27.5t27.5 73.5z" />
    <glyph glyph-name="guillemotleft" unicode="&#xab;" horiz-adv-x="440" 
d="M165 80l-115 160l115 160h55l-115 -160l115 -160h-55zM335 80l-115 160l115 160h55l-115 -160l115 -160h-55z" />
    <glyph glyph-name="logicalnot" unicode="&#xac;" horiz-adv-x="455" 
d="M40 335v45h365v-185h-50v140h-315z" />
    <glyph glyph-name="uni00AD" unicode="&#xad;" horiz-adv-x="385" 
d="M50 275v45h285v-45h-285z" />
    <glyph glyph-name="registered" unicode="&#xae;" horiz-adv-x="870" 
d="M75 350q0 150 105 255t255 105t255 -105t105 -255t-105 -255t-255 -105t-255 105t-105 255zM435 35q135 0 225 90t90 225t-90 225t-225 90t-225 -90t-90 -225t90 -225t225 -90zM315 165v370h130q55 0 90 -32t35 -78q0 -45 -35 -78q-20 -16 -35 -22l85 -160h-50l-80 150
h-95v-150h-45zM360 360h85q80 0 80 65t-80 65h-85v-130z" />
    <glyph glyph-name="overscore" unicode="&#xaf;" horiz-adv-x="330" 
d="M30 645v40h270v-40h-270z" />
    <glyph glyph-name="degree" unicode="&#xb0;" horiz-adv-x="350" 
d="M45 580q0 55 38.5 92.5t91.5 37.5t91.5 -37.5t38.5 -92.5t-38.5 -92.5t-91.5 -37.5t-91.5 37.5t-38.5 92.5zM90 580q0 -37 25 -61t60 -24t60 24t25 61t-25 61t-60 24t-60 -24t-25 -61z" />
    <glyph glyph-name="plusminus" unicode="&#xb1;" horiz-adv-x="505" 
d="M230 160v195h-185v45h185v195h45v-195h185v-45h-185v-195h-45zM45 45v45h415v-45h-415z" />
    <glyph glyph-name="uni00B2" unicode="&#xb2;" horiz-adv-x="285" 
d="M68 490h187v-40h-230q0 42 19.5 75t47.5 54.5t56 40t47.5 39.5t19.5 45t-20.5 42.5t-49.5 18.5q-39 0 -63 -30q-11 -15 -17 -30l-35 15q8 24 24 42q35 43 91 43q49 0 79.5 -30.5t30.5 -70.5q0 -39 -25 -69t-56 -47t-63.5 -43t-42.5 -55z" />
    <glyph glyph-name="uni00B3" unicode="&#xb3;" horiz-adv-x="295" 
d="M20 505l30 30q11 -14 25 -25q31 -25 70 -25q38 0 59 17.5t21 47.5q0 29 -20.5 47t-57.5 18h-47v40h45q65 0 65 55q0 24 -18.5 39.5t-51.5 15.5t-60 -23q-14 -14 -20 -22l-30 30q9 14 28 27q35 28 82 28q48 0 79 -28t31 -67q0 -37 -23 -60q-11 -11 -22 -15q15 -4 30 -16
q30 -26 30 -69t-34.5 -74t-85.5 -31t-93 30q-19 14 -32 30z" />
    <glyph glyph-name="acute" unicode="&#xb4;" horiz-adv-x="190" 
d="M30 565l75 130h55l-90 -130h-40z" />
    <glyph glyph-name="uni00B5" unicode="&#xb5;" 
d="M85 -210v690h45v-285q0 -71 42.5 -115.5t107.5 -44.5q68 0 111.5 50t43.5 125v270h45v-390q0 -23 13.5 -36.5t36.5 -13.5q14 0 22 3l8 3v-46l-8 -3q-10 -2 -22 -2q-41 0 -68 25t-27 60q-14 -26 -34 -45q-47 -45 -121 -45q-67 0 -113 35q-21 14 -37 35v-270h-45z" />
    <glyph glyph-name="paragraph" unicode="&#xb6;" horiz-adv-x="525" 
d="M210 -100v480q-64 0 -112 48t-48 112t48 112t112 48h205v-800h-45v754h-115v-754h-45z" />
    <glyph glyph-name="middot" unicode="&#xb7;" horiz-adv-x="200" 
d="M65 250q0 15 10 25t25 10t25 -10t10 -25t-10 -25t-25 -10t-25 10t-10 25z" />
    <glyph glyph-name="cedilla" unicode="&#xb8;" horiz-adv-x="230" 
d="M30 -173l15 28q9 -9 19 -13q21 -12 46 -12q26 0 40.5 12.5t14.5 32.5q0 15 -12 27.5t-28 12.5q-13 0 -25 -5l-10 -5l-25 25l45 90h35l-40 -80q1 0 5 2q12 3 20 3q30 0 50 -20t20 -50q0 -31 -24.5 -53t-65.5 -22q-29 0 -57 13q-11 6 -23 14z" />
    <glyph glyph-name="uni00B9" unicode="&#xb9;" horiz-adv-x="220" 
d="M110 450v290q-6 -9 -16 -15q-21 -15 -54 -15v35q33 0 56 27q13 15 19 28h35v-350h-40z" />
    <glyph glyph-name="ordmasculine" unicode="&#xba;" horiz-adv-x="360" 
d="M180 400q-64 0 -107 43.5t-43 111.5t43 111.5t107 43.5t107 -43.5t43 -111.5t-43 -111.5t-107 -43.5zM180 440q49 0 79.5 31t30.5 84t-30.5 84t-79.5 31t-79.5 -31t-30.5 -84t30.5 -84t79.5 -31z" />
    <glyph glyph-name="guillemotright" unicode="&#xbb;" horiz-adv-x="440" 
d="M50 80l115 160l-115 160h55l115 -160l-115 -160h-55zM220 80l115 160l-115 160h55l115 -160l-115 -160h-55z" />
    <glyph glyph-name="onequarter" unicode="&#xbc;" horiz-adv-x="650" 
d="M110 350v290q-6 -9 -16 -15q-21 -15 -54 -15v35q33 0 56 27q13 15 19 28h35v-350h-40zM70 0l435 700h45l-435 -700h-45zM365 85v40l160 225h50v-225h45v-40h-45v-85h-40v85h-170zM410 125h125v175z" />
    <glyph glyph-name="onehalf" unicode="&#xbd;" horiz-adv-x="685" 
d="M110 350v290q-6 -9 -16 -15q-21 -15 -54 -15v35q33 0 56 27q13 15 19 28h35v-350h-40zM70 0l435 700h45l-435 -700h-45zM458 40h187v-40h-230q0 42 19.5 75t47.5 54.5t56 40t47.5 39.5t19.5 45t-20.5 42.5t-49.5 18.5q-39 0 -63 -30q-11 -15 -17 -30l-35 15q8 24 24 42
q35 43 91 43q49 0 79.5 -30.5t30.5 -70.5q0 -39 -25 -69t-56 -47t-63.5 -43t-42.5 -55z" />
    <glyph glyph-name="threequarters" unicode="&#xbe;" horiz-adv-x="715" 
d="M30 405l30 30q11 -14 25 -25q31 -25 70 -25q38 0 59 17.5t21 47.5q0 29 -20.5 47t-57.5 18h-47v40h45q65 0 65 55q0 24 -18.5 39.5t-51.5 15.5t-60 -23q-14 -14 -20 -22l-30 30q9 14 28 27q35 28 82 28q48 0 79 -28t31 -67q0 -37 -23 -60q-11 -11 -22 -15q15 -4 30 -16
q30 -26 30 -69t-34.5 -74t-85.5 -31t-93 30q-19 14 -32 30zM140 0l435 700h45l-435 -700h-45zM430 85v40l160 225h50v-225h45v-40h-45v-85h-40v85h-170zM475 125h125v175z" />
    <glyph glyph-name="questiondown" unicode="&#xbf;" horiz-adv-x="470" 
d="M225 450q0 15 10 25t25 10t25 -10t10 -25t-10 -25t-25 -10t-25 10t-10 25zM415 -50l45 -15q-13 -42 -41 -78q-61 -77 -169 -77q-92 0 -151 54t-59 131q0 51 20 87.5t48.5 59t57.5 44t49 56.5t20 83v25h45l2 -13q3 -24 3 -32q0 -38 -14.5 -69.5t-36 -51.5t-47 -41.5
t-47 -39.5t-36 -46t-14.5 -62q0 -58 43.5 -96.5t116.5 -38.5q89 0 135 60q21 26 30 60z" />
    <glyph glyph-name="Agrave" unicode="&#xc0;" horiz-adv-x="670" 
d="M20 0l290 700h50l290 -700h-55l-85 205h-350l-85 -205h-55zM180 255h310l-155 375zM310 795l-90 130h55l75 -130h-40z" />
    <glyph glyph-name="Aacute" unicode="&#xc1;" horiz-adv-x="670" 
d="M20 0l290 700h50l290 -700h-55l-85 205h-350l-85 -205h-55zM180 255h310l-155 375zM320 795l75 130h55l-90 -130h-40z" />
    <glyph glyph-name="Acircumflex" unicode="&#xc2;" horiz-adv-x="670" 
d="M20 0l290 700h50l290 -700h-55l-85 205h-350l-85 -205h-55zM180 255h310l-155 375zM205 795l105 130h50l105 -130h-45l-85 100l-85 -100h-45z" />
    <glyph glyph-name="Atilde" unicode="&#xc3;" horiz-adv-x="670" 
d="M20 0l290 700h50l290 -700h-55l-85 205h-350l-85 -205h-55zM180 255h310l-155 375zM233 795h-40q0 57 22 86t58 29q28 0 49.5 -19t39.5 -37.5t36 -18.5q40 0 40 75h40q0 -57 -22 -86t-58 -29q-22 0 -40.5 11.5t-29.5 26t-25.5 26t-29.5 11.5q-40 0 -40 -75z" />
    <glyph glyph-name="Adieresis" unicode="&#xc4;" horiz-adv-x="670" 
d="M20 0l290 700h50l290 -700h-55l-85 205h-350l-85 -205h-55zM180 255h310l-155 375zM215 860q0 15 10 25t25 10t25 -10t10 -25t-10 -25t-25 -10t-25 10t-10 25zM390 860q0 15 10 25t25 10t25 -10t10 -25t-10 -25t-25 -10t-25 10t-10 25z" />
    <glyph glyph-name="Aring" unicode="&#xc5;" horiz-adv-x="670" 
d="M20 0l290 700h50l290 -700h-55l-85 205h-350l-85 -205h-55zM180 255h310l-155 375zM240 860q0 39 27 67t68 28t68 -28t27 -67t-27 -67t-68 -28t-68 28t-27 67zM390 860q0 24 -14.5 39.5t-40.5 15.5t-40.5 -15.5t-14.5 -39.5t14.5 -39.5t40.5 -15.5t40.5 15.5t14.5 39.5z
" />
    <glyph glyph-name="AE" unicode="&#xc6;" horiz-adv-x="935" 
d="M-30 0l390 700h525v-50h-370v-260h290v-50h-290v-290h380v-50h-430v215h-320l-120 -215h-55zM170 265h295v385h-79z" />
    <glyph glyph-name="Ccedilla" unicode="&#xc7;" horiz-adv-x="750" 
d="M320 -173l15 28q9 -9 19 -13q21 -12 46 -12q26 0 40.5 12.5t14.5 32.5q0 15 -12 27.5t-28 12.5q-13 0 -25 -5l-10 -5l-25 25l30 61q-136 12 -230.5 115t-94.5 244q0 150 104 255t251 105q117 0 214 -75q42 -34 71 -75l-35 -30q-26 36 -62 65q-83 65 -188 65
q-128 0 -216.5 -89.5t-88.5 -220.5t88.5 -220.5t216.5 -89.5q106 0 191 65q38 29 64 65l35 -30q-33 -43 -73 -74q-97 -75 -212 -76l-25 -50q1 0 5 2q12 3 20 3q30 0 50 -20t20 -50q0 -31 -24.5 -53t-65.5 -22q-29 0 -57 13q-11 6 -23 14z" />
    <glyph glyph-name="Egrave" unicode="&#xc8;" horiz-adv-x="630" 
d="M110 0v700h470v-50h-420v-260h340v-50h-340v-290h430v-50h-480zM335 795l-90 130h55l75 -130h-40z" />
    <glyph glyph-name="Eacute" unicode="&#xc9;" horiz-adv-x="630" 
d="M110 0v700h470v-50h-420v-260h340v-50h-340v-290h430v-50h-480zM325 795l75 130h55l-90 -130h-40z" />
    <glyph glyph-name="Ecircumflex" unicode="&#xca;" horiz-adv-x="630" 
d="M110 0v700h470v-50h-420v-260h340v-50h-340v-290h430v-50h-480zM220 795l105 130h50l105 -130h-45l-85 100l-85 -100h-45z" />
    <glyph glyph-name="Edieresis" unicode="&#xcb;" horiz-adv-x="630" 
d="M110 0v700h470v-50h-420v-260h340v-50h-340v-290h430v-50h-480zM225 860q0 15 10 25t25 10t25 -10t10 -25t-10 -25t-25 -10t-25 10t-10 25zM400 860q0 15 10 25t25 10t25 -10t10 -25t-10 -25t-25 -10t-25 10t-10 25z" />
    <glyph glyph-name="Igrave" unicode="&#xcc;" horiz-adv-x="270" 
d="M110 0v700h50v-700h-50zM115 795l-90 130h55l75 -130h-40z" />
    <glyph glyph-name="Iacute" unicode="&#xcd;" horiz-adv-x="270" 
d="M110 0v700h50v-700h-50zM115 795l75 130h55l-90 -130h-40z" />
    <glyph glyph-name="Icircumflex" unicode="&#xce;" horiz-adv-x="270" 
d="M110 0v700h50v-700h-50zM5 795l105 130h50l105 -130h-45l-85 100l-85 -100h-45z" />
    <glyph glyph-name="Idieresis" unicode="&#xcf;" horiz-adv-x="270" 
d="M110 0v700h50v-700h-50zM15 860q0 15 10 25t25 10t25 -10t10 -25t-10 -25t-25 -10t-25 10t-10 25zM190 860q0 15 10 25t25 10t25 -10t10 -25t-10 -25t-25 -10t-25 10t-10 25z" />
    <glyph glyph-name="Eth" unicode="&#xd0;" horiz-adv-x="750" 
d="M120 0v325h-100v50h100v325h205q156 0 260.5 -101.5t104.5 -248.5t-104.5 -248.5t-260.5 -101.5h-205zM170 50h155q138 0 226.5 85.5t88.5 214.5t-88.5 214.5t-226.5 85.5h-155v-275h175v-50h-175v-275z" />
    <glyph glyph-name="Ntilde" unicode="&#xd1;" horiz-adv-x="775" 
d="M110 0v700h40l465 -605v605h50v-700h-40l-465 605v-605h-50zM285 795h-40q0 57 22 86t58 29q28 0 49.5 -19t39.5 -37.5t36 -18.5q40 0 40 75h40q0 -57 -22 -86t-58 -29q-22 0 -40.5 11.5t-29.5 26t-25.5 26t-29.5 11.5q-40 0 -40 -75z" />
    <glyph glyph-name="Ograve" unicode="&#xd2;" horiz-adv-x="830" 
d="M415 -10q-147 0 -251 105t-104 255t104 255t251 105t251 -105t104 -255t-104 -255t-251 -105zM415 40q128 0 216.5 89.5t88.5 220.5t-88.5 220.5t-216.5 89.5t-216.5 -89.5t-88.5 -220.5t88.5 -220.5t216.5 -89.5zM395 795l-90 130h55l75 -130h-40z" />
    <glyph glyph-name="Oacute" unicode="&#xd3;" horiz-adv-x="830" 
d="M415 -10q-147 0 -251 105t-104 255t104 255t251 105t251 -105t104 -255t-104 -255t-251 -105zM415 40q128 0 216.5 89.5t88.5 220.5t-88.5 220.5t-216.5 89.5t-216.5 -89.5t-88.5 -220.5t88.5 -220.5t216.5 -89.5zM395 795l75 130h55l-90 -130h-40z" />
    <glyph glyph-name="Ocircumflex" unicode="&#xd4;" horiz-adv-x="830" 
d="M415 -10q-147 0 -251 105t-104 255t104 255t251 105t251 -105t104 -255t-104 -255t-251 -105zM415 40q128 0 216.5 89.5t88.5 220.5t-88.5 220.5t-216.5 89.5t-216.5 -89.5t-88.5 -220.5t88.5 -220.5t216.5 -89.5zM285 795l105 130h50l105 -130h-45l-85 100l-85 -100h-45
z" />
    <glyph glyph-name="Otilde" unicode="&#xd5;" horiz-adv-x="830" 
d="M415 -10q-147 0 -251 105t-104 255t104 255t251 105t251 -105t104 -255t-104 -255t-251 -105zM415 40q128 0 216.5 89.5t88.5 220.5t-88.5 220.5t-216.5 89.5t-216.5 -89.5t-88.5 -220.5t88.5 -220.5t216.5 -89.5zM315 795h-40q0 57 22 86t58 29q28 0 49.5 -19
t39.5 -37.5t36 -18.5q40 0 40 75h40q0 -57 -22 -86t-58 -29q-22 0 -40.5 11.5t-29.5 26t-25.5 26t-29.5 11.5q-40 0 -40 -75z" />
    <glyph glyph-name="Odieresis" unicode="&#xd6;" horiz-adv-x="830" 
d="M415 -10q-147 0 -251 105t-104 255t104 255t251 105t251 -105t104 -255t-104 -255t-251 -105zM415 40q128 0 216.5 89.5t88.5 220.5t-88.5 220.5t-216.5 89.5t-216.5 -89.5t-88.5 -220.5t88.5 -220.5t216.5 -89.5zM295 860q0 15 10 25t25 10t25 -10t10 -25t-10 -25
t-25 -10t-25 10t-10 25zM470 860q0 15 10 25t25 10t25 -10t10 -25t-10 -25t-25 -10t-25 10t-10 25z" />
    <glyph glyph-name="multiply" unicode="&#xd7;" horiz-adv-x="490" 
d="M70 170l140 140l-140 140l35 35l140 -140l140 140l35 -35l-140 -140l140 -140l-35 -35l-140 140l-140 -140z" />
    <glyph glyph-name="Oslash" unicode="&#xd8;" horiz-adv-x="830" 
d="M55 20l90 95q-24 27 -43 65q-42 82 -42 170q0 150 104 255t251 105q92 0 172 -45q36 -19 63 -45l90 95l35 -35l-90 -95q23 -28 42 -65q43 -84 43 -170q0 -150 -104 -255t-251 -105q-92 0 -172 45q-36 19 -63 45l-90 -95zM180 150l435 435q-25 21 -53 37q-70 38 -147 38
q-128 0 -216.5 -89.5t-88.5 -220.5q0 -81 35 -145q14 -29 35 -55zM650 550l-435 -435q23 -22 53 -38q68 -37 147 -37q128 0 216.5 89.5t88.5 220.5q0 73 -35 145q-18 34 -35 55z" />
    <glyph glyph-name="Ugrave" unicode="&#xd9;" horiz-adv-x="750" 
d="M100 270v430h50v-430q0 -101 63.5 -165.5t161.5 -64.5t161.5 64.5t63.5 165.5v430h50v-430q0 -120 -79 -200t-196 -80t-196 80t-79 200zM355 795l-90 130h55l75 -130h-40z" />
    <glyph glyph-name="Uacute" unicode="&#xda;" horiz-adv-x="750" 
d="M100 270v430h50v-430q0 -101 63.5 -165.5t161.5 -64.5t161.5 64.5t63.5 165.5v430h50v-430q0 -120 -79 -200t-196 -80t-196 80t-79 200zM355 795l75 130h55l-90 -130h-40z" />
    <glyph glyph-name="Ucircumflex" unicode="&#xdb;" horiz-adv-x="750" 
d="M100 270v430h50v-430q0 -101 63.5 -165.5t161.5 -64.5t161.5 64.5t63.5 165.5v430h50v-430q0 -120 -79 -200t-196 -80t-196 80t-79 200zM245 795l105 130h50l105 -130h-45l-85 100l-85 -100h-45z" />
    <glyph glyph-name="Udieresis" unicode="&#xdc;" horiz-adv-x="750" 
d="M100 270v430h50v-430q0 -101 63.5 -165.5t161.5 -64.5t161.5 64.5t63.5 165.5v430h50v-430q0 -120 -79 -200t-196 -80t-196 80t-79 200zM255 860q0 15 10 25t25 10t25 -10t10 -25t-10 -25t-25 -10t-25 10t-10 25zM430 860q0 15 10 25t25 10t25 -10t10 -25t-10 -25
t-25 -10t-25 10t-10 25z" />
    <glyph glyph-name="Yacute" unicode="&#xdd;" horiz-adv-x="600" 
d="M275 0v245l-260 455h60l225 -400l225 400h60l-260 -455v-245h-50zM280 795l75 130h55l-90 -130h-40z" />
    <glyph glyph-name="Thorn" unicode="&#xde;" horiz-adv-x="700" 
d="M110 0v700h50v-145h265q99 0 159.5 -55.5t60.5 -139.5t-60.5 -139.5t-159.5 -55.5h-265v-165h-50zM160 215h265q81 0 125.5 39.5t44.5 105.5t-44.5 105.5t-125.5 39.5h-265v-290z" />
    <glyph glyph-name="germandbls" unicode="&#xdf;" horiz-adv-x="570" 
d="M85 0v530q0 76 54 128t136 52t136 -52t54 -128q0 -68 -50 -114q-25 -22 -50 -31q43 -11 75 -34q75 -55 75 -151q0 -87 -58.5 -143.5t-151.5 -56.5h-35v50h35q74 0 119.5 42.5t45.5 107.5q0 69 -45.5 112t-119.5 43h-35v45h5q62 0 103.5 38.5t41.5 91.5q0 57 -41 96
t-104 39t-104 -39t-41 -96v-530h-45z" />
    <glyph glyph-name="agrave" unicode="&#xe0;" horiz-adv-x="505" 
d="M380 0v85q-18 -29 -41 -48q-55 -47 -134 -47q-70 0 -115 40.5t-45 94.5q0 57 38.5 95.5t106.5 49.5l190 30q0 67 -37 106t-98 39q-55 0 -104 -35q-23 -18 -36 -35l-30 30q17 23 44 42q59 43 126 43q79 0 129.5 -52.5t50.5 -137.5v-300h-45zM380 210v45l-180 -30
q-110 -17 -110 -100q0 -36 32.5 -63t82.5 -27q75 0 125 50t50 125zM240 565l-90 130h55l75 -130h-40z" />
    <glyph glyph-name="aacute" unicode="&#xe1;" horiz-adv-x="505" 
d="M380 0v85q-18 -29 -41 -48q-55 -47 -134 -47q-70 0 -115 40.5t-45 94.5q0 57 38.5 95.5t106.5 49.5l190 30q0 67 -37 106t-98 39q-55 0 -104 -35q-23 -18 -36 -35l-30 30q17 23 44 42q59 43 126 43q79 0 129.5 -52.5t50.5 -137.5v-300h-45zM380 210v45l-180 -30
q-110 -17 -110 -100q0 -36 32.5 -63t82.5 -27q75 0 125 50t50 125zM240 565l75 130h55l-90 -130h-40z" />
    <glyph glyph-name="acircumflex" unicode="&#xe2;" horiz-adv-x="505" 
d="M380 0v85q-18 -29 -41 -48q-55 -47 -134 -47q-70 0 -115 40.5t-45 94.5q0 57 38.5 95.5t106.5 49.5l190 30q0 67 -37 106t-98 39q-55 0 -104 -35q-23 -18 -36 -35l-30 30q17 23 44 42q59 43 126 43q79 0 129.5 -52.5t50.5 -137.5v-300h-45zM380 210v45l-180 -30
q-110 -17 -110 -100q0 -36 32.5 -63t82.5 -27q75 0 125 50t50 125zM130 565l105 130h50l105 -130h-45l-85 100l-85 -100h-45z" />
    <glyph glyph-name="atilde" unicode="&#xe3;" horiz-adv-x="505" 
d="M380 0v85q-18 -29 -41 -48q-55 -47 -134 -47q-70 0 -115 40.5t-45 94.5q0 57 38.5 95.5t106.5 49.5l190 30q0 67 -37 106t-98 39q-55 0 -104 -35q-23 -18 -36 -35l-30 30q17 23 44 42q59 43 126 43q79 0 129.5 -52.5t50.5 -137.5v-300h-45zM380 210v45l-180 -30
q-110 -17 -110 -100q0 -36 32.5 -63t82.5 -27q75 0 125 50t50 125zM160 565h-40q0 57 22 86t58 29q28 0 49.5 -19t39.5 -37.5t36 -18.5q40 0 40 75h40q0 -57 -22 -86t-58 -29q-22 0 -40.5 11.5t-29.5 26t-25.5 26t-29.5 11.5q-40 0 -40 -75z" />
    <glyph glyph-name="adieresis" unicode="&#xe4;" horiz-adv-x="505" 
d="M380 0v85q-18 -29 -41 -48q-55 -47 -134 -47q-70 0 -115 40.5t-45 94.5q0 57 38.5 95.5t106.5 49.5l190 30q0 67 -37 106t-98 39q-55 0 -104 -35q-23 -18 -36 -35l-30 30q17 23 44 42q59 43 126 43q79 0 129.5 -52.5t50.5 -137.5v-300h-45zM380 210v45l-180 -30
q-110 -17 -110 -100q0 -36 32.5 -63t82.5 -27q75 0 125 50t50 125zM140 630q0 15 10 25t25 10t25 -10t10 -25t-10 -25t-25 -10t-25 10t-10 25zM315 630q0 15 10 25t25 10t25 -10t10 -25t-10 -25t-25 -10t-25 10t-10 25z" />
    <glyph glyph-name="aring" unicode="&#xe5;" horiz-adv-x="505" 
d="M380 0v85q-18 -29 -41 -48q-55 -47 -134 -47q-70 0 -115 40.5t-45 94.5q0 57 38.5 95.5t106.5 49.5l190 30q0 67 -37 106t-98 39q-55 0 -104 -35q-23 -18 -36 -35l-30 30q17 23 44 42q59 43 126 43q79 0 129.5 -52.5t50.5 -137.5v-300h-45zM380 210v45l-180 -30
q-110 -17 -110 -100q0 -36 32.5 -63t82.5 -27q75 0 125 50t50 125zM165 635q0 39 27 67t68 28t68 -28t27 -67t-27 -67t-68 -28t-68 28t-27 67zM315 635q0 24 -14.5 39.5t-40.5 15.5t-40.5 -15.5t-14.5 -39.5t14.5 -39.5t40.5 -15.5t40.5 15.5t14.5 39.5z" />
    <glyph glyph-name="ae" unicode="&#xe6;" horiz-adv-x="860" 
d="M200 270h180v30q0 67 -37 106t-98 39q-55 0 -104 -35q-23 -18 -36 -35l-30 30q17 23 44 42q59 43 126 43q87 0 133 -60q22 -26 32 -60q20 34 48 60q62 60 142 60q85 0 147.5 -70.5t62.5 -179.5v-15h-385q8 -82 59.5 -136t120.5 -54q66 0 114 42q22 19 36 43l35 -30
q-19 -27 -46 -50q-62 -50 -139 -50q-89 0 -153 70q-30 33 -47 70q-12 -36 -40 -70q-60 -70 -160 -70q-70 0 -115 41t-45 99q0 61 42.5 100.5t112.5 39.5zM425 270h340q-8 78 -54 126.5t-111 48.5q-64 0 -117.5 -53.5t-57.5 -121.5zM380 210v15h-180q-52 0 -81 -26t-29 -69
q0 -40 31.5 -67.5t83.5 -27.5q75 0 125 50t50 125z" />
    <glyph glyph-name="ccedilla" unicode="&#xe7;" horiz-adv-x="515" 
d="M195 -173l15 28q9 -9 19 -13q21 -12 46 -12q26 0 40.5 12.5t14.5 32.5q0 15 -12 27.5t-28 12.5q-13 0 -25 -5l-10 -5l-25 25l31 62q-87 8 -149 79.5t-62 168.5q0 104 70 177t165 73q78 0 142 -50q30 -24 48 -50l-35 -30q-15 23 -38 42q-55 43 -117 43q-76 0 -133 -60
t-57 -145t57 -145t133 -60q63 0 117 42q24 19 38 43l35 -30q-18 -25 -46 -48q-63 -48 -134 -52l-25 -50l5 2q12 3 20 3q30 0 50 -20t20 -50q0 -31 -24.5 -53t-65.5 -22q-29 0 -57 13q-11 6 -23 14z" />
    <glyph glyph-name="egrave" unicode="&#xe8;" horiz-adv-x="550" 
d="M440 120l35 -30q-18 -26 -48 -50q-64 -50 -142 -50q-95 0 -165 73t-70 177q0 107 67.5 178.5t162.5 71.5q92 0 156 -70t64 -180v-20h-405q8 -79 62 -132t128 -53q63 0 117 42q24 19 38 43zM95 265h360q-8 83 -55.5 131.5t-119.5 48.5q-71 0 -126 -54t-59 -126zM260 565
l-90 130h55l75 -130h-40z" />
    <glyph glyph-name="eacute" unicode="&#xe9;" horiz-adv-x="550" 
d="M440 120l35 -30q-18 -26 -48 -50q-64 -50 -142 -50q-95 0 -165 73t-70 177q0 107 67.5 178.5t162.5 71.5q92 0 156 -70t64 -180v-20h-405q8 -79 62 -132t128 -53q63 0 117 42q24 19 38 43zM95 265h360q-8 83 -55.5 131.5t-119.5 48.5q-71 0 -126 -54t-59 -126zM260 565
l75 130h55l-90 -130h-40z" />
    <glyph glyph-name="ecircumflex" unicode="&#xea;" horiz-adv-x="550" 
d="M440 120l35 -30q-18 -26 -48 -50q-64 -50 -142 -50q-95 0 -165 73t-70 177q0 107 67.5 178.5t162.5 71.5q92 0 156 -70t64 -180v-20h-405q8 -79 62 -132t128 -53q63 0 117 42q24 19 38 43zM95 265h360q-8 83 -55.5 131.5t-119.5 48.5q-71 0 -126 -54t-59 -126zM150 565
l105 130h50l105 -130h-45l-85 100l-85 -100h-45z" />
    <glyph glyph-name="edieresis" unicode="&#xeb;" horiz-adv-x="550" 
d="M440 120l35 -30q-18 -26 -48 -50q-64 -50 -142 -50q-95 0 -165 73t-70 177q0 107 67.5 178.5t162.5 71.5q92 0 156 -70t64 -180v-20h-405q8 -79 62 -132t128 -53q63 0 117 42q24 19 38 43zM95 265h360q-8 83 -55.5 131.5t-119.5 48.5q-71 0 -126 -54t-59 -126zM160 630
q0 15 10 25t25 10t25 -10t10 -25t-10 -25t-25 -10t-25 10t-10 25zM335 630q0 15 10 25t25 10t25 -10t10 -25t-10 -25t-25 -10t-25 10t-10 25z" />
    <glyph glyph-name="igrave" unicode="&#xec;" horiz-adv-x="225" 
d="M90 0v480h45v-480h-45zM90 565l-90 130h55l75 -130h-40z" />
    <glyph glyph-name="iacute" unicode="&#xed;" horiz-adv-x="225" 
d="M90 0v480h45v-480h-45zM95 565l75 130h55l-90 -130h-40z" />
    <glyph glyph-name="icircumflex" unicode="&#xee;" horiz-adv-x="225" 
d="M90 0v480h45v-480h-45zM-15 565l105 130h50l105 -130h-45l-85 100l-85 -100h-45z" />
    <glyph glyph-name="idieresis" unicode="&#xef;" horiz-adv-x="225" 
d="M90 0v480h45v-480h-45zM-10 630q0 15 10 25t25 10t25 -10t10 -25t-10 -25t-25 -10t-25 10t-10 25zM165 630q0 15 10 25t25 10t25 -10t10 -25t-10 -25t-25 -10t-25 10t-10 25z" />
    <glyph glyph-name="eth" unicode="&#xf0;" horiz-adv-x="585" 
d="M160 615l105 55l-34 31q-46 38 -76 54l45 20q35 -22 77 -55q17 -14 28 -25l95 55l30 -30l-100 -55q52 -50 97 -119q98 -152 98 -306q0 -104 -70.5 -177t-169.5 -73q-98 0 -166.5 69.5t-68.5 170.5t68.5 170.5t166.5 69.5q63 0 119 -33q24 -14 41 -32h5q-31 85 -99 168
q-30 37 -61 67l-100 -55zM285 35q79 0 134.5 56.5t55.5 138.5t-55.5 138.5t-134.5 56.5t-134.5 -56.5t-55.5 -138.5t55.5 -138.5t134.5 -56.5z" />
    <glyph glyph-name="ntilde" unicode="&#xf1;" horiz-adv-x="570" 
d="M85 0v480h45v-85q16 27 39 47q54 48 126 48q83 0 139 -58t56 -147v-285h-45v285q0 71 -42.5 115.5t-107.5 44.5q-69 0 -117 -50.5t-48 -124.5v-270h-45zM185 565h-40q0 57 22 86t58 29q28 0 49.5 -19t39.5 -37.5t36 -18.5q40 0 40 75h40q0 -57 -22 -86t-58 -29
q-22 0 -40.5 11.5t-29.5 26t-25.5 26t-29.5 11.5q-40 0 -40 -75z" />
    <glyph glyph-name="ograve" unicode="&#xf2;" 
d="M290 -10q-99 0 -169.5 73t-70.5 177t70.5 177t169.5 73t169.5 -73t70.5 -177t-70.5 -177t-169.5 -73zM290 35q80 0 137.5 60t57.5 145t-57.5 145t-137.5 60t-137.5 -60t-57.5 -145t57.5 -145t137.5 -60zM270 565l-90 130h55l75 -130h-40z" />
    <glyph glyph-name="oacute" unicode="&#xf3;" 
d="M290 -10q-99 0 -169.5 73t-70.5 177t70.5 177t169.5 73t169.5 -73t70.5 -177t-70.5 -177t-169.5 -73zM290 35q80 0 137.5 60t57.5 145t-57.5 145t-137.5 60t-137.5 -60t-57.5 -145t57.5 -145t137.5 -60zM270 565l75 130h55l-90 -130h-40z" />
    <glyph glyph-name="ocircumflex" unicode="&#xf4;" 
d="M290 -10q-99 0 -169.5 73t-70.5 177t70.5 177t169.5 73t169.5 -73t70.5 -177t-70.5 -177t-169.5 -73zM290 35q80 0 137.5 60t57.5 145t-57.5 145t-137.5 60t-137.5 -60t-57.5 -145t57.5 -145t137.5 -60zM160 565l105 130h50l105 -130h-45l-85 100l-85 -100h-45z" />
    <glyph glyph-name="otilde" unicode="&#xf5;" 
d="M290 -10q-99 0 -169.5 73t-70.5 177t70.5 177t169.5 73t169.5 -73t70.5 -177t-70.5 -177t-169.5 -73zM290 35q80 0 137.5 60t57.5 145t-57.5 145t-137.5 60t-137.5 -60t-57.5 -145t57.5 -145t137.5 -60zM185 565h-40q0 57 22 86t58 29q28 0 49.5 -19t39.5 -37.5t36 -18.5
q40 0 40 75h40q0 -57 -22 -86t-58 -29q-22 0 -40.5 11.5t-29.5 26t-25.5 26t-29.5 11.5q-40 0 -40 -75z" />
    <glyph glyph-name="odieresis" unicode="&#xf6;" 
d="M290 -10q-99 0 -169.5 73t-70.5 177t70.5 177t169.5 73t169.5 -73t70.5 -177t-70.5 -177t-169.5 -73zM290 35q80 0 137.5 60t57.5 145t-57.5 145t-137.5 60t-137.5 -60t-57.5 -145t57.5 -145t137.5 -60zM170 630q0 15 10 25t25 10t25 -10t10 -25t-10 -25t-25 -10t-25 10
t-10 25zM345 630q0 15 10 25t25 10t25 -10t10 -25t-10 -25t-25 -10t-25 10t-10 25z" />
    <glyph glyph-name="divide" unicode="&#xf7;" horiz-adv-x="500" 
d="M215 110q0 15 10 25t25 10t25 -10t10 -25t-10 -25t-25 -10t-25 10t-10 25zM45 270v45h410v-45h-410zM215 475q0 15 10 25t25 10t25 -10t10 -25t-10 -25t-25 -10t-25 10t-10 25z" />
    <glyph glyph-name="oslash" unicode="&#xf8;" 
d="M40 10l65 70q-16 19 -28 44q-27 50 -27 116q0 104 70.5 177t169.5 73q59 0 113 -30q24 -14 42 -30l65 70l30 -30l-65 -70q16 -21 27 -44q28 -52 28 -116q0 -104 -70.5 -177t-169.5 -73q-59 0 -113 30q-24 14 -42 30l-65 -70zM135 115l280 285q-14 10 -36 22
q-48 23 -89 23q-80 0 -137.5 -60t-57.5 -145q0 -49 20 -91q7 -16 20 -34zM445 365l-280 -285q13 -11 36 -23q46 -22 89 -22q80 0 137.5 60t57.5 145q0 49 -20 91q-7 16 -20 34z" />
    <glyph glyph-name="ugrave" unicode="&#xf9;" horiz-adv-x="575" 
d="M85 195v285h45v-285q0 -71 42.5 -115.5t107.5 -44.5q69 0 117 50.5t48 124.5v270h45v-480h-45v85q-15 -27 -39 -48q-53 -47 -126 -47q-83 0 -139 58t-56 147zM270 565l-90 130h55l75 -130h-40z" />
    <glyph glyph-name="uacute" unicode="&#xfa;" horiz-adv-x="575" 
d="M85 195v285h45v-285q0 -71 42.5 -115.5t107.5 -44.5q69 0 117 50.5t48 124.5v270h45v-480h-45v85q-15 -27 -39 -48q-53 -47 -126 -47q-83 0 -139 58t-56 147zM270 565l75 130h55l-90 -130h-40z" />
    <glyph glyph-name="ucircumflex" unicode="&#xfb;" horiz-adv-x="575" 
d="M85 195v285h45v-285q0 -71 42.5 -115.5t107.5 -44.5q69 0 117 50.5t48 124.5v270h45v-480h-45v85q-15 -27 -39 -48q-53 -47 -126 -47q-83 0 -139 58t-56 147zM160 565l105 130h50l105 -130h-45l-85 100l-85 -100h-45z" />
    <glyph glyph-name="udieresis" unicode="&#xfc;" horiz-adv-x="575" 
d="M85 195v285h45v-285q0 -71 42.5 -115.5t107.5 -44.5q69 0 117 50.5t48 124.5v270h45v-480h-45v85q-15 -27 -39 -48q-53 -47 -126 -47q-83 0 -139 58t-56 147zM165 630q0 15 10 25t25 10t25 -10t10 -25t-10 -25t-25 -10t-25 10t-10 25zM340 630q0 15 10 25t25 10t25 -10
t10 -25t-10 -25t-25 -10t-25 10t-10 25z" />
    <glyph glyph-name="yacute" unicode="&#xfd;" horiz-adv-x="480" 
d="M45 -200v45q8 -4 13 -5q15 -5 32 -5q33 0 54 18t36 57l35 90l-195 480h50l170 -420l170 420h50l-230 -570q-27 -66 -57.5 -93t-82.5 -27q-17 0 -32 5q-5 1 -13 5zM220 565l75 130h55l-90 -130h-40z" />
    <glyph glyph-name="thorn" unicode="&#xfe;" horiz-adv-x="595" 
d="M90 -210v910h45v-315q19 30 44 52q61 53 141 53q92 0 158.5 -71.5t66.5 -178.5t-66.5 -178.5t-158.5 -71.5q-81 0 -141 52q-26 23 -44 53v-305h-45zM320 35q73 0 126.5 58.5t53.5 146.5t-53.5 146.5t-126.5 58.5q-76 0 -130.5 -58.5t-54.5 -146.5t54.5 -146.5
t130.5 -58.5z" />
    <glyph glyph-name="ydieresis" unicode="&#xff;" horiz-adv-x="480" 
d="M45 -200v45q8 -4 13 -5q15 -5 32 -5q33 0 54 18t36 57l35 90l-195 480h50l170 -420l170 420h50l-230 -570q-27 -66 -57.5 -93t-82.5 -27q-17 0 -32 5q-5 1 -13 5zM120 630q0 15 10 25t25 10t25 -10t10 -25t-10 -25t-25 -10t-25 10t-10 25zM295 630q0 15 10 25t25 10
t25 -10t10 -25t-10 -25t-25 -10t-25 10t-10 25z" />
    <glyph glyph-name="Amacron" unicode="&#x100;" horiz-adv-x="670" 
d="M20 0l290 700h50l290 -700h-55l-85 205h-350l-85 -205h-55zM180 255h310l-155 375zM200 840v40h270v-40h-270z" />
    <glyph glyph-name="amacron" unicode="&#x101;" horiz-adv-x="505" 
d="M380 0v85q-18 -29 -41 -48q-55 -47 -134 -47q-70 0 -115 40.5t-45 94.5q0 57 38.5 95.5t106.5 49.5l190 30q0 67 -37 106t-98 39q-55 0 -104 -35q-23 -18 -36 -35l-30 30q17 23 44 42q59 43 126 43q79 0 129.5 -52.5t50.5 -137.5v-300h-45zM380 210v45l-180 -30
q-110 -17 -110 -100q0 -36 32.5 -63t82.5 -27q75 0 125 50t50 125zM125 620v40h270v-40h-270z" />
    <glyph glyph-name="Abreve" unicode="&#x102;" horiz-adv-x="670" 
d="M20 0l290 700h50l290 -700h-55l-85 205h-350l-85 -205h-55zM180 255h310l-155 375zM205 925h40q0 -42 24 -66t66 -24t66 24t24 66h40q0 -57 -36.5 -93.5t-93.5 -36.5t-93.5 36.5t-36.5 93.5z" />
    <glyph glyph-name="abreve" unicode="&#x103;" horiz-adv-x="505" 
d="M380 0v85q-18 -29 -41 -48q-55 -47 -134 -47q-70 0 -115 40.5t-45 94.5q0 57 38.5 95.5t106.5 49.5l190 30q0 67 -37 106t-98 39q-55 0 -104 -35q-23 -18 -36 -35l-30 30q17 23 44 42q59 43 126 43q79 0 129.5 -52.5t50.5 -137.5v-300h-45zM380 210v45l-180 -30
q-110 -17 -110 -100q0 -36 32.5 -63t82.5 -27q75 0 125 50t50 125zM130 695h40q0 -42 24 -66t66 -24t66 24t24 66h40q0 -57 -36.5 -93.5t-93.5 -36.5t-93.5 36.5t-36.5 93.5z" />
    <glyph glyph-name="Aogonek" unicode="&#x104;" horiz-adv-x="670" 
d="M20 0l290 700h50l290 -700h-20q-20 -19 -33 -37q-32 -46 -32 -78q0 -23 14.5 -36.5t40.5 -13.5q23 0 41 7l19 8v-35l-19 -8q-18 -7 -41 -7q-42 0 -66 23t-24 62q0 40 32 82q14 18 33 33l-85 205h-350l-85 -205h-55zM180 255h310l-155 375z" />
    <glyph glyph-name="aogonek" unicode="&#x105;" horiz-adv-x="505" 
d="M465 -150v-35l-19 -8q-18 -7 -41 -7q-42 0 -66 23t-24 62q0 40 32 82q13 18 33 33v85q-18 -29 -41 -48q-55 -47 -134 -47q-70 0 -115 40.5t-45 94.5q0 57 38.5 95.5t106.5 49.5l190 30q0 67 -37 106t-98 39q-55 0 -104 -35q-23 -18 -36 -35l-30 30q17 23 44 42
q59 43 126 43q79 0 129.5 -52.5t50.5 -137.5v-300h-10q-20 -19 -33 -37q-32 -46 -32 -78q0 -23 14.5 -36.5t40.5 -13.5q23 0 41 7zM380 210v45l-180 -30q-110 -17 -110 -100q0 -36 32.5 -63t82.5 -27q75 0 125 50t50 125z" />
    <glyph glyph-name="Cacute" unicode="&#x106;" horiz-adv-x="750" 
d="M670 170l35 -30q-33 -44 -74 -75q-94 -75 -216 -75q-147 0 -251 105t-104 255t104 255t251 105q117 0 214 -75q42 -34 71 -75l-35 -30q-26 36 -62 65q-83 65 -188 65q-128 0 -216.5 -89.5t-88.5 -220.5t88.5 -220.5t216.5 -89.5q106 0 191 65q38 29 64 65zM390 795
l75 130h55l-90 -130h-40z" />
    <glyph glyph-name="cacute" unicode="&#x107;" horiz-adv-x="515" 
d="M440 120l35 -30q-18 -26 -48 -50q-64 -50 -142 -50q-95 0 -165 73t-70 177t70 177t165 73q78 0 142 -50q30 -24 48 -50l-35 -30q-15 23 -38 42q-55 43 -117 43q-76 0 -133 -60t-57 -145t57 -145t133 -60q63 0 117 42q24 19 38 43zM260 565l75 130h55l-90 -130h-40z" />
    <glyph glyph-name="Ccircumflex" unicode="&#x108;" horiz-adv-x="750" 
d="M670 170l35 -30q-33 -44 -74 -75q-94 -75 -216 -75q-147 0 -251 105t-104 255t104 255t251 105q117 0 214 -75q42 -34 71 -75l-35 -30q-26 36 -62 65q-83 65 -188 65q-128 0 -216.5 -89.5t-88.5 -220.5t88.5 -220.5t216.5 -89.5q106 0 191 65q38 29 64 65zM280 795
l105 130h50l105 -130h-45l-85 100l-85 -100h-45z" />
    <glyph glyph-name="ccircumflex" unicode="&#x109;" horiz-adv-x="515" 
d="M440 120l35 -30q-18 -26 -48 -50q-64 -50 -142 -50q-95 0 -165 73t-70 177t70 177t165 73q78 0 142 -50q30 -24 48 -50l-35 -30q-15 23 -38 42q-55 43 -117 43q-76 0 -133 -60t-57 -145t57 -145t133 -60q63 0 117 42q24 19 38 43zM150 565l105 130h50l105 -130h-45
l-85 100l-85 -100h-45z" />
    <glyph glyph-name="Cdotaccent" unicode="&#x10a;" horiz-adv-x="750" 
d="M670 170l35 -30q-33 -44 -74 -75q-94 -75 -216 -75q-147 0 -251 105t-104 255t104 255t251 105q117 0 214 -75q42 -34 71 -75l-35 -30q-26 36 -62 65q-83 65 -188 65q-128 0 -216.5 -89.5t-88.5 -220.5t88.5 -220.5t216.5 -89.5q106 0 191 65q38 29 64 65zM375 860
q0 15 10 25t25 10t25 -10t10 -25t-10 -25t-25 -10t-25 10t-10 25z" />
    <glyph glyph-name="cdotaccent" unicode="&#x10b;" horiz-adv-x="515" 
d="M440 120l35 -30q-18 -26 -48 -50q-64 -50 -142 -50q-95 0 -165 73t-70 177t70 177t165 73q78 0 142 -50q30 -24 48 -50l-35 -30q-15 23 -38 42q-55 43 -117 43q-76 0 -133 -60t-57 -145t57 -145t133 -60q63 0 117 42q24 19 38 43zM245 630q0 15 10 25t25 10t25 -10
t10 -25t-10 -25t-25 -10t-25 10t-10 25z" />
    <glyph glyph-name="Ccaron" unicode="&#x10c;" horiz-adv-x="750" 
d="M670 170l35 -30q-33 -44 -74 -75q-94 -75 -216 -75q-147 0 -251 105t-104 255t104 255t251 105q117 0 214 -75q42 -34 71 -75l-35 -30q-26 36 -62 65q-83 65 -188 65q-128 0 -216.5 -89.5t-88.5 -220.5t88.5 -220.5t216.5 -89.5q106 0 191 65q38 29 64 65zM385 795
l-105 130h45l85 -100l85 100h45l-105 -130h-50z" />
    <glyph glyph-name="ccaron" unicode="&#x10d;" horiz-adv-x="515" 
d="M440 120l35 -30q-18 -26 -48 -50q-64 -50 -142 -50q-95 0 -165 73t-70 177t70 177t165 73q78 0 142 -50q30 -24 48 -50l-35 -30q-15 23 -38 42q-55 43 -117 43q-76 0 -133 -60t-57 -145t57 -145t133 -60q63 0 117 42q24 19 38 43zM255 565l-105 130h45l85 -100l85 100h45
l-105 -130h-50z" />
    <glyph glyph-name="Dcaron" unicode="&#x10e;" horiz-adv-x="740" 
d="M110 0v700h205q156 0 260.5 -101.5t104.5 -248.5t-104.5 -248.5t-260.5 -101.5h-205zM160 50h155q138 0 226.5 85.5t88.5 214.5t-88.5 214.5t-226.5 85.5h-155v-600zM345 795l-105 130h45l85 -100l85 100h45l-105 -130h-50z" />
    <glyph glyph-name="dcaron" unicode="&#x10f;" horiz-adv-x="640" 
d="M460 0v95q-18 -30 -44 -53q-60 -52 -141 -52q-92 0 -158.5 71.5t-66.5 178.5t66.5 178.5t158.5 71.5q80 0 141 -53q25 -22 44 -52v315h45v-700h-45zM275 35q76 0 130.5 58.5t54.5 146.5t-54.5 146.5t-130.5 58.5q-73 0 -126.5 -58.5t-53.5 -146.5t53.5 -146.5
t126.5 -58.5zM575 565l45 135h50l-60 -135h-35z" />
    <glyph glyph-name="Dcroat" unicode="&#x110;" horiz-adv-x="750" 
d="M120 0v325h-100v50h100v325h205q156 0 260.5 -101.5t104.5 -248.5t-104.5 -248.5t-260.5 -101.5h-205zM170 50h155q138 0 226.5 85.5t88.5 214.5t-88.5 214.5t-226.5 85.5h-155v-275h175v-50h-175v-275z" />
    <glyph glyph-name="dslash" unicode="&#x111;" horiz-adv-x="595" 
d="M460 0v95q-18 -30 -44 -53q-60 -52 -141 -52q-91 0 -158 70t-67 170t67 170t158 70q80 0 141 -53q25 -22 44 -52v190h-145v45h145v100h45v-100h80v-45h-80v-555h-45zM275 35q76 0 130.5 56.5t54.5 138.5q0 81 -54.5 138t-130.5 57q-72 0 -126 -57t-54 -138t54 -138
t126 -57z" />
    <glyph glyph-name="Emacron" unicode="&#x112;" horiz-adv-x="630" 
d="M110 0v700h470v-50h-420v-260h340v-50h-340v-290h430v-50h-480zM215 840v40h270v-40h-270z" />
    <glyph glyph-name="emacron" unicode="&#x113;" horiz-adv-x="550" 
d="M440 120l35 -30q-18 -26 -48 -50q-64 -50 -142 -50q-95 0 -165 73t-70 177q0 107 67.5 178.5t162.5 71.5q92 0 156 -70t64 -180v-20h-405q8 -79 62 -132t128 -53q63 0 117 42q24 19 38 43zM95 265h360q-8 83 -55.5 131.5t-119.5 48.5q-71 0 -126 -54t-59 -126zM145 620
v40h270v-40h-270z" />
    <glyph glyph-name="Ebreve" unicode="&#x114;" horiz-adv-x="630" 
d="M110 0v700h470v-50h-420v-260h340v-50h-340v-290h430v-50h-480zM220 925h40q0 -42 24 -66t66 -24t66 24t24 66h40q0 -57 -36.5 -93.5t-93.5 -36.5t-93.5 36.5t-36.5 93.5z" />
    <glyph glyph-name="ebreve" unicode="&#x115;" horiz-adv-x="550" 
d="M440 120l35 -30q-18 -26 -48 -50q-64 -50 -142 -50q-95 0 -165 73t-70 177q0 107 67.5 178.5t162.5 71.5q92 0 156 -70t64 -180v-20h-405q8 -79 62 -132t128 -53q63 0 117 42q24 19 38 43zM95 265h360q-8 83 -55.5 131.5t-119.5 48.5q-71 0 -126 -54t-59 -126zM150 695
h40q0 -42 24 -66t66 -24t66 24t24 66h40q0 -57 -36.5 -93.5t-93.5 -36.5t-93.5 36.5t-36.5 93.5z" />
    <glyph glyph-name="Edotaccent" unicode="&#x116;" horiz-adv-x="630" 
d="M110 0v700h470v-50h-420v-260h340v-50h-340v-290h430v-50h-480zM315 860q0 15 10 25t25 10t25 -10t10 -25t-10 -25t-25 -10t-25 10t-10 25z" />
    <glyph glyph-name="edotaccent" unicode="&#x117;" horiz-adv-x="550" 
d="M440 120l35 -30q-18 -26 -48 -50q-64 -50 -142 -50q-95 0 -165 73t-70 177q0 107 67.5 178.5t162.5 71.5q92 0 156 -70t64 -180v-20h-405q8 -79 62 -132t128 -53q63 0 117 42q24 19 38 43zM95 265h360q-8 83 -55.5 131.5t-119.5 48.5q-71 0 -126 -54t-59 -126zM245 630
q0 15 10 25t25 10t25 -10t10 -25t-10 -25t-25 -10t-25 10t-10 25z" />
    <glyph glyph-name="Eogonek" unicode="&#x118;" horiz-adv-x="630" 
d="M110 0v700h470v-50h-420v-260h340v-50h-340v-290h430v-50q-20 -19 -33 -37q-32 -46 -32 -78q0 -23 14.5 -36.5t40.5 -13.5q23 0 41 7l19 8v-35l-19 -8q-18 -7 -41 -7q-42 0 -66 23t-24 62q0 40 32 82q14 18 33 33h-445z" />
    <glyph glyph-name="eogonek" unicode="&#x119;" horiz-adv-x="550" 
d="M370 -150v-35l-19 -8q-18 -7 -41 -7q-42 0 -66 23t-24 62q0 32 17 60.5t36 44.5q-91 4 -157 75.5t-66 174.5q0 107 67.5 178.5t162.5 71.5q92 0 156 -70t64 -180v-20h-405q8 -79 62 -132t128 -53q63 0 117 42q24 19 38 43l35 -30q-17 -26 -42 -45q-54 -44 -122 -53
q-56 -67 -56 -107q0 -23 14.5 -36.5t40.5 -13.5q23 0 41 7zM95 265h360q-8 83 -55.5 131.5t-119.5 48.5q-71 0 -126 -54t-59 -126z" />
    <glyph glyph-name="Ecaron" unicode="&#x11a;" horiz-adv-x="630" 
d="M110 0v700h470v-50h-420v-260h340v-50h-340v-290h430v-50h-480zM325 795l-105 130h45l85 -100l85 100h45l-105 -130h-50z" />
    <glyph glyph-name="ecaron" unicode="&#x11b;" horiz-adv-x="550" 
d="M440 120l35 -30q-18 -26 -48 -50q-64 -50 -142 -50q-95 0 -165 73t-70 177q0 107 67.5 178.5t162.5 71.5q92 0 156 -70t64 -180v-20h-405q8 -79 62 -132t128 -53q63 0 117 42q24 19 38 43zM95 265h360q-8 83 -55.5 131.5t-119.5 48.5q-71 0 -126 -54t-59 -126zM255 565
l-105 130h45l85 -100l85 100h45l-105 -130h-50z" />
    <glyph glyph-name="Gcircumflex" unicode="&#x11c;" horiz-adv-x="790" 
d="M480 300v50h230v-210q-30 -40 -76 -75q-98 -75 -219 -75q-147 0 -251 105t-104 255t104 255t251 105q117 0 214 -75q42 -34 71 -75l-35 -30q-26 36 -62 65q-83 65 -188 65q-128 0 -216.5 -89.5t-88.5 -220.5t88.5 -220.5t216.5 -89.5q101 0 182 57q34 24 63 58v145h-180z
M280 795l105 130h50l105 -130h-45l-85 100l-85 -100h-45z" />
    <glyph glyph-name="gcircumflex" unicode="&#x11d;" 
d="M75 -110l35 30q14 -24 38 -43q54 -42 117 -42q76 0 130.5 56.5t54.5 138.5v85q-16 -29 -43 -53q-56 -52 -137 -52q-91 0 -155.5 68.5t-64.5 171.5t64.5 171.5t155.5 68.5q80 0 137 -53q26 -23 43 -52v95h45v-450q0 -100 -68 -170t-162 -70q-78 0 -142 50q-30 24 -48 50z
M270 55q76 0 128 55t52 140t-52 140t-128 55q-73 0 -124 -55t-51 -140t51 -140t124 -55zM155 565l105 130h50l105 -130h-45l-85 100l-85 -100h-45z" />
    <glyph glyph-name="Gbreve" unicode="&#x11e;" horiz-adv-x="790" 
d="M480 300v50h230v-210q-30 -40 -76 -75q-98 -75 -219 -75q-147 0 -251 105t-104 255t104 255t251 105q117 0 214 -75q42 -34 71 -75l-35 -30q-26 36 -62 65q-83 65 -188 65q-128 0 -216.5 -89.5t-88.5 -220.5t88.5 -220.5t216.5 -89.5q101 0 182 57q34 24 63 58v145h-180z
M280 925h40q0 -42 24 -66t66 -24t66 24t24 66h40q0 -57 -36.5 -93.5t-93.5 -36.5t-93.5 36.5t-36.5 93.5z" />
    <glyph glyph-name="gbreve" unicode="&#x11f;" 
d="M75 -110l35 30q14 -24 38 -43q54 -42 117 -42q76 0 130.5 56.5t54.5 138.5v85q-16 -29 -43 -53q-56 -52 -137 -52q-91 0 -155.5 68.5t-64.5 171.5t64.5 171.5t155.5 68.5q80 0 137 -53q26 -23 43 -52v95h45v-450q0 -100 -68 -170t-162 -70q-78 0 -142 50q-30 24 -48 50z
M270 55q76 0 128 55t52 140t-52 140t-128 55q-73 0 -124 -55t-51 -140t51 -140t124 -55zM155 695h40q0 -42 24 -66t66 -24t66 24t24 66h40q0 -57 -36.5 -93.5t-93.5 -36.5t-93.5 36.5t-36.5 93.5z" />
    <glyph glyph-name="Gdotaccent" unicode="&#x120;" horiz-adv-x="790" 
d="M480 300v50h230v-210q-30 -40 -76 -75q-98 -75 -219 -75q-147 0 -251 105t-104 255t104 255t251 105q117 0 214 -75q42 -34 71 -75l-35 -30q-26 36 -62 65q-83 65 -188 65q-128 0 -216.5 -89.5t-88.5 -220.5t88.5 -220.5t216.5 -89.5q101 0 182 57q34 24 63 58v145h-180z
M375 860q0 15 10 25t25 10t25 -10t10 -25t-10 -25t-25 -10t-25 10t-10 25z" />
    <glyph glyph-name="gdotaccent" unicode="&#x121;" 
d="M75 -110l35 30q14 -24 38 -43q54 -42 117 -42q76 0 130.5 56.5t54.5 138.5v85q-16 -29 -43 -53q-56 -52 -137 -52q-91 0 -155.5 68.5t-64.5 171.5t64.5 171.5t155.5 68.5q80 0 137 -53q26 -23 43 -52v95h45v-450q0 -100 -68 -170t-162 -70q-78 0 -142 50q-30 24 -48 50z
M270 55q76 0 128 55t52 140t-52 140t-128 55q-73 0 -124 -55t-51 -140t51 -140t124 -55zM250 630q0 15 10 25t25 10t25 -10t10 -25t-10 -25t-25 -10t-25 10t-10 25z" />
    <glyph glyph-name="Gcommaaccent" unicode="&#x122;" horiz-adv-x="790" 
d="M480 300v50h230v-210q-30 -40 -76 -75q-98 -75 -219 -75q-147 0 -251 105t-104 255t104 255t251 105q117 0 214 -75q42 -34 71 -75l-35 -30q-26 36 -62 65q-83 65 -188 65q-128 0 -216.5 -89.5t-88.5 -220.5t88.5 -220.5t216.5 -89.5q101 0 182 57q34 24 63 58v145h-180z
M340 -215l45 135h50l-60 -135h-35z" />
    <glyph glyph-name="gcommaaccent" unicode="&#x123;" 
d="M260 565l60 135h35l-45 -135h-50zM75 -110l35 30q14 -24 38 -43q54 -42 117 -42q76 0 130.5 56.5t54.5 138.5v85q-16 -29 -43 -53q-56 -52 -137 -52q-91 0 -155.5 68.5t-64.5 171.5t64.5 171.5t155.5 68.5q80 0 137 -53q26 -23 43 -52v95h45v-450q0 -100 -68 -170
t-162 -70q-78 0 -142 50q-30 24 -48 50zM270 55q76 0 128 55t52 140t-52 140t-128 55q-73 0 -124 -55t-51 -140t51 -140t124 -55z" />
    <glyph glyph-name="Hcircumflex" unicode="&#x124;" horiz-adv-x="745" 
d="M110 0v700h50v-320h425v320h50v-700h-50v330h-425v-330h-50zM245 795l105 130h50l105 -130h-45l-85 100l-85 -100h-45z" />
    <glyph glyph-name="hcircumflex" unicode="&#x125;" horiz-adv-x="575" 
d="M90 0v700h45v-305q16 27 39 47q54 48 126 48q83 0 139 -58t56 -147v-285h-45v285q0 71 -42.5 115.5t-107.5 44.5q-69 0 -117 -50.5t-48 -124.5v-270h-45zM165 795l105 130h50l105 -130h-45l-85 100l-85 -100h-45z" />
    <glyph glyph-name="Hbar" unicode="&#x126;" horiz-adv-x="755" 
d="M125 0v505h-105v45h105v150h50v-150h405v150h50v-150h105v-45h-105v-505h-50v305h-405v-305h-50zM175 355h405v150h-405v-150z" />
    <glyph glyph-name="hbar" unicode="&#x127;" horiz-adv-x="585" 
d="M100 0v555h-90v45h90v100h45v-100h150v-45h-150v-200q16 27 39 47q54 48 126 48q83 0 139 -58t56 -147v-245h-45v245q0 71 -42.5 115.5t-107.5 44.5q-69 0 -117 -50.5t-48 -124.5v-230h-45z" />
    <glyph glyph-name="Imacron" unicode="&#x12a;" horiz-adv-x="270" 
d="M110 0v700h50v-700h-50zM0 840v40h270v-40h-270z" />
    <glyph glyph-name="imacron" unicode="&#x12b;" horiz-adv-x="225" 
d="M90 0v480h45v-480h-45zM-20 620v40h270v-40h-270z" />
    <glyph glyph-name="Ibreve" unicode="&#x12c;" horiz-adv-x="270" 
d="M110 0v700h50v-700h-50zM5 925h40q0 -42 24 -66t66 -24t66 24t24 66h40q0 -57 -36.5 -93.5t-93.5 -36.5t-93.5 36.5t-36.5 93.5z" />
    <glyph glyph-name="ibreve" unicode="&#x12d;" horiz-adv-x="225" 
d="M90 0v480h45v-480h-45zM-15 695h40q0 -42 24 -66t66 -24t66 24t24 66h40q0 -57 -36.5 -93.5t-93.5 -36.5t-93.5 36.5t-36.5 93.5z" />
    <glyph glyph-name="Iogonek" unicode="&#x12e;" horiz-adv-x="270" 
d="M195 -150v-35l-19 -8q-18 -7 -41 -7q-42 0 -66 23t-24 62q0 40 32 82q13 18 33 33v700h50v-700h-15q-20 -19 -33 -37q-32 -46 -32 -78q0 -23 14.5 -36.5t40.5 -13.5q23 0 41 7z" />
    <glyph glyph-name="iogonek" unicode="&#x12f;" horiz-adv-x="225" 
d="M80 650q0 15 10 25t25 10t25 -10t10 -25t-10 -25t-25 -10t-25 10t-10 25zM175 -150v-35l-19 -8q-18 -7 -41 -7q-42 0 -66 23t-24 62q0 40 32 82q13 18 33 33v480h45v-480h-10q-20 -19 -33 -37q-32 -46 -32 -78q0 -23 14.5 -36.5t40.5 -13.5q23 0 41 7z" />
    <glyph glyph-name="Idot" unicode="&#x130;" horiz-adv-x="270" 
d="M110 0v700h50v-700h-50zM100 860q0 15 10 25t25 10t25 -10t10 -25t-10 -25t-25 -10t-25 10t-10 25z" />
    <glyph glyph-name="dotlessi" unicode="&#x131;" horiz-adv-x="225" 
d="M90 0v480h45v-480h-45z" />
    <glyph glyph-name="uni0132" unicode="&#x132;" horiz-adv-x="700" 
d="M225 65l35 35q14 -16 33 -30q46 -30 97 -30q72 0 116 45t44 120v495h50v-495q0 -93 -60 -154t-150 -61q-67 0 -122 37q-23 15 -43 38zM110 0v700h50v-700h-50z" />
    <glyph glyph-name="uni0133" unicode="&#x133;" horiz-adv-x="445" 
d="M80 650q0 15 10 25t25 10t25 -10t10 -25t-10 -25t-25 -10t-25 10t-10 25zM90 0v480h45v-480h-45zM300 650q0 15 10 25t25 10t25 -10t10 -25t-10 -25t-25 -10t-25 10t-10 25zM175 -195v45q4 -2 17 -8q19 -7 43 -7q35 0 55 22t20 63v560h45v-560q0 -59 -33 -94.5t-87 -35.5
q-24 0 -43 7q-13 5 -17 8z" />
    <glyph glyph-name="Jcircumflex" unicode="&#x134;" horiz-adv-x="485" 
d="M10 65l35 35q13 -16 33 -30q46 -30 97 -30q72 0 116 45t44 120v495h50v-495q0 -93 -60 -154t-150 -61q-67 0 -122 37q-23 15 -43 38zM230 795l105 130h50l105 -130h-45l-85 100l-85 -100h-45z" />
    <glyph glyph-name="jcircumflex" unicode="&#x135;" horiz-adv-x="225" 
d="M-45 -195v45q4 -2 17 -8q19 -7 43 -7q35 0 55 22t20 63v560h45v-560q0 -59 -33 -94.5t-87 -35.5q-24 0 -43 7q-13 5 -17 8zM-15 565l105 130h50l105 -130h-45l-85 100l-85 -100h-45z" />
    <glyph glyph-name="Kcommaaccent" unicode="&#x136;" horiz-adv-x="640" 
d="M110 0v700h50v-430l390 430h65l-265 -290l290 -410h-60l-263 372l-157 -172v-200h-50zM290 -215l45 135h50l-60 -135h-35z" />
    <glyph glyph-name="kcommaaccent" unicode="&#x137;" horiz-adv-x="490" 
d="M90 0v700h45v-505l265 285h60l-180 -195l205 -285h-55l-181 252l-114 -122v-130h-45zM210 -215l45 135h50l-60 -135h-35z" />
    <glyph glyph-name="Lacute" unicode="&#x139;" horiz-adv-x="555" 
d="M110 0v700h50v-650h375v-50h-425zM115 795l75 130h55l-90 -130h-40z" />
    <glyph glyph-name="lacute" unicode="&#x13a;" horiz-adv-x="225" 
d="M90 0v700h45v-700h-45zM95 795l75 130h55l-90 -130h-40z" />
    <glyph glyph-name="Lcommaaccent" unicode="&#x13b;" horiz-adv-x="555" 
d="M110 0v700h50v-650h375v-50h-425zM265 -215l45 135h50l-60 -135h-35z" />
    <glyph glyph-name="lcommaaccent" unicode="&#x13c;" horiz-adv-x="225" 
d="M90 0v700h45v-700h-45zM40 -215l45 135h50l-60 -135h-35z" />
    <glyph glyph-name="Lcaron" unicode="&#x13d;" horiz-adv-x="555" 
d="M110 0v700h50v-650h375v-50h-425zM265 565l45 135h50l-60 -135h-35z" />
    <glyph glyph-name="lcaron" unicode="&#x13e;" horiz-adv-x="270" 
d="M90 0v700h45v-700h-45zM205 565l45 135h50l-60 -135h-35z" />
    <glyph glyph-name="Ldot" unicode="&#x13f;" horiz-adv-x="555" 
d="M110 0v700h50v-650h375v-50h-425zM310 370q0 15 10 25t25 10t25 -10t10 -25t-10 -25t-25 -10t-25 10t-10 25z" />
    <glyph glyph-name="ldot" unicode="&#x140;" horiz-adv-x="325" 
d="M90 0v700h45v-700h-45zM225 350q0 15 10 25t25 10t25 -10t10 -25t-10 -25t-25 -10t-25 10t-10 25z" />
    <glyph glyph-name="Lslash" unicode="&#x141;" horiz-adv-x="590" 
d="M145 0v300l-120 -70l-25 40l145 85v345h50v-315l155 92l25 -42l-180 -105v-280h375v-50h-425z" />
    <glyph glyph-name="lslash" unicode="&#x142;" horiz-adv-x="335" 
d="M145 0v335l-130 -80l-20 35l150 90v320h45v-295l130 80l20 -35l-150 -90v-360h-45z" />
    <glyph glyph-name="Nacute" unicode="&#x143;" horiz-adv-x="775" 
d="M110 0v700h40l465 -605v605h50v-700h-40l-465 605v-605h-50zM365 795l75 130h55l-90 -130h-40z" />
    <glyph glyph-name="nacute" unicode="&#x144;" horiz-adv-x="570" 
d="M85 0v480h45v-85q16 27 39 47q54 48 126 48q83 0 139 -58t56 -147v-285h-45v285q0 71 -42.5 115.5t-107.5 44.5q-69 0 -117 -50.5t-48 -124.5v-270h-45zM270 565l75 130h55l-90 -130h-40z" />
    <glyph glyph-name="Ncommaaccent" unicode="&#x145;" horiz-adv-x="775" 
d="M110 0v700h40l465 -605v605h50v-700h-40l-465 605v-605h-50zM320 -215l45 135h50l-60 -135h-35z" />
    <glyph glyph-name="ncommaaccent" unicode="&#x146;" horiz-adv-x="570" 
d="M85 0v480h45v-85q16 27 39 47q54 48 126 48q83 0 139 -58t56 -147v-285h-45v285q0 71 -42.5 115.5t-107.5 44.5q-69 0 -117 -50.5t-48 -124.5v-270h-45zM220 -215l45 135h50l-60 -135h-35z" />
    <glyph glyph-name="Ncaron" unicode="&#x147;" horiz-adv-x="775" 
d="M110 0v700h40l465 -605v605h50v-700h-40l-465 605v-605h-50zM365 795l-105 130h45l85 -100l85 100h45l-105 -130h-50z" />
    <glyph glyph-name="ncaron" unicode="&#x148;" horiz-adv-x="570" 
d="M85 0v480h45v-85q16 27 39 47q54 48 126 48q83 0 139 -58t56 -147v-285h-45v285q0 71 -42.5 115.5t-107.5 44.5q-69 0 -117 -50.5t-48 -124.5v-270h-45zM265 565l-105 130h45l85 -100l85 100h45l-105 -130h-50z" />
    <glyph glyph-name="napostrophe" unicode="&#x149;" horiz-adv-x="570" 
d="M85 0v480h45v-85q16 27 39 47q54 48 126 48q83 0 139 -58t56 -147v-285h-45v285q0 71 -42.5 115.5t-107.5 44.5q-69 0 -117 -50.5t-48 -124.5v-270h-45zM20 545l45 135h50l-60 -135h-35z" />
    <glyph glyph-name="Eng" unicode="&#x14a;" horiz-adv-x="775" 
d="M110 0v700h40l465 -605v605h50v-700q0 -91 -60 -151t-150 -60q-67 0 -122 37q-23 15 -43 38l35 35q13 -17 33 -30q46 -30 97 -30q72 0 116 44.5t44 116.5v15l-455 590v-605h-50z" />
    <glyph glyph-name="eng" unicode="&#x14b;" horiz-adv-x="570" 
d="M85 0v480h45v-85q16 27 39 47q54 48 126 48q83 0 139 -58t56 -147v-365q0 -59 -33 -94.5t-87 -35.5q-24 0 -43 7q-13 5 -17 8v45q4 -2 17 -8q19 -7 43 -7q35 0 55 22t20 63v365q0 71 -42.5 115.5t-107.5 44.5q-69 0 -117 -50.5t-48 -124.5v-270h-45z" />
    <glyph glyph-name="Omacron" unicode="&#x14c;" horiz-adv-x="830" 
d="M415 -10q-147 0 -251 105t-104 255t104 255t251 105t251 -105t104 -255t-104 -255t-251 -105zM415 40q128 0 216.5 89.5t88.5 220.5t-88.5 220.5t-216.5 89.5t-216.5 -89.5t-88.5 -220.5t88.5 -220.5t216.5 -89.5zM280 840v40h270v-40h-270z" />
    <glyph glyph-name="omacron" unicode="&#x14d;" 
d="M290 -10q-99 0 -169.5 73t-70.5 177t70.5 177t169.5 73t169.5 -73t70.5 -177t-70.5 -177t-169.5 -73zM290 35q80 0 137.5 60t57.5 145t-57.5 145t-137.5 60t-137.5 -60t-57.5 -145t57.5 -145t137.5 -60zM155 620v40h270v-40h-270z" />
    <glyph glyph-name="Obreve" unicode="&#x14e;" horiz-adv-x="830" 
d="M415 -10q-147 0 -251 105t-104 255t104 255t251 105t251 -105t104 -255t-104 -255t-251 -105zM415 40q128 0 216.5 89.5t88.5 220.5t-88.5 220.5t-216.5 89.5t-216.5 -89.5t-88.5 -220.5t88.5 -220.5t216.5 -89.5zM285 925h40q0 -42 24 -66t66 -24t66 24t24 66h40
q0 -57 -36.5 -93.5t-93.5 -36.5t-93.5 36.5t-36.5 93.5z" />
    <glyph glyph-name="obreve" unicode="&#x14f;" 
d="M290 -10q-99 0 -169.5 73t-70.5 177t70.5 177t169.5 73t169.5 -73t70.5 -177t-70.5 -177t-169.5 -73zM290 35q80 0 137.5 60t57.5 145t-57.5 145t-137.5 60t-137.5 -60t-57.5 -145t57.5 -145t137.5 -60zM160 695h40q0 -42 24 -66t66 -24t66 24t24 66h40
q0 -57 -36.5 -93.5t-93.5 -36.5t-93.5 36.5t-36.5 93.5z" />
    <glyph glyph-name="Ohungarumlaut" unicode="&#x150;" horiz-adv-x="830" 
d="M415 -10q-147 0 -251 105t-104 255t104 255t251 105t251 -105t104 -255t-104 -255t-251 -105zM415 40q128 0 216.5 89.5t88.5 220.5t-88.5 220.5t-216.5 89.5t-216.5 -89.5t-88.5 -220.5t88.5 -220.5t216.5 -89.5zM320 795l75 130h55l-90 -130h-40zM465 795l75 130h55
l-90 -130h-40z" />
    <glyph glyph-name="ohungarumlaut" unicode="&#x151;" 
d="M290 -10q-99 0 -169.5 73t-70.5 177t70.5 177t169.5 73t169.5 -73t70.5 -177t-70.5 -177t-169.5 -73zM290 35q80 0 137.5 60t57.5 145t-57.5 145t-137.5 60t-137.5 -60t-57.5 -145t57.5 -145t137.5 -60zM195 565l75 130h55l-90 -130h-40zM340 565l75 130h55l-90 -130h-40
z" />
    <glyph glyph-name="OE" unicode="&#x152;" horiz-adv-x="990" 
d="M570 50h380v-50h-530q-153 0 -256.5 101.5t-103.5 248.5t103.5 248.5t256.5 101.5h520v-50h-370v-260h290v-50h-290v-290zM420 50h100v600h-100q-134 0 -222 -86t-88 -214t88 -214t222 -86z" />
    <glyph glyph-name="oe" unicode="&#x153;" horiz-adv-x="935" 
d="M830 120l35 -30q-19 -27 -46 -50q-62 -50 -139 -50q-94 0 -157 75q-29 33 -48 75q-18 -43 -46 -75q-62 -75 -154 -75q-88 0 -156.5 73.5t-68.5 176.5t68.5 176.5t156.5 73.5q89 0 154 -75q28 -32 46 -75q18 43 46 75q65 75 154 75q85 0 147.5 -70.5t62.5 -179.5v-20h-385
q8 -79 60 -132t120 -53q66 0 114 42q22 19 36 43zM275 35q69 0 124.5 60.5t55.5 144.5t-55.5 144.5t-124.5 60.5t-124.5 -60.5t-55.5 -144.5t55.5 -144.5t124.5 -60.5zM500 265h340q-8 82 -54 131t-111 49q-64 0 -117.5 -54.5t-57.5 -125.5z" />
    <glyph glyph-name="Racute" unicode="&#x154;" horiz-adv-x="660" 
d="M110 0v700h265q93 0 154 -59t61 -146q0 -101 -78 -158q-37 -27 -77 -37l170 -300h-55l-165 290h-225v-290h-50zM160 340h215q74 0 119.5 43t45.5 112t-45.5 112t-119.5 43h-215v-310zM315 795l75 130h55l-90 -130h-40z" />
    <glyph glyph-name="racute" unicode="&#x155;" horiz-adv-x="335" 
d="M85 0v480h45v-85q16 27 40 47q54 48 130 48h20v-45h-20q-72 0 -121 -50t-49 -125v-270h-45zM185 565l75 130h55l-90 -130h-40z" />
    <glyph glyph-name="Rcommaaccent" unicode="&#x156;" horiz-adv-x="660" 
d="M110 0v700h265q93 0 154 -59t61 -146q0 -101 -78 -158q-37 -27 -77 -37l170 -300h-55l-165 290h-225v-290h-50zM160 340h215q74 0 119.5 43t45.5 112t-45.5 112t-119.5 43h-215v-310zM280 -215l45 135h50l-60 -135h-35z" />
    <glyph glyph-name="rcommaaccent" unicode="&#x157;" horiz-adv-x="335" 
d="M85 0v480h45v-85q16 27 40 47q54 48 130 48h20v-45h-20q-72 0 -121 -50t-49 -125v-270h-45zM35 -215l45 135h50l-60 -135h-35z" />
    <glyph glyph-name="Rcaron" unicode="&#x158;" horiz-adv-x="660" 
d="M110 0v700h265q93 0 154 -59t61 -146q0 -101 -78 -158q-37 -27 -77 -37l170 -300h-55l-165 290h-225v-290h-50zM160 340h215q74 0 119.5 43t45.5 112t-45.5 112t-119.5 43h-215v-310zM320 795l-105 130h45l85 -100l85 100h45l-105 -130h-50z" />
    <glyph glyph-name="rcaron" unicode="&#x159;" horiz-adv-x="335" 
d="M85 0v480h45v-85q16 27 40 47q54 48 130 48h20v-45h-20q-72 0 -121 -50t-49 -125v-270h-45zM180 565l-105 130h45l85 -100l85 100h45l-105 -130h-50z" />
    <glyph glyph-name="Sacute" unicode="&#x15a;" horiz-adv-x="560" 
d="M45 95l35 35q21 -27 47 -45q63 -45 148 -45q88 0 134 39.5t46 105.5q0 52 -40 84t-97.5 49.5t-115 37t-97.5 61.5t-40 108q0 77 61 131t159 54q77 0 149 -43q30 -18 51 -42l-35 -35q-14 16 -41 35q-58 35 -124 35q-80 0 -125 -38t-45 -97q0 -52 40 -84t97.5 -49.5
t115 -37t97.5 -61.5t40 -108q0 -85 -62 -140t-168 -55q-98 0 -173 52q-32 22 -57 53zM260 795l75 130h55l-90 -130h-40z" />
    <glyph glyph-name="sacute" unicode="&#x15b;" horiz-adv-x="430" 
d="M40 70l35 35q18 -21 36 -35q42 -35 99 -35q58 0 91.5 28.5t33.5 71.5q0 33 -28.5 53.5t-68.5 32t-80.5 25t-69 42t-28.5 72.5q0 51 44.5 90.5t110.5 39.5q55 0 111 -35q25 -18 39 -35l-35 -35q-11 15 -29 30q-38 30 -86 30q-51 0 -80.5 -25t-29.5 -60q0 -32 28.5 -51.5
t69 -30.5t80.5 -24.5t68.5 -43t28.5 -75.5q0 -62 -47 -103.5t-123 -41.5q-68 0 -126 40q-28 19 -44 40zM195 565l75 130h55l-90 -130h-40z" />
    <glyph glyph-name="Scircumflex" unicode="&#x15c;" horiz-adv-x="560" 
d="M45 95l35 35q21 -27 47 -45q63 -45 148 -45q88 0 134 39.5t46 105.5q0 52 -40 84t-97.5 49.5t-115 37t-97.5 61.5t-40 108q0 77 61 131t159 54q77 0 149 -43q30 -18 51 -42l-35 -35q-14 16 -41 35q-58 35 -124 35q-80 0 -125 -38t-45 -97q0 -52 40 -84t97.5 -49.5
t115 -37t97.5 -61.5t40 -108q0 -85 -62 -140t-168 -55q-98 0 -173 52q-32 22 -57 53zM150 795l105 130h50l105 -130h-45l-85 100l-85 -100h-45z" />
    <glyph glyph-name="scircumflex" unicode="&#x15d;" horiz-adv-x="430" 
d="M40 70l35 35q18 -21 36 -35q42 -35 99 -35q58 0 91.5 28.5t33.5 71.5q0 33 -28.5 53.5t-68.5 32t-80.5 25t-69 42t-28.5 72.5q0 51 44.5 90.5t110.5 39.5q55 0 111 -35q25 -18 39 -35l-35 -35q-11 15 -29 30q-38 30 -86 30q-51 0 -80.5 -25t-29.5 -60q0 -32 28.5 -51.5
t69 -30.5t80.5 -24.5t68.5 -43t28.5 -75.5q0 -62 -47 -103.5t-123 -41.5q-68 0 -126 40q-28 19 -44 40zM85 565l105 130h50l105 -130h-45l-85 100l-85 -100h-45z" />
    <glyph glyph-name="Scedilla" unicode="&#x15e;" horiz-adv-x="560" 
d="M190 -173l15 28q9 -9 19 -13q21 -12 46 -12q26 0 40.5 12.5t14.5 32.5q0 15 -12 27.5t-28 12.5q-13 0 -25 -5l-10 -5l-25 25l30 61q-88 5 -158 55q-31 22 -52 49l35 35q21 -27 47 -45q63 -45 148 -45q88 0 134 39.5t46 105.5q0 52 -40 84t-97.5 49.5t-115 37t-97.5 61.5
t-40 108q0 77 61 131t159 54q77 0 149 -43q30 -18 51 -42l-35 -35q-14 16 -41 35q-58 35 -124 35q-80 0 -125 -38t-45 -97q0 -52 40 -84t97.5 -49.5t115 -37t97.5 -61.5t40 -108q0 -82 -57.5 -136.5t-157.5 -58.5l-25 -50l5 2q12 3 20 3q30 0 50 -20t20 -50q0 -31 -24.5 -53
t-65.5 -22q-29 0 -57 13q-11 6 -23 14z" />
    <glyph glyph-name="scedilla" unicode="&#x15f;" horiz-adv-x="430" 
d="M125 -173l15 28q9 -9 19 -13q21 -12 46 -12q26 0 40.5 12.5t14.5 32.5q0 15 -12 27.5t-28 12.5q-13 0 -25 -5l-10 -5l-25 25l30 61q-61 5 -111 43q-23 16 -39 36l35 35q18 -21 36 -35q42 -35 99 -35q58 0 91.5 28.5t33.5 71.5q0 33 -28.5 53.5t-68.5 32t-80.5 25t-69 42
t-28.5 72.5q0 51 44.5 90.5t110.5 39.5q55 0 111 -35q25 -18 39 -35l-35 -35q-11 15 -29 30q-38 30 -86 30q-51 0 -80.5 -25t-29.5 -60q0 -32 28.5 -51.5t69 -30.5t80.5 -24.5t68.5 -43t28.5 -75.5q0 -58 -42.5 -99t-112.5 -45l-25 -51l5 2q12 3 20 3q30 0 50 -20t20 -50
q0 -31 -24.5 -53t-65.5 -22q-29 0 -57 13q-11 6 -23 14z" />
    <glyph glyph-name="Scaron" unicode="&#x160;" horiz-adv-x="560" 
d="M45 95l35 35q21 -27 47 -45q63 -45 148 -45q88 0 134 39.5t46 105.5q0 52 -40 84t-97.5 49.5t-115 37t-97.5 61.5t-40 108q0 77 61 131t159 54q77 0 149 -43q30 -18 51 -42l-35 -35q-14 16 -41 35q-58 35 -124 35q-80 0 -125 -38t-45 -97q0 -52 40 -84t97.5 -49.5
t115 -37t97.5 -61.5t40 -108q0 -85 -62 -140t-168 -55q-98 0 -173 52q-32 22 -57 53zM255 795l-105 130h45l85 -100l85 100h45l-105 -130h-50z" />
    <glyph glyph-name="scaron" unicode="&#x161;" horiz-adv-x="430" 
d="M40 70l35 35q18 -21 36 -35q42 -35 99 -35q58 0 91.5 28.5t33.5 71.5q0 33 -28.5 53.5t-68.5 32t-80.5 25t-69 42t-28.5 72.5q0 51 44.5 90.5t110.5 39.5q55 0 111 -35q25 -18 39 -35l-35 -35q-11 15 -29 30q-38 30 -86 30q-51 0 -80.5 -25t-29.5 -60q0 -32 28.5 -51.5
t69 -30.5t80.5 -24.5t68.5 -43t28.5 -75.5q0 -62 -47 -103.5t-123 -41.5q-68 0 -126 40q-28 19 -44 40zM190 565l-105 130h45l85 -100l85 100h45l-105 -130h-50z" />
    <glyph glyph-name="uni0162" unicode="&#x162;" horiz-adv-x="550" 
d="M195 -173l15 28q9 -9 19 -13q21 -12 46 -12q26 0 40.5 12.5t14.5 32.5q0 15 -12 27.5t-28 12.5q-13 0 -25 -5l-10 -5l-25 25l35 70h-15v650h-230v50h510v-50h-230v-650l-30 -60l5 2q12 3 20 3q30 0 50 -20t20 -50q0 -31 -24.5 -53t-65.5 -22q-29 0 -57 13q-11 6 -23 14z
" />
    <glyph glyph-name="uni0163" unicode="&#x163;" horiz-adv-x="350" 
d="M135 -173l15 28q8 -9 19 -13q21 -12 46 -12q26 0 40.5 12.5t14.5 32.5q0 15 -12 27.5t-28 12.5q-13 0 -25 -5l-10 -5l-25 25l35 65q-80 27 -80 125v315h-95v45h65q15 0 25 11t10 29v120h40v-160h110v-45h-110v-315q0 -41 20 -63t55 -22q25 0 46 7q1 1 8.5 3.5t10.5 4.5
v-45l-5 -2.5t-7 -3t-7 -2.5q-21 -7 -46 -7h-10l-25 -50l5 2q12 3 20 3q30 0 50 -20t20 -50q0 -31 -24.5 -53t-65.5 -22q-29 0 -57 13q-11 6 -23 14z" />
    <glyph glyph-name="Tcaron" unicode="&#x164;" horiz-adv-x="550" 
d="M250 0v650h-230v50h510v-50h-230v-650h-50zM250 795l-105 130h45l85 -100l85 100h45l-105 -130h-50z" />
    <glyph glyph-name="tcaron" unicode="&#x165;" horiz-adv-x="370" 
d="M125 120v315h-95v45h65q15 0 25 11t10 29v120h40v-160h110v-45h-110v-315q0 -41 20 -63t55 -22q25 0 46 7q1 1 8.5 3.5t10.5 4.5v-45l-5 -2.5t-7 -3t-7 -2.5q-21 -7 -46 -7q-57 0 -88.5 33.5t-31.5 96.5zM305 565l45 135h50l-60 -135h-35z" />
    <glyph glyph-name="Tbar" unicode="&#x166;" horiz-adv-x="550" 
d="M250 0v385h-165v45h165v220h-230v50h510v-50h-230v-220h165v-45h-165v-385h-50z" />
    <glyph glyph-name="tbar" unicode="&#x167;" horiz-adv-x="350" 
d="M125 120v125h-95v45h95v145h-95v45h65q15 0 25 11t10 29v120h40v-160h110v-45h-110v-145h110v-45h-110v-125q0 -41 20 -63t55 -22q25 0 46 7q1 1 8.5 3.5t10.5 4.5v-45l-5 -2.5t-7 -3t-7 -2.5q-21 -7 -46 -7q-57 0 -88.5 33.5t-31.5 96.5z" />
    <glyph glyph-name="Umacron" unicode="&#x16a;" horiz-adv-x="750" 
d="M100 270v430h50v-430q0 -101 63.5 -165.5t161.5 -64.5t161.5 64.5t63.5 165.5v430h50v-430q0 -120 -79 -200t-196 -80t-196 80t-79 200zM240 840v40h270v-40h-270z" />
    <glyph glyph-name="umacron" unicode="&#x16b;" horiz-adv-x="575" 
d="M85 195v285h45v-285q0 -71 42.5 -115.5t107.5 -44.5q69 0 117 50.5t48 124.5v270h45v-480h-45v85q-15 -27 -39 -48q-53 -47 -126 -47q-83 0 -139 58t-56 147zM155 620v40h270v-40h-270z" />
    <glyph glyph-name="Ubreve" unicode="&#x16c;" horiz-adv-x="750" 
d="M100 270v430h50v-430q0 -101 63.5 -165.5t161.5 -64.5t161.5 64.5t63.5 165.5v430h50v-430q0 -120 -79 -200t-196 -80t-196 80t-79 200zM245 925h40q0 -42 24 -66t66 -24t66 24t24 66h40q0 -57 -36.5 -93.5t-93.5 -36.5t-93.5 36.5t-36.5 93.5z" />
    <glyph glyph-name="ubreve" unicode="&#x16d;" horiz-adv-x="575" 
d="M85 195v285h45v-285q0 -71 42.5 -115.5t107.5 -44.5q69 0 117 50.5t48 124.5v270h45v-480h-45v85q-15 -27 -39 -48q-53 -47 -126 -47q-83 0 -139 58t-56 147zM160 695h40q0 -42 24 -66t66 -24t66 24t24 66h40q0 -57 -36.5 -93.5t-93.5 -36.5t-93.5 36.5t-36.5 93.5z" />
    <glyph glyph-name="Uring" unicode="&#x16e;" horiz-adv-x="750" 
d="M100 270v430h50v-430q0 -101 63.5 -165.5t161.5 -64.5t161.5 64.5t63.5 165.5v430h50v-430q0 -120 -79 -200t-196 -80t-196 80t-79 200zM280 860q0 39 27 67t68 28t68 -28t27 -67t-27 -67t-68 -28t-68 28t-27 67zM430 860q0 24 -14.5 39.5t-40.5 15.5t-40.5 -15.5
t-14.5 -39.5t14.5 -39.5t40.5 -15.5t40.5 15.5t14.5 39.5z" />
    <glyph glyph-name="uring" unicode="&#x16f;" horiz-adv-x="575" 
d="M85 195v285h45v-285q0 -71 42.5 -115.5t107.5 -44.5q69 0 117 50.5t48 124.5v270h45v-480h-45v85q-15 -27 -39 -48q-53 -47 -126 -47q-83 0 -139 58t-56 147zM195 635q0 39 27 67t68 28t68 -28t27 -67t-27 -67t-68 -28t-68 28t-27 67zM345 635q0 24 -14.5 39.5
t-40.5 15.5t-40.5 -15.5t-14.5 -39.5t14.5 -39.5t40.5 -15.5t40.5 15.5t14.5 39.5z" />
    <glyph glyph-name="Uhungarumlaut" unicode="&#x170;" horiz-adv-x="750" 
d="M100 270v430h50v-430q0 -101 63.5 -165.5t161.5 -64.5t161.5 64.5t63.5 165.5v430h50v-430q0 -120 -79 -200t-196 -80t-196 80t-79 200zM275 795l75 130h55l-90 -130h-40zM420 795l75 130h55l-90 -130h-40z" />
    <glyph glyph-name="uhungarumlaut" unicode="&#x171;" horiz-adv-x="575" 
d="M85 195v285h45v-285q0 -71 42.5 -115.5t107.5 -44.5q69 0 117 50.5t48 124.5v270h45v-480h-45v85q-15 -27 -39 -48q-53 -47 -126 -47q-83 0 -139 58t-56 147zM190 565l75 130h55l-90 -130h-40zM335 565l75 130h55l-90 -130h-40z" />
    <glyph glyph-name="Uogonek" unicode="&#x172;" horiz-adv-x="750" 
d="M470 -150v-35l-19 -8q-18 -7 -41 -7q-42 0 -66 23t-24 62q0 32 17 60.5t36 44.5q-115 0 -194 80t-79 200v430h50v-430q0 -101 63.5 -165.5t161.5 -64.5t161.5 64.5t63.5 165.5v430h50v-430q0 -113 -69.5 -191t-168.5 -86q-57 -57 -57 -108q0 -23 14.5 -36.5t40.5 -13.5
q23 0 41 7z" />
    <glyph glyph-name="uogonek" unicode="&#x173;" horiz-adv-x="575" 
d="M85 195v285h45v-285q0 -71 42.5 -115.5t107.5 -44.5q69 0 117 50.5t48 124.5v270h45v-480h-10q-20 -19 -33 -37q-32 -46 -32 -78q0 -23 14.5 -36.5t40.5 -13.5q23 0 41 7l19 8v-35l-19 -8q-18 -7 -41 -7q-42 0 -66 23t-24 62q0 40 32 82q14 18 33 33v85q-15 -27 -39 -48
q-53 -47 -126 -47q-83 0 -139 58t-56 147z" />
    <glyph glyph-name="Wcircumflex" unicode="&#x174;" horiz-adv-x="1000" 
d="M250 0l-225 700h55l195 -620l200 620h50l200 -620l195 620h55l-225 -700h-50l-200 620l-200 -620h-50zM370 795l105 130h50l105 -130h-45l-85 100l-85 -100h-45z" />
    <glyph glyph-name="wcircumflex" unicode="&#x175;" horiz-adv-x="710" 
d="M180 0l-160 480h50l135 -405l130 405h40l130 -410l135 410h50l-160 -480h-45l-130 405l-130 -405h-45zM225 565l105 130h50l105 -130h-45l-85 100l-85 -100h-45z" />
    <glyph glyph-name="Ycircumflex" unicode="&#x176;" horiz-adv-x="600" 
d="M275 0v245l-260 455h60l225 -400l225 400h60l-260 -455v-245h-50zM170 800l105 130h50l105 -130h-45l-85 100l-85 -100h-45z" />
    <glyph glyph-name="ycircumflex" unicode="&#x177;" horiz-adv-x="480" 
d="M45 -200v45q8 -4 13 -5q15 -5 32 -5q33 0 54 18t36 57l35 90l-195 480h50l170 -420l170 420h50l-230 -570q-27 -66 -57.5 -93t-82.5 -27q-17 0 -32 5q-5 1 -13 5zM110 565l105 130h50l105 -130h-45l-85 100l-85 -100h-45z" />
    <glyph glyph-name="Ydieresis" unicode="&#x178;" horiz-adv-x="600" 
d="M275 0v245l-260 455h60l225 -400l225 400h60l-260 -455v-245h-50zM180 860q0 15 10 25t25 10t25 -10t10 -25t-10 -25t-25 -10t-25 10t-10 25zM355 860q0 15 10 25t25 10t25 -10t10 -25t-10 -25t-25 -10t-25 10t-10 25z" />
    <glyph glyph-name="Zacute" unicode="&#x179;" horiz-adv-x="575" 
d="M40 0v50l425 600h-410v50h470v-50l-425 -600h435v-50h-495zM265 795l75 130h55l-90 -130h-40z" />
    <glyph glyph-name="zacute" unicode="&#x17a;" horiz-adv-x="435" 
d="M30 0v45l310 390h-300v45h355v-45l-310 -390h320v-45h-375zM195 565l75 130h55l-90 -130h-40z" />
    <glyph glyph-name="Zdotaccent" unicode="&#x17b;" horiz-adv-x="575" 
d="M40 0v50l425 600h-410v50h470v-50l-425 -600h435v-50h-495zM250 860q0 15 10 25t25 10t25 -10t10 -25t-10 -25t-25 -10t-25 10t-10 25z" />
    <glyph glyph-name="zdotaccent" unicode="&#x17c;" horiz-adv-x="435" 
d="M30 0v45l310 390h-300v45h355v-45l-310 -390h320v-45h-375zM180 630q0 15 10 25t25 10t25 -10t10 -25t-10 -25t-25 -10t-25 10t-10 25z" />
    <glyph glyph-name="Zcaron" unicode="&#x17d;" horiz-adv-x="575" 
d="M40 0v50l425 600h-410v50h470v-50l-425 -600h435v-50h-495zM260 790l-105 130h45l85 -100l85 100h45l-105 -130h-50z" />
    <glyph glyph-name="zcaron" unicode="&#x17e;" horiz-adv-x="435" 
d="M30 0v45l310 390h-300v45h355v-45l-310 -390h320v-45h-375zM190 565l-105 130h45l85 -100l85 100h45l-105 -130h-50z" />
    <glyph glyph-name="uni018F" unicode="&#x18f;" horiz-adv-x="775" 
d="M55 350h610q0 139 -83.5 224.5t-206.5 85.5q-99 0 -176 -53q-30 -20 -59 -52l-35 30q29 36 69 62q96 63 201 63q147 0 243.5 -103t96.5 -257q0 -156 -96.5 -258t-233.5 -102q-138 0 -234 102t-96 258zM660 300h-550q12 -114 88 -187t187 -73t187 73t88 187z" />
    <glyph glyph-name="florin" unicode="&#x192;" horiz-adv-x="360" 
d="M-80 -200v45l5 -2.5t7 -3t7 -2.5q21 -7 46 -7q70 0 85 85l80 430h-85v45h95l35 190q13 69 43 99.5t87 30.5q22 0 46 -8l19 -7v-45l-19 7q-24 8 -46 8q-70 0 -85 -85l-35 -190h115v-45h-125l-80 -430q-13 -69 -43 -99.5t-87 -30.5q-25 0 -46 7q-1 1 -8.5 3.5t-10.5 4.5z
" />
    <glyph glyph-name="Aringacute" unicode="&#x1fa;" horiz-adv-x="670" 
d="M20 0l277 668q-26 11 -41.5 34.5t-15.5 52.5q0 39 27 67t68 28t68 -28t27 -67q0 -29 -15.5 -52.5t-41.5 -34.5l277 -668h-55l-85 205h-350l-85 -205h-55zM180 255h310l-155 375zM280 755q0 -24 14.5 -39.5t40.5 -15.5t40.5 15.5t14.5 39.5t-14.5 39.5t-40.5 15.5
t-40.5 -15.5t-14.5 -39.5zM315 860l75 130h55l-90 -130h-40z" />
    <glyph glyph-name="aringacute" unicode="&#x1fb;" horiz-adv-x="505" 
d="M235 710l75 130h55l-90 -130h-40zM160 600q0 39 27 67t68 28t68 -28t27 -67t-27 -67t-68 -28t-68 28t-27 67zM200 600q0 -24 14.5 -39.5t40.5 -15.5t40.5 15.5t14.5 39.5t-14.5 39.5t-40.5 15.5t-40.5 -15.5t-14.5 -39.5zM380 0v85q-18 -29 -41 -48q-55 -47 -134 -47
q-70 0 -115 40.5t-45 94.5q0 57 38.5 95.5t106.5 49.5l190 30q0 67 -37 106t-98 39q-55 0 -104 -35q-23 -18 -36 -35l-30 30q17 23 44 42q59 43 126 43q79 0 129.5 -52.5t50.5 -137.5v-300h-45zM380 210v45l-180 -30q-110 -17 -110 -100q0 -36 32.5 -63t82.5 -27
q75 0 125 50t50 125z" />
    <glyph glyph-name="AEacute" unicode="&#x1fc;" horiz-adv-x="935" 
d="M-30 0l390 700h525v-50h-370v-260h290v-50h-290v-290h380v-50h-430v215h-320l-120 -215h-55zM170 265h295v385h-79zM500 795l75 130h55l-90 -130h-40z" />
    <glyph glyph-name="aeacute" unicode="&#x1fd;" horiz-adv-x="860" 
d="M200 270h180v30q0 67 -37 106t-98 39q-55 0 -104 -35q-23 -18 -36 -35l-30 30q17 23 44 42q59 43 126 43q87 0 133 -60q22 -26 32 -60q20 34 48 60q62 60 142 60q85 0 147.5 -70.5t62.5 -179.5v-15h-385q8 -82 59.5 -136t120.5 -54q66 0 114 42q22 19 36 43l35 -30
q-19 -27 -46 -50q-62 -50 -139 -50q-89 0 -153 70q-30 33 -47 70q-12 -36 -40 -70q-60 -70 -160 -70q-70 0 -115 41t-45 99q0 61 42.5 100.5t112.5 39.5zM425 270h340q-8 78 -54 126.5t-111 48.5q-64 0 -117.5 -53.5t-57.5 -121.5zM380 210v15h-180q-52 0 -81 -26t-29 -69
q0 -40 31.5 -67.5t83.5 -27.5q75 0 125 50t50 125zM410 565l75 130h55l-90 -130h-40z" />
    <glyph glyph-name="Oslashacute" unicode="&#x1fe;" horiz-adv-x="830" 
d="M55 20l90 95q-24 27 -43 65q-42 82 -42 170q0 150 104 255t251 105q92 0 172 -45q36 -19 63 -45l90 95l35 -35l-90 -95q23 -28 42 -65q43 -84 43 -170q0 -150 -104 -255t-251 -105q-92 0 -172 45q-36 19 -63 45l-90 -95zM180 150l435 435q-25 21 -53 37q-70 38 -147 38
q-128 0 -216.5 -89.5t-88.5 -220.5q0 -81 35 -145q14 -29 35 -55zM650 550l-435 -435q23 -22 53 -38q68 -37 147 -37q128 0 216.5 89.5t88.5 220.5q0 73 -35 145q-18 34 -35 55zM395 795l75 130h55l-90 -130h-40z" />
    <glyph glyph-name="oslashacute" unicode="&#x1ff;" 
d="M40 10l65 70q-16 19 -28 44q-27 50 -27 116q0 104 70.5 177t169.5 73q59 0 113 -30q24 -14 42 -30l65 70l30 -30l-65 -70q16 -21 27 -44q28 -52 28 -116q0 -104 -70.5 -177t-169.5 -73q-59 0 -113 30q-24 14 -42 30l-65 -70zM135 115l280 285q-14 10 -36 22
q-48 23 -89 23q-80 0 -137.5 -60t-57.5 -145q0 -49 20 -91q7 -16 20 -34zM445 365l-280 -285q13 -11 36 -23q46 -22 89 -22q80 0 137.5 60t57.5 145q0 49 -20 91q-7 16 -20 34zM269 565l75 130h55l-90 -130h-40z" />
    <glyph glyph-name="Scommaaccent" unicode="&#x218;" horiz-adv-x="560" 
d="M45 95l35 35q21 -27 47 -45q63 -45 148 -45q88 0 134 39.5t46 105.5q0 52 -40 84t-97.5 49.5t-115 37t-97.5 61.5t-40 108q0 77 61 131t159 54q77 0 149 -43q30 -18 51 -42l-35 -35q-14 16 -41 35q-58 35 -124 35q-80 0 -125 -38t-45 -97q0 -52 40 -84t97.5 -49.5
t115 -37t97.5 -61.5t40 -108q0 -85 -62 -140t-168 -55q-98 0 -173 52q-32 22 -57 53zM210 -215l45 135h50l-60 -135h-35z" />
    <glyph glyph-name="scommaaccent" unicode="&#x219;" horiz-adv-x="430" 
d="M40 70l35 35q18 -21 36 -35q42 -35 99 -35q58 0 91.5 28.5t33.5 71.5q0 33 -28.5 53.5t-68.5 32t-80.5 25t-69 42t-28.5 72.5q0 51 44.5 90.5t110.5 39.5q55 0 111 -35q25 -18 39 -35l-35 -35q-11 15 -29 30q-38 30 -86 30q-51 0 -80.5 -25t-29.5 -60q0 -32 28.5 -51.5
t69 -30.5t80.5 -24.5t68.5 -43t28.5 -75.5q0 -62 -47 -103.5t-123 -41.5q-68 0 -126 40q-28 19 -44 40zM145 -215l45 135h50l-60 -135h-35z" />
    <glyph glyph-name="uni021A" unicode="&#x21a;" horiz-adv-x="550" 
d="M250 0v650h-230v50h510v-50h-230v-650h-50zM205 -215l45 135h50l-60 -135h-35z" />
    <glyph glyph-name="uni021B" unicode="&#x21b;" horiz-adv-x="350" 
d="M125 120v315h-95v45h65q15 0 25 11t10 29v120h40v-160h110v-45h-110v-315q0 -41 20 -63t55 -22q25 0 46 7q1 1 8.5 3.5t10.5 4.5v-45l-5 -2.5t-7 -3t-7 -2.5q-21 -7 -46 -7q-57 0 -88.5 33.5t-31.5 96.5zM150 -215l45 135h50l-60 -135h-35z" />
    <glyph glyph-name="uni0232" unicode="&#x232;" horiz-adv-x="600" 
d="M275 0v245l-260 455h60l225 -400l225 400h60l-260 -455v-245h-50zM165 840v40h270v-40h-270z" />
    <glyph glyph-name="uni0233" unicode="&#x233;" horiz-adv-x="480" 
d="M45 -200v45q8 -4 13 -5q15 -5 32 -5q33 0 54 18t36 57l35 90l-195 480h50l170 -420l170 420h50l-230 -570q-27 -66 -57.5 -93t-82.5 -27q-17 0 -32 5q-5 1 -13 5zM105 620v40h270v-40h-270z" />
    <glyph glyph-name="uni0244" unicode="&#x244;" horiz-adv-x="780" 
d="M125 270v120h-105v45h105v265h50v-265h430v265h50v-265h105v-45h-105v-120q0 -122 -76 -201t-189 -79t-189 79t-76 201zM175 390v-120q0 -104 60 -167t155 -63t155 63t60 167v120h-430z" />
    <glyph glyph-name="uni0259" unicode="&#x259;" horiz-adv-x="545" 
d="M45 240v20h405q-8 79 -62 132t-128 53q-62 0 -117 -43q-23 -19 -38 -42l-35 30q18 26 48 50q64 50 142 50q95 0 165 -73t70 -177q0 -107 -67.5 -178.5t-162.5 -71.5q-92 0 -156 70t-64 180zM450 215h-360q8 -83 55.5 -131.5t119.5 -48.5q71 0 126 54t59 126z" />
    <glyph glyph-name="uni0289" unicode="&#x289;" horiz-adv-x="595" 
d="M20 260v45h80v175h45v-175h305v175h45v-175h80v-45h-80v-260h-45v85q-16 -27 -39 -48q-53 -47 -121 -47q-80 0 -135 58t-55 147v65h-80zM145 260v-65q0 -71 42 -115.5t103 -44.5q65 0 112.5 50.5t47.5 124.5v50h-305z" />
    <glyph glyph-name="uni02BC" unicode="&#x2bc;" horiz-adv-x="155" 
d="M30 565l45 135h50l-60 -135h-35z" />
    <glyph glyph-name="circumflex" unicode="&#x2c6;" horiz-adv-x="320" 
d="M30 565l105 130h50l105 -130h-45l-85 100l-85 -100h-45z" />
    <glyph glyph-name="caron" unicode="&#x2c7;" horiz-adv-x="320" 
d="M135 565l-105 130h45l85 -100l85 100h45l-105 -130h-50z" />
    <glyph glyph-name="breve" unicode="&#x2d8;" horiz-adv-x="320" 
d="M30 695h40q0 -42 24 -66t66 -24t66 24t24 66h40q0 -57 -36.5 -93.5t-93.5 -36.5t-93.5 36.5t-36.5 93.5z" />
    <glyph glyph-name="dotaccent" unicode="&#x2d9;" horiz-adv-x="130" 
d="M30 640q0 15 10 25t25 10t25 -10t10 -25t-10 -25t-25 -10t-25 10t-10 25z" />
    <glyph glyph-name="ring" unicode="&#x2da;" horiz-adv-x="250" 
d="M30 600q0 39 27 67t68 28t68 -28t27 -67t-27 -67t-68 -28t-68 28t-27 67zM180 600q0 24 -14.5 39.5t-40.5 15.5t-40.5 -15.5t-14.5 -39.5t14.5 -39.5t40.5 -15.5t40.5 15.5t14.5 39.5z" />
    <glyph glyph-name="ogonek" unicode="&#x2db;" horiz-adv-x="210" 
d="M180 -150v-35l-19 -8q-18 -7 -41 -7q-42 0 -66 23t-24 62q0 40 32 82q14 18 33 33h35q-20 -19 -33 -37q-32 -46 -32 -78q0 -23 14.5 -36.5t40.5 -13.5q23 0 41 7z" />
    <glyph glyph-name="tilde" unicode="&#x2dc;" horiz-adv-x="345" 
d="M70 575h-40q0 57 22 86t58 29q28 0 49.5 -19t39.5 -37.5t36 -18.5q40 0 40 75h40q0 -57 -22 -86t-58 -29q-22 0 -40.5 11.5t-29.5 26t-25.5 26t-29.5 11.5q-40 0 -40 -75z" />
    <glyph glyph-name="hungarumlaut" unicode="&#x2dd;" horiz-adv-x="335" 
d="M30 565l75 130h55l-90 -130h-40zM175 565l75 130h55l-90 -130h-40z" />
    <glyph glyph-name="acutecomb" unicode="&#x301;" horiz-adv-x="0" 
d="M-390 730l75 130h55l-90 -130h-40z" />
    <glyph glyph-name="uni0302" unicode="&#x302;" horiz-adv-x="0" 
d="M-500 730l105 130h50l105 -130h-45l-85 100l-85 -100h-45z" />
    <glyph glyph-name="uni0304" unicode="&#x304;" horiz-adv-x="0" 
d="M-505 775v40h270v-40h-270z" />
    <glyph glyph-name="uni0306" unicode="&#x306;" horiz-adv-x="0" 
d="M-500 850h40q0 -42 24 -66t66 -24t66 24t24 66h40q0 -57 -36.5 -93.5t-93.5 -36.5t-93.5 36.5t-36.5 93.5z" />
    <glyph glyph-name="uni0307" unicode="&#x307;" horiz-adv-x="0" 
d="M-405 795q0 15 10 25t25 10t25 -10t10 -25t-10 -25t-25 -10t-25 10t-10 25z" />
    <glyph glyph-name="uni0308" unicode="&#x308;" horiz-adv-x="0" 
d="M-495 795q0 15 10 25t25 10t25 -10t10 -25t-10 -25t-25 -10t-25 10t-10 25zM-320 795q0 15 10 25t25 10t25 -10t10 -25t-10 -25t-25 -10t-25 10t-10 25z" />
    <glyph glyph-name="uni030A" unicode="&#x30a;" horiz-adv-x="0" 
d="M-460 825q0 39 27 67t68 28t68 -28t27 -67t-27 -67t-68 -28t-68 28t-27 67zM-310 825q0 24 -14.5 39.5t-40.5 15.5t-40.5 -15.5t-14.5 -39.5t14.5 -39.5t40.5 -15.5t40.5 15.5t14.5 39.5z" />
    <glyph glyph-name="uni030C" unicode="&#x30c;" horiz-adv-x="0" 
d="M-395 730l-105 130h45l85 -100l85 100h45l-105 -130h-50z" />
    <glyph glyph-name="uni0326" unicode="&#x326;" horiz-adv-x="155" 
d="M30 -215l45 135h50l-60 -135h-35z" />
    <glyph glyph-name="Alphatonos" unicode="&#x386;" horiz-adv-x="670" 
d="M85 570l75 130h55l-90 -130h-40zM20 0l290 700h50l290 -700h-55l-85 205h-350l-85 -205h-55zM180 255h310l-155 375z" />
    <glyph glyph-name="Epsilontonos" unicode="&#x388;" horiz-adv-x="630" 
d="M-50 570l75 130h55l-90 -130h-40zM110 0v700h470v-50h-420v-260h340v-50h-340v-290h430v-50h-480z" />
    <glyph glyph-name="Etatonos" unicode="&#x389;" horiz-adv-x="745" 
d="M-50 570l75 130h55l-90 -130h-40zM110 0v700h50v-320h425v320h50v-700h-50v330h-425v-330h-50z" />
    <glyph glyph-name="Iotatonos" unicode="&#x38a;" horiz-adv-x="270" 
d="M-50 570l75 130h55l-90 -130h-40zM110 0v700h50v-700h-50z" />
    <glyph glyph-name="Omicrontonos" unicode="&#x38c;" horiz-adv-x="830" 
d="M-10 570l75 130h55l-90 -130h-40zM415 -10q-147 0 -251 105t-104 255t104 255t251 105t251 -105t104 -255t-104 -255t-251 -105zM415 40q128 0 216.5 89.5t88.5 220.5t-88.5 220.5t-216.5 89.5t-216.5 -89.5t-88.5 -220.5t88.5 -220.5t216.5 -89.5z" />
    <glyph glyph-name="Upsilontonos" unicode="&#x38e;" horiz-adv-x="610" 
d="M-105 570l75 130h55l-90 -130h-40zM285 0v245l-260 455h60l225 -400l225 400h60l-260 -455v-245h-50z" />
    <glyph glyph-name="Omegatonos" unicode="&#x38f;" horiz-adv-x="870" 
d="M115 0v50h155q-72 36 -128.5 117t-56.5 193q0 146 102 248t248 102t248 -102t102 -248q0 -112 -56.5 -193t-128.5 -117h155v-50h-235v65q93 33 154 109t61 186q0 128 -86.5 214t-213.5 86t-213.5 -86t-86.5 -214q0 -110 61 -186t154 -109v-65h-235zM15 570l75 130h55
l-90 -130h-40z" />
    <glyph glyph-name="iotadieresistonos" unicode="&#x390;" horiz-adv-x="280" 
d="M45 565l75 130h55l-90 -130h-40zM-15 630q0 15 10 25t25 10t25 -10t10 -25t-10 -25t-25 -10t-25 10t-10 25zM160 630q0 15 10 25t25 10t25 -10t10 -25t-10 -25t-25 -10t-25 10t-10 25zM85 125v355h45v-355q0 -90 85 -90q20 0 39 7l16 8v-45q-4 -2 -17 -8q-18 -7 -43 -7
q-57 0 -91 36t-34 99z" />
    <glyph glyph-name="Alpha" unicode="&#x391;" horiz-adv-x="670" 
d="M20 0l290 700h50l290 -700h-55l-85 205h-350l-85 -205h-55zM180 255h310l-155 375z" />
    <glyph glyph-name="Beta" unicode="&#x392;" horiz-adv-x="660" 
d="M110 0v700h260q85 0 137.5 -49.5t52.5 -125.5q0 -73 -45 -118q-20 -20 -45 -32q34 -13 62 -38q63 -57 63 -142q0 -84 -59.5 -139.5t-155.5 -55.5h-270zM160 395h210q67 0 103.5 34.5t36.5 95.5q0 58 -36.5 91.5t-103.5 33.5h-210v-255zM160 50h220q77 0 121 40t44 105
q0 69 -43.5 109.5t-121.5 40.5h-220v-295z" />
    <glyph glyph-name="Gamma" unicode="&#x393;" horiz-adv-x="555" 
d="M110 0v700h425v-50h-375v-650h-50z" />
    <glyph glyph-name="uni0394" unicode="&#x394;" horiz-adv-x="650" 
d="M20 0l280 700h50l280 -700h-610zM94 50h462l-231 578z" />
    <glyph glyph-name="Epsilon" unicode="&#x395;" horiz-adv-x="630" 
d="M110 0v700h470v-50h-420v-260h340v-50h-340v-290h430v-50h-480z" />
    <glyph glyph-name="Zeta" unicode="&#x396;" horiz-adv-x="575" 
d="M40 0v50l425 600h-410v50h470v-50l-425 -600h435v-50h-495z" />
    <glyph glyph-name="Eta" unicode="&#x397;" horiz-adv-x="745" 
d="M110 0v700h50v-320h425v320h50v-700h-50v330h-425v-330h-50z" />
    <glyph glyph-name="Theta" unicode="&#x398;" horiz-adv-x="830" 
d="M415 -10q-147 0 -251 105t-104 255t104 255t251 105t251 -105t104 -255t-104 -255t-251 -105zM415 40q128 0 216.5 89.5t88.5 220.5t-88.5 220.5t-216.5 89.5t-216.5 -89.5t-88.5 -220.5t88.5 -220.5t216.5 -89.5zM210 325v50h410v-50h-410z" />
    <glyph glyph-name="Iota" unicode="&#x399;" horiz-adv-x="270" 
d="M110 0v700h50v-700h-50z" />
    <glyph glyph-name="Kappa" unicode="&#x39a;" horiz-adv-x="640" 
d="M110 0v700h50v-430l390 430h65l-265 -290l290 -410h-60l-263 372l-157 -172v-200h-50z" />
    <glyph glyph-name="Lambda" unicode="&#x39b;" horiz-adv-x="660" 
d="M20 0l285 700h50l285 -700h-53l-257 630l-257 -630h-53z" />
    <glyph glyph-name="Mu" unicode="&#x39c;" horiz-adv-x="920" 
d="M110 0v700h40l310 -415l310 415h40v-700h-50v605l-300 -400l-300 400v-605h-50z" />
    <glyph glyph-name="Nu" unicode="&#x39d;" horiz-adv-x="775" 
d="M110 0v700h40l465 -605v605h50v-700h-40l-465 605v-605h-50z" />
    <glyph glyph-name="Xi" unicode="&#x39e;" horiz-adv-x="595" 
d="M50 0v50h495v-50h-495zM60 650v50h475v-50h-475zM145 340v50h305v-50h-305z" />
    <glyph glyph-name="Omicron" unicode="&#x39f;" horiz-adv-x="830" 
d="M415 -10q-147 0 -251 105t-104 255t104 255t251 105t251 -105t104 -255t-104 -255t-251 -105zM415 40q128 0 216.5 89.5t88.5 220.5t-88.5 220.5t-216.5 89.5t-216.5 -89.5t-88.5 -220.5t88.5 -220.5t216.5 -89.5z" />
    <glyph glyph-name="Pi" unicode="&#x3a0;" horiz-adv-x="745" 
d="M110 0v700h525v-700h-50v650h-425v-650h-50z" />
    <glyph glyph-name="Rho" unicode="&#x3a1;" horiz-adv-x="640" 
d="M110 0v700h250q97 0 161 -62t64 -153t-64 -153t-161 -62h-200v-270h-50zM160 320h200q78 0 126.5 46.5t48.5 118.5t-48.5 118.5t-126.5 46.5h-200v-330z" />
    <glyph glyph-name="Sigma" unicode="&#x3a3;" horiz-adv-x="555" 
d="M50 0v40l250 325l-250 295v40h465v-50h-391l240 -285l-244 -315h395v-50h-465z" />
    <glyph glyph-name="Tau" unicode="&#x3a4;" horiz-adv-x="550" 
d="M250 0v650h-230v50h510v-50h-230v-650h-50z" />
    <glyph glyph-name="Upsilon" unicode="&#x3a5;" horiz-adv-x="600" 
d="M275 0v245l-260 455h60l225 -400l225 400h60l-260 -455v-245h-50z" />
    <glyph glyph-name="Phi" unicode="&#x3a6;" horiz-adv-x="830" 
d="M390 80v540q-127 -4 -203.5 -78t-76.5 -192t76.5 -192t203.5 -78zM390 -50v80q-146 4 -238 94t-92 226t92 226t238 94v80h50v-80q146 -4 238 -94t92 -226t-92 -226t-238 -94v-80h-50zM440 620v-540q127 4 203.5 78t76.5 192t-76.5 192t-203.5 78z" />
    <glyph glyph-name="Chi" unicode="&#x3a7;" horiz-adv-x="610" 
d="M15 0l260 365l-240 335h60l210 -295l210 295h60l-240 -335l260 -365h-60l-230 325l-230 -325h-60z" />
    <glyph glyph-name="Psi" unicode="&#x3a8;" horiz-adv-x="800" 
d="M375 0v210q-136 4 -215.5 85.5t-79.5 219.5v185h50v-185q0 -120 63.5 -185.5t181.5 -69.5v440h50v-440q118 4 181.5 69.5t63.5 185.5v185h50v-185q0 -138 -79.5 -219.5t-215.5 -85.5v-210h-50z" />
    <glyph glyph-name="uni03A9" unicode="&#x3a9;" horiz-adv-x="830" 
d="M95 0v50h155q-72 36 -128.5 117t-56.5 193q0 146 102 248t248 102t248 -102t102 -248q0 -112 -56.5 -193t-128.5 -117h155v-50h-235v65q93 33 154 109t61 186q0 128 -86.5 214t-213.5 86t-213.5 -86t-86.5 -214q0 -110 61 -186t154 -109v-65h-235z" />
    <glyph glyph-name="Iotadieresis" unicode="&#x3aa;" horiz-adv-x="270" 
d="M110 0v700h50v-700h-50zM15 860q0 15 10 25t25 10t25 -10t10 -25t-10 -25t-25 -10t-25 10t-10 25zM190 860q0 15 10 25t25 10t25 -10t10 -25t-10 -25t-25 -10t-25 10t-10 25z" />
    <glyph glyph-name="Upsilondieresis" unicode="&#x3ab;" horiz-adv-x="600" 
d="M275 0v245l-260 455h60l225 -400l225 400h60l-260 -455v-245h-50zM180 860q0 15 10 25t25 10t25 -10t10 -25t-10 -25t-25 -10t-25 10t-10 25zM355 860q0 15 10 25t25 10t25 -10t10 -25t-10 -25t-25 -10t-25 10t-10 25z" />
    <glyph glyph-name="alphatonos" unicode="&#x3ac;" horiz-adv-x="600" 
d="M275 35q76 0 130.5 58.5t54.5 146.5t-54.5 146.5t-130.5 58.5q-73 0 -126.5 -58.5t-53.5 -146.5t53.5 -146.5t126.5 -58.5zM460 90v5q-18 -30 -44 -53q-60 -52 -141 -52q-92 0 -158.5 71.5t-66.5 178.5t66.5 178.5t158.5 71.5q80 0 141 -53q25 -22 44 -52v95h45v-390
q0 -23 13.5 -36.5t36.5 -13.5q15 0 22 3l8 3v-46l-8 -3q-10 -2 -22 -2q-42 0 -68.5 26.5t-26.5 68.5zM270 565l75 130h55l-90 -130h-40z" />
    <glyph glyph-name="epsilontonos" unicode="&#x3ad;" horiz-adv-x="450" 
d="M390 95l30 -30q-21 -23 -46 -38q-60 -37 -139 -37q-83 0 -134 42t-51 98q0 60 52 97q23 16 53 23q-25 7 -43 21q-42 32 -42 89q0 51 46.5 90.5t118.5 39.5q68 0 126 -30q27 -14 44 -30l-35 -35q-19 17 -34 25q-48 25 -101 25q-54 0 -87 -26t-33 -59q0 -39 33.5 -64.5
t86.5 -25.5h70v-45h-70q-62 0 -101 -28t-39 -67q0 -37 38 -66t102 -29q61 0 115 30q25 15 40 30zM215 565l75 130h55l-90 -130h-40z" />
    <glyph glyph-name="etatonos" unicode="&#x3ae;" horiz-adv-x="570" 
d="M265 565l75 130h55l-90 -130h-40zM85 0v480h45v-85q16 27 39 47q54 48 126 48q83 0 139 -58t56 -147v-285h-45v285q0 71 -42.5 115.5t-107.5 44.5q-69 0 -117 -50.5t-48 -124.5v-270h-45z" />
    <glyph glyph-name="iotatonos" unicode="&#x3af;" horiz-adv-x="280" 
d="M85 125v355h45v-355q0 -90 85 -90q20 0 39 7l16 8v-45q-4 -2 -17 -8q-18 -7 -43 -7q-57 0 -91 36t-34 99zM90 565l75 130h55l-90 -130h-40z" />
    <glyph glyph-name="upsilondieresistonos" unicode="&#x3b0;" horiz-adv-x="570" 
d="M225 565l75 130h55l-90 -130h-40zM165 630q0 15 10 25t25 10t25 -10t10 -25t-10 -25t-25 -10t-25 10t-10 25zM340 630q0 15 10 25t25 10t25 -10t10 -25t-10 -25t-25 -10t-25 10t-10 25zM85 195v285h45v-285q0 -75 41.5 -117.5t113.5 -42.5t113.5 42.5t41.5 117.5v285h45
v-285q0 -93 -55 -149t-145 -56t-145 56t-55 149z" />
    <glyph glyph-name="alpha" unicode="&#x3b1;" horiz-adv-x="600" 
d="M275 35q76 0 130.5 58.5t54.5 146.5t-54.5 146.5t-130.5 58.5q-73 0 -126.5 -58.5t-53.5 -146.5t53.5 -146.5t126.5 -58.5zM460 90v5q-18 -30 -44 -53q-60 -52 -141 -52q-92 0 -158.5 71.5t-66.5 178.5t66.5 178.5t158.5 71.5q80 0 141 -53q25 -22 44 -52v95h45v-390
q0 -23 13.5 -36.5t36.5 -13.5q15 0 22 3l8 3v-46l-8 -3q-10 -2 -22 -2q-42 0 -68.5 26.5t-26.5 68.5z" />
    <glyph glyph-name="beta" unicode="&#x3b2;" horiz-adv-x="555" 
d="M90 -210v735q0 82 51.5 133.5t133.5 51.5q78 0 129 -50t51 -125q0 -66 -50 -114q-24 -22 -50 -36q43 -11 75 -34q75 -55 75 -151q0 -83 -60.5 -141.5t-149.5 -58.5h-160v-210h-45zM135 50h160q74 0 119.5 42.5t45.5 107.5q0 64 -47.5 109.5t-117.5 45.5h-60v45h30
q59 0 102 41t43 94q0 57 -37.5 93.5t-97.5 36.5q-64 0 -102 -38t-38 -102v-475z" />
    <glyph glyph-name="gamma" unicode="&#x3b3;" horiz-adv-x="480" 
d="M218 -210v203l-198 487h50l170 -420l170 420h50l-198 -487v-203h-44z" />
    <glyph glyph-name="delta" unicode="&#x3b4;" horiz-adv-x="575" 
d="M95 655v45h365v-45h-245q128 -51 214 -157.5t86 -252.5q0 -111 -68 -183t-167 -72t-164.5 68.5t-65.5 176.5q0 101 66.5 173t163.5 72q81 0 150 -60q-47 90 -125 143.5t-210 91.5zM280 35q79 0 134.5 57.5t55.5 142.5q0 90 -55 145t-135 55q-78 0 -131.5 -58.5
t-53.5 -141.5q0 -89 52.5 -144.5t132.5 -55.5z" />
    <glyph glyph-name="epsilon" unicode="&#x3b5;" horiz-adv-x="450" 
d="M390 95l30 -30q-21 -23 -46 -38q-60 -37 -139 -37q-83 0 -134 42t-51 98q0 60 52 97q23 16 53 23q-25 7 -43 21q-42 32 -42 89q0 51 46.5 90.5t118.5 39.5q68 0 126 -30q27 -14 44 -30l-35 -35q-19 17 -34 25q-48 25 -101 25q-54 0 -87 -26t-33 -59q0 -39 33.5 -64.5
t86.5 -25.5h70v-45h-70q-62 0 -101 -28t-39 -67q0 -37 38 -66t102 -29q61 0 115 30q25 15 40 30z" />
    <glyph glyph-name="zeta" unicode="&#x3b6;" horiz-adv-x="470" 
d="M410 -150h-50q0 64 15 115q7 24 15 40q-1 0 -29 -8q-33 -7 -81 -7q-103 0 -161.5 53.5t-58.5 141.5q0 147 152 321q68 76 153 144h-280v50h355v-50q-90 -68 -165 -148q-165 -175 -165 -317q0 -67 45 -106t135 -39q60 0 99 12q15 3 36 13l35 -40q-16 -25 -25 -48
q-25 -60 -25 -127z" />
    <glyph glyph-name="eta" unicode="&#x3b7;" horiz-adv-x="570" 
d="M85 0v480h45v-85q16 27 39 47q54 48 126 48q83 0 139 -58t56 -147v-285h-45v285q0 71 -42.5 115.5t-107.5 44.5q-69 0 -117 -50.5t-48 -124.5v-270h-45z" />
    <glyph glyph-name="theta" unicode="&#x3b8;" horiz-adv-x="590" 
d="M295 -10q-98 0 -164 91t-66 269t66 269t164 91t164 -91t66 -269t-66 -269t-164 -91zM111 370h367q-2 149 -53.5 222t-129.5 73q-77 0 -129.5 -73t-54.5 -222zM478 325h-366q6 -149 56 -219.5t127 -70.5t127 70.5t56 219.5z" />
    <glyph glyph-name="iota" unicode="&#x3b9;" horiz-adv-x="280" 
d="M85 125v355h45v-355q0 -90 85 -90q20 0 39 7l16 8v-45q-4 -2 -17 -8q-18 -7 -43 -7q-57 0 -91 36t-34 99z" />
    <glyph glyph-name="kappa" unicode="&#x3ba;" horiz-adv-x="485" 
d="M85 0v480h45v-285l265 285h60l-180 -195l205 -285h-55l-181 252l-114 -122v-130h-45z" />
    <glyph glyph-name="lambda" unicode="&#x3bb;" horiz-adv-x="470" 
d="M20 0l205 480l-40 105q-26 70 -85 70q-19 0 -32 -5q-12 -5 -13 -5v45l14 5q15 5 36 5q46 0 75.5 -26t54.5 -89l225 -585h-50l-161 420l-179 -420h-50z" />
    <glyph glyph-name="uni03BC" unicode="&#x3bc;" horiz-adv-x="575" 
d="M85 -210v690h45v-285q0 -71 42.5 -115.5t107.5 -44.5q69 0 117 50.5t48 124.5v270h45v-480h-45v85q-15 -27 -39 -48q-53 -47 -126 -47q-67 0 -113 35q-21 14 -37 35v-270h-45z" />
    <glyph glyph-name="nu" unicode="&#x3bd;" horiz-adv-x="480" 
d="M215 0l-195 480h50l170 -420l170 420h50l-195 -480h-50z" />
    <glyph glyph-name="xi" unicode="&#x3be;" horiz-adv-x="495" 
d="M425 -150h-50q0 72 17 119q8 23 18 36q-4 -2 -27 -8q-33 -7 -83 -7q-109 0 -174.5 58t-65.5 142q0 93 72 149q31 24 73 36q-34 10 -63 31q-62 46 -62 124q0 73 60.5 126.5t154.5 53.5q59 0 115 -23q27 -13 40 -22l-25 -40q-15 10 -33 17q-46 18 -97 18q-76 0 -120.5 -38
t-44.5 -92q0 -55 45.5 -92.5t124.5 -37.5h70v-50h-70q-88 0 -139 -45t-51 -115q0 -67 51.5 -108.5t148.5 -41.5q60 0 99 12q15 3 36 13l30 -40q-15 -22 -25 -46q-25 -60 -25 -129z" />
    <glyph glyph-name="omicron" unicode="&#x3bf;" 
d="M290 -10q-99 0 -169.5 73t-70.5 177t70.5 177t169.5 73t169.5 -73t70.5 -177t-70.5 -177t-169.5 -73zM290 35q80 0 137.5 60t57.5 145t-57.5 145t-137.5 60t-137.5 -60t-57.5 -145t57.5 -145t137.5 -60z" />
    <glyph glyph-name="pi" unicode="&#x3c0;" horiz-adv-x="570" 
d="M85 0v480h400v-480h-45v435h-310v-435h-45z" />
    <glyph glyph-name="rho" unicode="&#x3c1;" horiz-adv-x="590" 
d="M85 -210v450q0 103 69 176.5t161 73.5q88 0 156.5 -73.5t68.5 -176.5t-68.5 -176.5t-156.5 -73.5q-79 0 -139 52q-25 21 -46 53v-305h-45zM315 35q69 0 124.5 60.5t55.5 144.5t-55.5 144.5t-124.5 60.5q-73 0 -129 -60t-56 -145t56 -145t129 -60z" />
    <glyph glyph-name="sigma1" unicode="&#x3c2;" horiz-adv-x="520" 
d="M410 -150h-50q0 64 17 115q8 25 18 40l-29 -8q-33 -7 -66 -7q-109 0 -179.5 70.5t-70.5 179.5q0 108 69 179t171 71q73 0 131 -38q24 -16 44 -37l-30 -30q-17 17 -37 30q-48 30 -108 30q-83 0 -139 -58t-56 -147q0 -90 57.5 -147.5t147.5 -57.5q48 0 91 15q18 6 34 15
l35 -40q-16 -25 -25 -48q-25 -60 -25 -127z" />
    <glyph glyph-name="sigma" unicode="&#x3c3;" horiz-adv-x="595" 
d="M290 490h285v-45h-150q47 -35 76 -89t29 -116q0 -104 -70.5 -177t-169.5 -73t-169.5 73t-70.5 177t70.5 177t169.5 73zM290 35q80 0 137.5 60t57.5 145t-57.5 145t-137.5 60t-137.5 -60t-57.5 -145t57.5 -145t137.5 -60z" />
    <glyph glyph-name="tau" unicode="&#x3c4;" horiz-adv-x="445" 
d="M200 120v315h-180v45h405v-45h-180v-315q0 -85 80 -85q25 0 43 7q13 5 17 8v-45l-5 -2.5t-7 -3t-7 -2.5q-21 -7 -46 -7q-54 0 -87 35.5t-33 94.5z" />
    <glyph glyph-name="upsilon" unicode="&#x3c5;" horiz-adv-x="570" 
d="M85 195v285h45v-285q0 -75 41.5 -117.5t113.5 -42.5t113.5 42.5t41.5 117.5v285h45v-285q0 -93 -55 -149t-145 -56t-145 56t-55 149z" />
    <glyph glyph-name="phi" unicode="&#x3c6;" horiz-adv-x="695" 
d="M370 435v-400q104 4 167 58.5t63 141.5q0 86 -63 141t-167 59zM325 -210v200q-121 4 -198 74.5t-77 170.5q0 92 50.5 154t109.5 81l20 -40q-20 -7 -40 -20t-43 -35.5t-37.5 -59t-14.5 -80.5q0 -87 62.5 -141.5t167.5 -58.5v445h45q118 0 196.5 -72.5t78.5 -172.5
t-77 -170.5t-198 -74.5v-200h-45z" />
    <glyph glyph-name="chi" unicode="&#x3c7;" horiz-adv-x="440" 
d="M10 0l180 250l-165 230h55l140 -195l140 195h55l-165 -230l180 -250h-55l-155 215l-155 -215h-55z" />
    <glyph glyph-name="psi" unicode="&#x3c8;" horiz-adv-x="715" 
d="M335 -210v200q-113 4 -181.5 74t-68.5 186v230h45v-230q0 -97 55 -154t150 -61v445h45v-445q95 4 150 61t55 154v230h45v-230q0 -116 -68.5 -186t-181.5 -74v-200h-45z" />
    <glyph glyph-name="omega" unicode="&#x3c9;" horiz-adv-x="795" 
d="M375 240v80h45v-80q0 -103 37.5 -154t97.5 -51q56 0 98 53t42 142q0 81 -37 140t-73 85l25 35q46 -24 88 -92t42 -168q0 -107 -55 -173.5t-130 -66.5q-77 0 -125 62q-22 28 -32 63q-10 -35 -32 -63q-48 -62 -126 -62q-75 0 -130 66.5t-55 173.5q0 100 42 168t88 92
l25 -35q-36 -26 -73 -85t-37 -140q0 -89 42 -142t98 -53q60 0 97.5 51t37.5 154z" />
    <glyph glyph-name="iotadieresis" unicode="&#x3ca;" horiz-adv-x="280" 
d="M85 125v355h45v-355q0 -90 85 -90q20 0 39 7l16 8v-45q-4 -2 -17 -8q-18 -7 -43 -7q-57 0 -91 36t-34 99zM-15 630q0 15 10 25t25 10t25 -10t10 -25t-10 -25t-25 -10t-25 10t-10 25zM160 630q0 15 10 25t25 10t25 -10t10 -25t-10 -25t-25 -10t-25 10t-10 25z" />
    <glyph glyph-name="upsilondieresis" unicode="&#x3cb;" horiz-adv-x="570" 
d="M85 195v285h45v-285q0 -75 41.5 -117.5t113.5 -42.5t113.5 42.5t41.5 117.5v285h45v-285q0 -93 -55 -149t-145 -56t-145 56t-55 149zM165 630q0 15 10 25t25 10t25 -10t10 -25t-10 -25t-25 -10t-25 10t-10 25zM340 630q0 15 10 25t25 10t25 -10t10 -25t-10 -25t-25 -10
t-25 10t-10 25z" />
    <glyph glyph-name="omicrontonos" unicode="&#x3cc;" 
d="M270 565l75 130h55l-90 -130h-40zM290 -10q-99 0 -169.5 73t-70.5 177t70.5 177t169.5 73t169.5 -73t70.5 -177t-70.5 -177t-169.5 -73zM290 35q80 0 137.5 60t57.5 145t-57.5 145t-137.5 60t-137.5 -60t-57.5 -145t57.5 -145t137.5 -60z" />
    <glyph glyph-name="upsilontonos" unicode="&#x3cd;" horiz-adv-x="570" 
d="M85 195v285h45v-285q0 -75 41.5 -117.5t113.5 -42.5t113.5 42.5t41.5 117.5v285h45v-285q0 -93 -55 -149t-145 -56t-145 56t-55 149zM265 565l75 130h55l-90 -130h-40z" />
    <glyph glyph-name="omegatonos" unicode="&#x3ce;" horiz-adv-x="795" 
d="M375 240v80h45v-80q0 -103 37.5 -154t97.5 -51q56 0 98 53t42 142q0 81 -37 140t-73 85l25 35q46 -24 88 -92t42 -168q0 -107 -55 -173.5t-130 -66.5q-77 0 -125 62q-22 28 -32 63q-10 -35 -32 -63q-48 -62 -126 -62q-75 0 -130 66.5t-55 173.5q0 100 42 168t88 92
l25 -35q-36 -26 -73 -85t-37 -140q0 -89 42 -142t98 -53q60 0 97.5 51t37.5 154zM375 565l75 130h55l-90 -130h-40z" />
    <glyph glyph-name="uni0400" unicode="&#x400;" horiz-adv-x="630" 
d="M335 795l-90 130h55l75 -130h-40zM110 0v700h470v-50h-420v-260h340v-50h-340v-290h430v-50h-480z" />
    <glyph glyph-name="uni0401" unicode="&#x401;" horiz-adv-x="630" 
d="M220 860q0 15 10 25t25 10t25 -10t10 -25t-10 -25t-25 -10t-25 10t-10 25zM395 860q0 15 10 25t25 10t25 -10t10 -25t-10 -25t-25 -10t-25 10t-10 25zM110 0v700h470v-50h-420v-260h340v-50h-340v-290h430v-50h-480z" />
    <glyph glyph-name="uni0402" unicode="&#x402;" horiz-adv-x="710" 
d="M185 0v650h-185v50h420v-50h-185v-275q21 17 55 35q72 35 145 35q88 0 146.5 -62.5t58.5 -162.5q0 -108 -59 -169t-161 -61v50q80 0 125 47t45 133q0 77 -45 126t-110 49q-75 0 -145 -40q-32 -18 -55 -40v-315h-50z" />
    <glyph glyph-name="uni0403" unicode="&#x403;" horiz-adv-x="555" 
d="M110 0v700h425v-50h-375v-650h-50zM305 795l75 130h55l-90 -130h-40z" />
    <glyph glyph-name="uni0404" unicode="&#x404;" horiz-adv-x="750" 
d="M110 380h385v-50h-385q8 -121 95.5 -205.5t209.5 -84.5q106 0 191 65q38 29 64 65l35 -30q-33 -44 -74 -75q-94 -75 -216 -75q-147 0 -251 105t-104 255t104 255t251 105q117 0 214 -75q42 -34 71 -75l-35 -30q-26 36 -62 65q-83 65 -188 65q-122 0 -207.5 -81
t-97.5 -199z" />
    <glyph glyph-name="uni0405" unicode="&#x405;" horiz-adv-x="560" 
d="M45 95l35 35q21 -27 47 -45q63 -45 148 -45q88 0 134 39.5t46 105.5q0 52 -40 84t-97.5 49.5t-115 37t-97.5 61.5t-40 108q0 77 61 131t159 54q77 0 149 -43q30 -18 51 -42l-35 -35q-14 16 -41 35q-58 35 -124 35q-80 0 -125 -38t-45 -97q0 -52 40 -84t97.5 -49.5
t115 -37t97.5 -61.5t40 -108q0 -85 -62 -140t-168 -55q-98 0 -173 52q-32 22 -57 53z" />
    <glyph glyph-name="uni0406" unicode="&#x406;" horiz-adv-x="270" 
d="M110 0v700h50v-700h-50z" />
    <glyph glyph-name="uni0407" unicode="&#x407;" horiz-adv-x="270" 
d="M110 0v700h50v-700h-50zM15 860q0 15 10 25t25 10t25 -10t10 -25t-10 -25t-25 -10t-25 10t-10 25zM190 860q0 15 10 25t25 10t25 -10t10 -25t-10 -25t-25 -10t-25 10t-10 25z" />
    <glyph glyph-name="uni0408" unicode="&#x408;" horiz-adv-x="485" 
d="M10 65l35 35q13 -16 33 -30q46 -30 97 -30q72 0 116 45t44 120v495h50v-495q0 -93 -60 -154t-150 -61q-67 0 -122 37q-23 15 -43 38z" />
    <glyph glyph-name="uni0409" unicode="&#x409;" horiz-adv-x="1070" 
d="M-5 2v48q9 -4 18 -5q20 -5 37 -5q29 0 50.5 17t42 62.5t31.5 139t11 231.5v210h415v-270h185q97 0 161 -62t64 -153t-64 -153t-161 -62h-235v650h-315v-160q0 -152 -13.5 -254.5t-39.5 -154t-56 -71.5t-71 -20q-19 0 -41 6zM600 50h185q78 0 126.5 46.5t48.5 118.5
t-48.5 118.5t-126.5 46.5h-185v-330z" />
    <glyph glyph-name="uni040A" unicode="&#x40a;" horiz-adv-x="1065" 
d="M110 0v700h50v-270h385v270h50v-270h185q97 0 161 -62t64 -153t-64 -153t-161 -62h-235v380h-385v-380h-50zM595 50h185q78 0 126.5 46.5t48.5 118.5t-48.5 118.5t-126.5 46.5h-185v-330z" />
    <glyph glyph-name="uni040B" unicode="&#x40b;" horiz-adv-x="730" 
d="M185 0v650h-185v50h420v-50h-185v-275q21 17 55 35q72 35 145 35q87 0 146 -61t59 -154v-230h-50v230q0 70 -45.5 117.5t-109.5 47.5q-75 0 -145 -40q-32 -18 -55 -40v-315h-50z" />
    <glyph glyph-name="uni040C" unicode="&#x40c;" horiz-adv-x="640" 
d="M325 795l75 130h55l-90 -130h-40zM110 0v700h50v-430l390 430h65l-265 -290l290 -410h-60l-263 372l-157 -172v-200h-50z" />
    <glyph glyph-name="uni040D" unicode="&#x40d;" horiz-adv-x="775" 
d="M110 0v700h50v-610l465 610h40v-700h-50v610l-465 -610h-40zM375 795l-90 130h55l75 -130h-40z" />
    <glyph glyph-name="uni040E" unicode="&#x40e;" horiz-adv-x="600" 
d="M70 0v50q10 -4 16 -5q18 -5 39 -5q47 0 77.5 24.5t57.5 80.5l30 60l-265 495h55l235 -440l210 440h55l-265 -555q-40 -82 -82.5 -118.5t-107.5 -36.5q-21 0 -39 5q-6 1 -16 5zM175 925h45q0 -38 23.5 -61.5t61.5 -23.5t61.5 23.5t23.5 61.5h45q0 -57 -36.5 -93.5
t-93.5 -36.5t-93.5 36.5t-36.5 93.5z" />
    <glyph glyph-name="uni040F" unicode="&#x40f;" horiz-adv-x="740" 
d="M110 0v700h50v-650h420v650h50v-700h-235v-150h-50v150h-235z" />
    <glyph glyph-name="uni0410" unicode="&#x410;" horiz-adv-x="670" 
d="M20 0l290 700h50l290 -700h-55l-85 205h-350l-85 -205h-55zM180 255h310l-155 375z" />
    <glyph glyph-name="uni0411" unicode="&#x411;" horiz-adv-x="645" 
d="M110 0v700h420v-50h-370v-240h205q97 0 158.5 -58.5t61.5 -146.5t-61.5 -146.5t-158.5 -58.5h-255zM160 50h205q77 0 123.5 43t46.5 112t-46.5 112t-123.5 43h-205v-310z" />
    <glyph glyph-name="uni0412" unicode="&#x412;" horiz-adv-x="660" 
d="M110 0v700h260q85 0 137.5 -49.5t52.5 -125.5q0 -73 -45 -118q-20 -20 -45 -32q34 -13 62 -38q63 -57 63 -142q0 -84 -59.5 -139.5t-155.5 -55.5h-270zM160 395h210q67 0 103.5 34.5t36.5 95.5q0 58 -36.5 91.5t-103.5 33.5h-210v-255zM160 50h220q77 0 121 40t44 105
q0 69 -43.5 109.5t-121.5 40.5h-220v-295z" />
    <glyph glyph-name="uni0413" unicode="&#x413;" horiz-adv-x="555" 
d="M110 0v700h425v-50h-375v-650h-50z" />
    <glyph glyph-name="uni0414" unicode="&#x414;" horiz-adv-x="700" 
d="M0 -150v200h40q35 35 62 96q63 140 63 344v210h415v-650h90v-200h-50v150h-570v-150h-50zM95 50h435v600h-315v-160q0 -197 -60 -340q-26 -63 -60 -100z" />
    <glyph glyph-name="uni0415" unicode="&#x415;" horiz-adv-x="630" 
d="M110 0v700h470v-50h-420v-260h340v-50h-340v-290h430v-50h-480z" />
    <glyph glyph-name="uni0416" unicode="&#x416;" horiz-adv-x="910" 
d="M0 0l290 410l-265 290h65l340 -375v375h50v-375l340 375h65l-265 -290l290 -410h-60l-265 373l-105 -118v-255h-50v255l-105 118l-265 -373h-60z" />
    <glyph glyph-name="uni0417" unicode="&#x417;" horiz-adv-x="570" 
d="M35 95l35 35q21 -27 47 -45q63 -45 148 -45q87 0 138.5 43.5t51.5 106.5q0 66 -51.5 110.5t-138.5 44.5h-85v50h85q79 0 124.5 37.5t45.5 92.5q0 59 -45 97t-125 38q-73 0 -131 -40q-28 -19 -44 -40l-35 35q24 27 54 47q72 48 156 48q98 0 159 -54t61 -131t-65 -124
q-31 -21 -65 -31q40 -10 75 -34q75 -55 75 -146q0 -82 -67 -141t-173 -59q-98 0 -173 52q-32 22 -57 53z" />
    <glyph glyph-name="uni0418" unicode="&#x418;" horiz-adv-x="775" 
d="M110 0v700h50v-610l465 610h40v-700h-50v610l-465 -610h-40z" />
    <glyph glyph-name="uni0419" unicode="&#x419;" horiz-adv-x="775" 
d="M110 0v700h50v-610l465 610h40v-700h-50v610l-465 -610h-40zM260 925h45q0 -38 23.5 -61.5t61.5 -23.5t61.5 23.5t23.5 61.5h45q0 -57 -36.5 -93.5t-93.5 -36.5t-93.5 36.5t-36.5 93.5z" />
    <glyph glyph-name="uni041A" unicode="&#x41a;" horiz-adv-x="640" 
d="M110 0v700h50v-430l390 430h65l-265 -290l290 -410h-60l-263 372l-157 -172v-200h-50z" />
    <glyph glyph-name="uni041B" unicode="&#x41b;" horiz-adv-x="730" 
d="M-5 2v48q9 -4 18 -5q20 -5 37 -5q29 0 50.5 17t42 62.5t31.5 139t11 231.5v210h435v-700h-50v650h-335v-160q0 -152 -13.5 -254.5t-39.5 -154t-56 -71.5t-71 -20q-19 0 -41 6z" />
    <glyph glyph-name="uni041C" unicode="&#x41c;" horiz-adv-x="920" 
d="M110 0v700h40l310 -415l310 415h40v-700h-50v605l-300 -400l-300 400v-605h-50z" />
    <glyph glyph-name="uni041D" unicode="&#x41d;" horiz-adv-x="745" 
d="M110 0v700h50v-320h425v320h50v-700h-50v330h-425v-330h-50z" />
    <glyph glyph-name="uni041E" unicode="&#x41e;" horiz-adv-x="830" 
d="M415 -10q-147 0 -251 105t-104 255t104 255t251 105t251 -105t104 -255t-104 -255t-251 -105zM415 40q128 0 216.5 89.5t88.5 220.5t-88.5 220.5t-216.5 89.5t-216.5 -89.5t-88.5 -220.5t88.5 -220.5t216.5 -89.5z" />
    <glyph glyph-name="uni041F" unicode="&#x41f;" horiz-adv-x="745" 
d="M110 0v700h525v-700h-50v650h-425v-650h-50z" />
    <glyph glyph-name="uni0420" unicode="&#x420;" horiz-adv-x="640" 
d="M110 0v700h250q97 0 161 -62t64 -153t-64 -153t-161 -62h-200v-270h-50zM160 320h200q78 0 126.5 46.5t48.5 118.5t-48.5 118.5t-126.5 46.5h-200v-330z" />
    <glyph glyph-name="uni0421" unicode="&#x421;" horiz-adv-x="750" 
d="M670 170l35 -30q-33 -44 -74 -75q-94 -75 -216 -75q-147 0 -251 105t-104 255t104 255t251 105q117 0 214 -75q42 -34 71 -75l-35 -30q-26 36 -62 65q-83 65 -188 65q-128 0 -216.5 -89.5t-88.5 -220.5t88.5 -220.5t216.5 -89.5q106 0 191 65q38 29 64 65z" />
    <glyph glyph-name="uni0422" unicode="&#x422;" horiz-adv-x="550" 
d="M250 0v650h-230v50h510v-50h-230v-650h-50z" />
    <glyph glyph-name="uni0423" unicode="&#x423;" horiz-adv-x="600" 
d="M70 0v50q10 -4 16 -5q18 -5 39 -5q47 0 77.5 24.5t57.5 80.5l30 60l-265 495h55l235 -440l210 440h55l-265 -555q-40 -82 -82.5 -118.5t-107.5 -36.5q-21 0 -39 5q-6 1 -16 5z" />
    <glyph glyph-name="uni0424" unicode="&#x424;" horiz-adv-x="840" 
d="M395 -20v95q-154 4 -247 86.5t-93 198.5t93 198.5t247 86.5v75h50v-75q154 -4 247 -86.5t93 -198.5t-93 -198.5t-247 -86.5v-95h-50zM395 125v470q-134 -4 -212 -71t-78 -164t78 -164t212 -71zM445 595v-470q134 4 212 71t78 164t-78 164t-212 71z" />
    <glyph glyph-name="uni0425" unicode="&#x425;" horiz-adv-x="610" 
d="M15 0l260 365l-240 335h60l210 -295l210 295h60l-240 -335l260 -365h-60l-230 325l-230 -325h-60z" />
    <glyph glyph-name="uni0426" unicode="&#x426;" horiz-adv-x="745" 
d="M110 0v700h50v-650h415v650h50v-650h90v-200h-50v150h-555z" />
    <glyph glyph-name="uni0427" unicode="&#x427;" horiz-adv-x="700" 
d="M540 0v320q-26 -21 -55 -35q-64 -35 -145 -35q-109 0 -174.5 65.5t-65.5 174.5v210h50v-210q0 -91 49.5 -140.5t140.5 -49.5q75 0 145 40q32 18 55 40v320h50v-700h-50z" />
    <glyph glyph-name="uni0428" unicode="&#x428;" horiz-adv-x="1010" 
d="M110 0v700h50v-650h320v650h50v-650h320v650h50v-700h-790z" />
    <glyph glyph-name="uni0429" unicode="&#x429;" horiz-adv-x="1020" 
d="M110 0v700h50v-650h320v650h50v-650h320v650h50v-650h90v-200h-50v150h-830z" />
    <glyph glyph-name="uni042A" unicode="&#x42a;" horiz-adv-x="700" 
d="M175 0v650h-175v50h225v-270h190q97 0 161 -62t64 -153t-64 -153t-161 -62h-240zM225 50h190q78 0 126.5 46.5t48.5 118.5t-48.5 118.5t-126.5 46.5h-190v-330z" />
    <glyph glyph-name="uni042B" unicode="&#x42b;" horiz-adv-x="865" 
d="M110 0v700h50v-270h190q97 0 161 -62t64 -153t-64 -153t-161 -62h-240zM705 0v700h50v-700h-50zM160 50h190q78 0 126.5 46.5t48.5 118.5t-48.5 118.5t-126.5 46.5h-190v-330z" />
    <glyph glyph-name="uni042C" unicode="&#x42c;" horiz-adv-x="645" 
d="M110 0v700h50v-270h200q97 0 161 -62t64 -153t-64 -153t-161 -62h-250zM160 50h200q78 0 126.5 46.5t48.5 118.5t-48.5 118.5t-126.5 46.5h-200v-330z" />
    <glyph glyph-name="uni042D" unicode="&#x42d;" horiz-adv-x="740" 
d="M35 140l35 30q23 -34 64 -65q85 -65 191 -65q122 0 209.5 84.5t95.5 205.5h-385v50h385q-12 118 -97.5 199t-207.5 81q-105 0 -188 -65q-36 -29 -62 -65l-35 30q28 41 71 75q95 75 214 75q147 0 251 -105t104 -255t-104 -255t-251 -105q-122 0 -216 75q-41 31 -74 75z
" />
    <glyph glyph-name="uni042E" unicode="&#x42e;" horiz-adv-x="1040" 
d="M110 0v700h50v-320h150q8 135 106 232.5t229 97.5q137 0 236 -104t99 -256t-99 -256t-236 -104q-132 0 -229.5 99t-105.5 241h-150v-330h-50zM645 40q119 0 202 88.5t83 221.5t-83 221.5t-202 88.5t-202 -88.5t-83 -221.5t83 -221.5t202 -88.5z" />
    <glyph glyph-name="uni042F" unicode="&#x42f;" horiz-adv-x="660" 
d="M55 0l170 300q-41 10 -78 37q-77 57 -77 158q0 87 61 146t154 59h265v-700h-50v290h-225l-165 -290h-55zM285 340h215v310h-215q-74 0 -119.5 -43t-45.5 -112t45.5 -112t119.5 -43z" />
    <glyph glyph-name="uni0430" unicode="&#x430;" horiz-adv-x="505" 
d="M380 0v85q-18 -29 -41 -48q-55 -47 -134 -47q-70 0 -115 40.5t-45 94.5q0 57 38.5 95.5t106.5 49.5l190 30q0 67 -37 106t-98 39q-55 0 -104 -35q-23 -18 -36 -35l-30 30q17 23 44 42q59 43 126 43q79 0 129.5 -52.5t50.5 -137.5v-300h-45zM380 210v45l-180 -30
q-110 -17 -110 -100q0 -36 32.5 -63t82.5 -27q75 0 125 50t50 125z" />
    <glyph glyph-name="uni0431" unicode="&#x431;" horiz-adv-x="570" 
d="M465 730l25 -35q-18 -12 -41 -22q-50 -23 -139 -43q-190 -40 -205 -285q21 37 46 62q63 63 144 63q91 0 158 -70t67 -170t-67 -170t-158 -70q-99 0 -167 83t-68 227q0 174 66 265t179 110q70 14 123 35q28 13 37 20zM295 35q72 0 126 57t54 138t-54 138t-126 57t-126 -57
t-54 -138t54 -138t126 -57z" />
    <glyph glyph-name="uni0432" unicode="&#x432;" horiz-adv-x="505" 
d="M85 0v480h210q63 0 101.5 -35.5t38.5 -89.5q0 -45 -35 -78q-20 -16 -35 -22q24 -7 45 -23q45 -37 45 -97q0 -61 -39.5 -98t-110.5 -37h-220zM130 275h165q44 0 69.5 22.5t25.5 57.5t-25.5 57.5t-69.5 22.5h-165v-160zM130 45h175q105 0 105 90q0 95 -105 95h-175v-185z
" />
    <glyph glyph-name="uni0433" unicode="&#x433;" horiz-adv-x="410" 
d="M85 0v480h305v-45h-260v-435h-45z" />
    <glyph glyph-name="uni0434" unicode="&#x434;" horiz-adv-x="540" 
d="M0 -120v165h40q24 28 42 71q43 98 43 224v140h315v-435h75v-165h-45v120h-425v-120h-45zM90 45h305v390h-225v-95q0 -123 -40 -221q-18 -43 -40 -74z" />
    <glyph glyph-name="uni0435" unicode="&#x435;" horiz-adv-x="550" 
d="M440 120l35 -30q-18 -26 -48 -50q-64 -50 -142 -50q-95 0 -165 73t-70 177q0 107 67.5 178.5t162.5 71.5q92 0 156 -70t64 -180v-20h-405q8 -79 62 -132t128 -53q63 0 117 42q24 19 38 43zM95 265h360q-8 83 -55.5 131.5t-119.5 48.5q-71 0 -126 -54t-59 -126z" />
    <glyph glyph-name="uni0436" unicode="&#x436;" horiz-adv-x="695" 
d="M5 0l205 285l-180 195h60l235 -255v255h45v-255l235 255h60l-180 -195l205 -285h-55l-182 252l-83 -92v-160h-45v160l-83 92l-182 -252h-55z" />
    <glyph glyph-name="uni0437" unicode="&#x437;" horiz-adv-x="425" 
d="M30 75l30 30q16 -21 36 -35q44 -35 104 -35q61 0 95.5 27.5t34.5 67.5t-34.5 67.5t-95.5 27.5h-50v45h50q52 0 81 25t29 65q0 36 -29.5 60.5t-80.5 24.5t-93 -30q-19 -14 -32 -30l-35 35q15 17 42 35q56 35 118 35q69 0 112 -38t43 -92q0 -56 -43 -89q-18 -13 -42 -21
q29 -8 52 -23q53 -37 53 -97q0 -58 -48 -99t-127 -41q-72 0 -128 42q-26 18 -42 43z" />
    <glyph glyph-name="uni0438" unicode="&#x438;" horiz-adv-x="575" 
d="M85 0v480h45v-405l320 405h40v-480h-45v405l-320 -405h-40z" />
    <glyph glyph-name="uni0439" unicode="&#x439;" horiz-adv-x="575" 
d="M85 0v480h45v-405l320 405h40v-480h-45v405l-320 -405h-40zM160 695h40q0 -42 24 -66t66 -24t66 24t24 66h40q0 -57 -36.5 -93.5t-93.5 -36.5t-93.5 36.5t-36.5 93.5z" />
    <glyph glyph-name="uni043A" unicode="&#x43a;" horiz-adv-x="485" 
d="M85 0v480h45v-285l265 285h60l-180 -195l205 -285h-55l-181 252l-114 -122v-130h-45z" />
    <glyph glyph-name="uni043B" unicode="&#x43b;" horiz-adv-x="555" 
d="M0 0v43q1 0 3 -1t4.5 -2t4.5 -1q9 -4 28 -4q28 0 47.5 20.5t33.5 91t14 193.5v140h335v-480h-45v435h-245v-95q0 -105 -10 -176.5t-29.5 -108t-42 -51t-53.5 -14.5q-17 0 -32 5q-5 1 -13 5z" />
    <glyph glyph-name="uni043C" unicode="&#x43c;" horiz-adv-x="650" 
d="M85 0v480h35l205 -270l205 270h35v-480h-45v390l-195 -250l-195 250v-390h-45z" />
    <glyph glyph-name="uni043D" unicode="&#x43d;" horiz-adv-x="570" 
d="M85 0v480h45v-215h310v215h45v-480h-45v220h-310v-220h-45z" />
    <glyph glyph-name="uni043E" unicode="&#x43e;" 
d="M290 -10q-99 0 -169.5 73t-70.5 177t70.5 177t169.5 73t169.5 -73t70.5 -177t-70.5 -177t-169.5 -73zM290 35q80 0 137.5 60t57.5 145t-57.5 145t-137.5 60t-137.5 -60t-57.5 -145t57.5 -145t137.5 -60z" />
    <glyph glyph-name="uni043F" unicode="&#x43f;" horiz-adv-x="570" 
d="M85 0v480h400v-480h-45v435h-310v-435h-45z" />
    <glyph glyph-name="uni0440" unicode="&#x440;" horiz-adv-x="590" 
d="M85 -210v690h45v-95q19 30 44 52q61 53 141 53q92 0 158.5 -71.5t66.5 -178.5t-66.5 -178.5t-158.5 -71.5q-81 0 -141 52q-26 23 -44 53v-305h-45zM315 35q73 0 126.5 58.5t53.5 146.5t-53.5 146.5t-126.5 58.5q-76 0 -130.5 -58.5t-54.5 -146.5t54.5 -146.5t130.5 -58.5
z" />
    <glyph glyph-name="uni0441" unicode="&#x441;" horiz-adv-x="515" 
d="M440 120l35 -30q-18 -26 -48 -50q-64 -50 -142 -50q-95 0 -165 73t-70 177t70 177t165 73q78 0 142 -50q30 -24 48 -50l-35 -30q-15 23 -38 42q-55 43 -117 43q-76 0 -133 -60t-57 -145t57 -145t133 -60q63 0 117 42q24 19 38 43z" />
    <glyph glyph-name="uni0442" unicode="&#x442;" horiz-adv-x="445" 
d="M200 0v435h-180v45h405v-45h-180v-435h-45z" />
    <glyph glyph-name="uni0443" unicode="&#x443;" horiz-adv-x="480" 
d="M45 -200v45q8 -4 13 -5q15 -5 32 -5q33 0 54 18t36 57l35 90l-195 480h50l170 -420l170 420h50l-230 -570q-27 -66 -57.5 -93t-82.5 -27q-17 0 -32 5q-5 1 -13 5z" />
    <glyph glyph-name="uni0444" unicode="&#x444;" horiz-adv-x="695" 
d="M325 -210v200q-121 0 -198 71.5t-77 178.5t77 178.5t198 71.5v210h45v-210q121 0 198 -71.5t77 -178.5t-77 -178.5t-198 -71.5v-200h-45zM325 35v410q-104 0 -167 -58.5t-63 -146.5t63 -146.5t167 -58.5zM370 445v-410q103 0 166.5 58.5t63.5 146.5t-63.5 146.5
t-166.5 58.5z" />
    <glyph glyph-name="uni0445" unicode="&#x445;" horiz-adv-x="440" 
d="M10 0l180 250l-165 230h55l140 -195l140 195h55l-165 -230l180 -250h-55l-155 215l-155 -215h-55z" />
    <glyph glyph-name="uni0446" unicode="&#x446;" 
d="M85 0v480h45v-435h300v435h45v-435h80v-165h-45v120h-425z" />
    <glyph glyph-name="uni0447" unicode="&#x447;" horiz-adv-x="535" 
d="M405 0v205q-20 -11 -41 -20q-49 -20 -109 -20q-83 0 -131.5 48t-48.5 127v140h45v-140q0 -60 36 -95t99 -35q55 0 109 22q27 13 41 23v225h45v-480h-45z" />
    <glyph glyph-name="uni0448" unicode="&#x448;" horiz-adv-x="775" 
d="M85 0v480h45v-435h235v435h45v-435h235v435h45v-480h-605z" />
    <glyph glyph-name="uni0449" unicode="&#x449;" horiz-adv-x="795" 
d="M85 0v480h45v-435h235v435h45v-435h235v435h45v-435h80v-165h-45v120h-640z" />
    <glyph glyph-name="uni044A" unicode="&#x44a;" horiz-adv-x="525" 
d="M135 0v435h-135v45h180v-170h130q77 0 123.5 -43t46.5 -112t-46.5 -112t-123.5 -43h-175zM180 45h130q59 0 92 30t33 80t-33 80t-92 30h-130v-220z" />
    <glyph glyph-name="uni044B" unicode="&#x44b;" horiz-adv-x="670" 
d="M85 0v480h45v-170h130q77 0 123.5 -43t46.5 -112t-46.5 -112t-123.5 -43h-175zM540 0v480h45v-480h-45zM130 45h130q59 0 92 30t33 80t-33 80t-92 30h-130v-220z" />
    <glyph glyph-name="uni044C" unicode="&#x44c;" horiz-adv-x="485" 
d="M85 0v480h45v-170h140q77 0 123.5 -43t46.5 -112t-46.5 -112t-123.5 -43h-185zM130 45h140q59 0 92 30t33 80t-33 80t-92 30h-140v-220z" />
    <glyph glyph-name="uni044D" unicode="&#x44d;" horiz-adv-x="505" 
d="M30 90l35 30q14 -24 38 -43q54 -42 117 -42q72 0 129 56t61 134h-255v45h255q-12 73 -66 124t-124 51q-62 0 -117 -43q-23 -19 -38 -42l-35 30q18 26 48 50q64 50 142 50q95 0 165 -73t70 -177t-70 -177t-165 -73q-78 0 -142 50q-30 24 -48 50z" />
    <glyph glyph-name="uni044E" unicode="&#x44e;" horiz-adv-x="755" 
d="M85 0v480h45v-215h115q8 94 74.5 159.5t155.5 65.5q95 0 162.5 -71.5t67.5 -178.5t-67.5 -178.5t-162.5 -71.5q-90 0 -156 66t-74 164h-115v-220h-45zM475 35q76 0 130.5 58.5t54.5 146.5t-54.5 146.5t-130.5 58.5t-130.5 -58.5t-54.5 -146.5t54.5 -146.5t130.5 -58.5z
" />
    <glyph glyph-name="uni044F" unicode="&#x44f;" horiz-adv-x="510" 
d="M55 0l115 190q-31 9 -55 27q-55 41 -55 113q0 65 46.5 107.5t123.5 42.5h195v-480h-45v180h-165l-105 -180h-55zM230 225h150v210h-150q-58 0 -91.5 -29.5t-33.5 -75.5t33.5 -75.5t91.5 -29.5z" />
    <glyph glyph-name="uni0450" unicode="&#x450;" horiz-adv-x="550" 
d="M255 565l-90 130h55l75 -130h-40zM440 120l35 -30q-18 -26 -48 -50q-64 -50 -142 -50q-95 0 -165 73t-70 177q0 107 67.5 178.5t162.5 71.5q92 0 156 -70t64 -180v-20h-405q8 -79 62 -132t128 -53q63 0 117 42q24 19 38 43zM95 265h360q-8 83 -55.5 131.5t-119.5 48.5
q-71 0 -126 -54t-59 -126z" />
    <glyph glyph-name="uni0451" unicode="&#x451;" horiz-adv-x="550" 
d="M440 120l35 -30q-18 -26 -48 -50q-64 -50 -142 -50q-95 0 -165 73t-70 177q0 107 67.5 178.5t162.5 71.5q92 0 156 -70t64 -180v-20h-405q8 -79 62 -132t128 -53q63 0 117 42q24 19 38 43zM95 265h360q-8 83 -55.5 131.5t-119.5 48.5q-71 0 -126 -54t-59 -126zM155 630
q0 15 10 25t25 10t25 -10t10 -25t-10 -25t-25 -10t-25 10t-10 25zM330 630q0 15 10 25t25 10t25 -10t10 -25t-10 -25t-25 -10t-25 10t-10 25z" />
    <glyph glyph-name="uni0452" unicode="&#x452;" horiz-adv-x="565" 
d="M100 0v555h-90v45h90v100h45v-100h150v-45h-150v-200q16 27 39 47q54 48 126 48q91 0 148 -60.5t57 -164.5q0 -103 -60.5 -169t-149.5 -66v45q70 0 117.5 53t47.5 137q0 86 -43.5 133t-116.5 47q-69 0 -117 -50.5t-48 -124.5v-230h-45z" />
    <glyph glyph-name="uni0453" unicode="&#x453;" horiz-adv-x="410" 
d="M85 0v480h305v-45h-260v-435h-45zM215 565l75 130h55l-90 -130h-40z" />
    <glyph glyph-name="uni0454" unicode="&#x454;" horiz-adv-x="515" 
d="M95 270h255v-45h-255q4 -78 60.5 -134t129.5 -56q63 0 117 42q24 19 38 43l35 -30q-18 -26 -48 -50q-64 -50 -142 -50q-95 0 -165 73t-70 177t70 177t165 73q78 0 142 -50q30 -24 48 -50l-35 -30q-15 23 -38 42q-55 43 -117 43q-70 0 -124 -51t-66 -124z" />
    <glyph glyph-name="uni0455" unicode="&#x455;" horiz-adv-x="430" 
d="M40 70l35 35q18 -21 36 -35q42 -35 99 -35q58 0 91.5 28.5t33.5 71.5q0 33 -28.5 53.5t-68.5 32t-80.5 25t-69 42t-28.5 72.5q0 51 44.5 90.5t110.5 39.5q55 0 111 -35q25 -18 39 -35l-35 -35q-11 15 -29 30q-38 30 -86 30q-51 0 -80.5 -25t-29.5 -60q0 -32 28.5 -51.5
t69 -30.5t80.5 -24.5t68.5 -43t28.5 -75.5q0 -62 -47 -103.5t-123 -41.5q-68 0 -126 40q-28 19 -44 40z" />
    <glyph glyph-name="uni0456" unicode="&#x456;" horiz-adv-x="225" 
d="M80 650q0 15 10 25t25 10t25 -10t10 -25t-10 -25t-25 -10t-25 10t-10 25zM90 0v480h45v-480h-45z" />
    <glyph glyph-name="uni0457" unicode="&#x457;" horiz-adv-x="225" 
d="M90 0v480h45v-480h-45zM-10 630q0 15 10 25t25 10t25 -10t10 -25t-10 -25t-25 -10t-25 10t-10 25zM165 630q0 15 10 25t25 10t25 -10t10 -25t-10 -25t-25 -10t-25 10t-10 25z" />
    <glyph glyph-name="uni0458" unicode="&#x458;" horiz-adv-x="225" 
d="M80 650q0 15 10 25t25 10t25 -10t10 -25t-10 -25t-25 -10t-25 10t-10 25zM-45 -195v45q4 -2 17 -8q19 -7 43 -7q35 0 55 22t20 63v560h45v-560q0 -59 -33 -94.5t-87 -35.5q-24 0 -43 7q-13 5 -17 8z" />
    <glyph glyph-name="uni0459" unicode="&#x459;" horiz-adv-x="795" 
d="M0 0v43q1 0 3 -1t4.5 -2t4.5 -1q9 -4 28 -4q28 0 47.5 20.5t33.5 91t14 193.5v140h315v-190h130q81 0 125.5 -39.5t44.5 -105.5t-44.5 -105.5t-125.5 -39.5h-175v435h-225v-95q0 -105 -10 -176.5t-29.5 -108t-42 -51t-53.5 -14.5q-17 0 -32 5q-5 1 -13 5zM450 45h130
q62 0 93.5 26.5t31.5 73.5t-31.5 73.5t-93.5 26.5h-130v-200z" />
    <glyph glyph-name="uni045A" unicode="&#x45a;" horiz-adv-x="800" 
d="M85 0v480h45v-190h280v190h45v-190h130q81 0 125.5 -39.5t44.5 -105.5t-44.5 -105.5t-125.5 -39.5h-175v245h-280v-245h-45zM455 45h130q62 0 93.5 26.5t31.5 73.5t-31.5 73.5t-93.5 26.5h-130v-200z" />
    <glyph glyph-name="uni045B" unicode="&#x45b;" horiz-adv-x="585" 
d="M100 0v555h-90v45h90v100h45v-100h150v-45h-150v-200q16 27 39 47q54 48 126 48q83 0 139 -58t56 -147v-245h-45v245q0 71 -42.5 115.5t-107.5 44.5q-69 0 -117 -50.5t-48 -124.5v-230h-45z" />
    <glyph glyph-name="uni045C" unicode="&#x45c;" horiz-adv-x="485" 
d="M85 0v480h45v-285l265 285h60l-180 -195l205 -285h-55l-181 252l-114 -122v-130h-45zM235 565l75 130h55l-90 -130h-40z" />
    <glyph glyph-name="uni045D" unicode="&#x45d;" horiz-adv-x="575" 
d="M85 0v480h45v-405l320 405h40v-480h-45v405l-320 -405h-40zM275 570l-90 130h55l75 -130h-40z" />
    <glyph glyph-name="uni045E" unicode="&#x45e;" horiz-adv-x="480" 
d="M45 -200v45q8 -4 13 -5q15 -5 32 -5q33 0 54 18t36 57l35 90l-195 480h50l170 -420l170 420h50l-230 -570q-27 -66 -57.5 -93t-82.5 -27q-17 0 -32 5q-5 1 -13 5zM110 695h40q0 -42 24 -66t66 -24t66 24t24 66h40q0 -57 -36.5 -93.5t-93.5 -36.5t-93.5 36.5t-36.5 93.5z
" />
    <glyph glyph-name="uni045F" unicode="&#x45f;" horiz-adv-x="565" 
d="M85 0v480h45v-435h305v435h45v-480h-175v-120h-45v120h-175z" />
    <glyph glyph-name="uni0462" unicode="&#x462;" horiz-adv-x="680" 
d="M155 0v540h-155v45h155v115h50v-115h195v-45h-195v-140h195q100 0 160 -56t60 -144t-60 -144t-160 -56h-245zM205 50h195q82 0 126 40t44 110t-44 110t-126 40h-195v-300z" />
    <glyph glyph-name="uni0463" unicode="&#x463;" horiz-adv-x="525" 
d="M125 0v435h-125v45h125v220h45v-220h175v-45h-175v-125h140q77 0 123.5 -43t46.5 -112t-46.5 -112t-123.5 -43h-185zM170 45h140q59 0 92 30t33 80t-33 80t-92 30h-140v-220z" />
    <glyph glyph-name="uni046A" unicode="&#x46a;" horiz-adv-x="780" 
d="M70 0v80q0 142 69 222.5t186 92.5l-240 270v35h610v-35l-240 -270q116 -13 185.5 -93t69.5 -222v-80h-50v80q0 134 -61.5 200t-183.5 70v-350h-50v350q-122 -4 -183.5 -70t-61.5 -200v-80h-50zM390 390l230 260h-455z" />
    <glyph glyph-name="uni046B" unicode="&#x46b;" horiz-adv-x="625" 
d="M85 0h-45q0 109 59 176t156 79l-180 190v35h475v-35l-180 -190q97 -12 156 -79t59 -176h-45q0 97 -55 154t-150 61v-215h-45v215q-95 -4 -150 -61t-55 -154zM312 255l168 180h-335z" />
    <glyph glyph-name="uni0472" unicode="&#x472;" horiz-adv-x="830" 
d="M415 -10q-147 0 -251 105t-104 255t104 255t251 105t251 -105t104 -255t-104 -255t-251 -105zM112 315h-1q12 -119 98.5 -197t205.5 -78q124 0 211.5 84.5t93.5 210.5q-19 -10 -44 -18q-53 -17 -111 -17q-59 0 -154 25t-146 25q-58 0 -112 -18q-21 -7 -41 -17zM110 365
q24 11 44 17q54 18 111 18q59 0 154 -25t146 -25q61 0 112 17q24 8 41 18q-12 118 -98.5 196.5t-204.5 78.5q-123 0 -211 -85t-94 -210z" />
    <glyph glyph-name="uni0473" unicode="&#x473;" 
d="M290 -10q-99 0 -169.5 73t-70.5 177t70.5 177t169.5 73t169.5 -73t70.5 -177t-70.5 -177t-169.5 -73zM98 205q12 -73 66.5 -121.5t125.5 -48.5q76 0 133.5 56.5t61.5 138.5q-15 -10 -29 -15q-36 -15 -71 -15q-38 0 -97 17.5t-93 17.5q-35 0 -71 -15q-17 -8 -26 -15z
M95 250q18 10 29 15q41 15 71 15q38 0 97 -17.5t93 -17.5q39 0 71 15q16 6 26 15q-12 73 -66.5 121.5t-125.5 48.5q-76 0 -133.5 -57t-61.5 -138z" />
    <glyph glyph-name="uni0474" unicode="&#x474;" horiz-adv-x="670" 
d="M300 0l-275 700h55l245 -625l185 495q28 75 59 107.5t76 32.5q21 0 43 -8l17 -7l-15 -45q-1 0 -13 5q-13 5 -32 5q-27 0 -44 -19.5t-36 -70.5l-215 -570h-50z" />
    <glyph glyph-name="uni0475" unicode="&#x475;" horiz-adv-x="505" 
d="M215 0l-195 480h50l170 -420l125 325q22 57 47.5 81t67.5 24q21 0 36 -5l14 -5l-10 -45l-11 5q-12 5 -29 5q-23 0 -37.5 -13t-27.5 -47l-150 -385h-50z" />
    <glyph glyph-name="uni048A" unicode="&#x48a;" horiz-adv-x="780" 
d="M110 0v700h50v-610l465 610h40v-650h105l-100 -200h-40l60 150h-75v610l-465 -610h-40zM260 925h45q0 -38 23.5 -61.5t61.5 -23.5t61.5 23.5t23.5 61.5h45q0 -57 -36.5 -93.5t-93.5 -36.5t-93.5 36.5t-36.5 93.5z" />
    <glyph glyph-name="uni048B" unicode="&#x48b;" horiz-adv-x="575" 
d="M85 0v480h45v-405l320 405h40v-435h90l-80 -165h-40l45 120h-60v405l-320 -405h-40zM155 695h40q0 -42 24 -66t66 -24t66 24t24 66h40q0 -57 -36.5 -93.5t-93.5 -36.5t-93.5 36.5t-36.5 93.5z" />
    <glyph glyph-name="uni048C" unicode="&#x48c;" horiz-adv-x="680" 
d="M155 0v540h-155v45h155v115h50v-115h195v-45h-195v-140h195q100 0 160 -56t60 -144t-60 -144t-160 -56h-245zM205 50h195q82 0 126 40t44 110t-44 110t-126 40h-195v-300z" />
    <glyph glyph-name="uni048D" unicode="&#x48d;" horiz-adv-x="525" 
d="M125 0v435h-125v45h125v220h45v-220h175v-45h-175v-125h140q77 0 123.5 -43t46.5 -112t-46.5 -112t-123.5 -43h-185zM170 45h140q59 0 92 30t33 80t-33 80t-92 30h-140v-220z" />
    <glyph glyph-name="uni048E" unicode="&#x48e;" horiz-adv-x="640" 
d="M110 0v700h250q97 0 161 -62t64 -153q0 -63 -31 -113t-85 -77l66 -95l-40 -30l-74 107q-25 -7 -61 -7h-200v-270h-50zM160 320h200q23 0 30 2l-60 88l40 30l71 -104q44 20 69 59t25 90q0 72 -48.5 118.5t-126.5 46.5h-200v-330z" />
    <glyph glyph-name="uni048F" unicode="&#x48f;" horiz-adv-x="590" 
d="M85 -210v690h45v-95q19 30 44 52q61 53 141 53q92 0 158.5 -71.5t66.5 -178.5q0 -124 -89 -200l64 -90l-35 -25l-64 91q-47 -26 -101 -26q-81 0 -141 52q-26 23 -44 53v-305h-45zM390 53l-75 107l35 25l75 -108q70 60 70 163q0 88 -53.5 146.5t-126.5 58.5
q-76 0 -130.5 -58.5t-54.5 -146.5t54.5 -146.5t130.5 -58.5q41 0 75 18z" />
    <glyph glyph-name="uni0490" unicode="&#x490;" horiz-adv-x="555" 
d="M110 0v700h375v140h50v-190h-375v-650h-50z" />
    <glyph glyph-name="uni0491" unicode="&#x491;" horiz-adv-x="410" 
d="M85 0v480h260v120h45v-165h-260v-435h-45z" />
    <glyph glyph-name="uni0492" unicode="&#x492;" 
d="M135 0v330h-105v50h105v320h425v-50h-375v-270h215v-50h-215v-330h-50z" />
    <glyph glyph-name="uni0493" unicode="&#x493;" horiz-adv-x="430" 
d="M105 0v210h-85v45h85v225h305v-45h-260v-180h150v-45h-150v-210h-45z" />
    <glyph glyph-name="uni0494" unicode="&#x494;" horiz-adv-x="655" 
d="M110 0v700h425v-50h-375v-330q25 20 52 32q72 33 143 33q109 0 174.5 -66.5t65.5 -178.5q0 -119 -70 -192t-180 -73v50q87 0 143.5 59.5t56.5 155.5q0 90 -51.5 142.5t-138.5 52.5q-78 0 -144 -38q-25 -14 -51 -37v-260h-50z" />
    <glyph glyph-name="uni0495" unicode="&#x495;" horiz-adv-x="485" 
d="M250 -210v45q65 0 110 51t45 144q0 84 -41.5 132t-103.5 48q-49 0 -95 -30q-21 -14 -35 -30v-150h-45v480h305v-45h-260v-230q17 15 35 25q48 25 95 25q81 0 135.5 -61.5t54.5 -163.5q0 -112 -58.5 -176t-141.5 -64z" />
    <glyph glyph-name="uni0496" unicode="&#x496;" horiz-adv-x="945" 
d="M0 0l290 410l-265 290h65l340 -375v375h50v-375l340 375h65l-265 -290l255 -360h90v-200h-50v150h-65l-265 373l-105 -118v-255h-50v255l-105 118l-265 -373h-60z" />
    <glyph glyph-name="uni0497" unicode="&#x497;" horiz-adv-x="710" 
d="M5 0l205 285l-180 195h60l235 -255v255h45v-255l235 255h60l-180 -195l172 -240h73v-165h-45v120h-50l-182 252l-83 -92v-160h-45v160l-83 92l-182 -252h-55z" />
    <glyph glyph-name="uni0498" unicode="&#x498;" horiz-adv-x="570" 
d="M240 -150v141q-84 6 -154 56q-30 23 -51 48l35 35q21 -27 47 -45q63 -45 148 -45q87 0 138.5 43.5t51.5 106.5q0 66 -51.5 110.5t-138.5 44.5h-85v50h85q79 0 124.5 37.5t45.5 92.5q0 59 -45 97t-125 38q-73 0 -131 -40q-28 -19 -44 -40l-35 35q24 27 54 47q72 48 156 48
q98 0 159 -54t61 -131t-65 -124q-31 -21 -65 -31q40 -10 75 -34q75 -55 75 -146q0 -77 -59 -134t-156 -65v-141h-50z" />
    <glyph glyph-name="uni0499" unicode="&#x499;" horiz-adv-x="425" 
d="M180 -120v111q-63 5 -113 45q-21 17 -37 39l30 30q16 -21 36 -35q44 -35 104 -35q61 0 95.5 27.5t34.5 67.5t-34.5 67.5t-95.5 27.5h-50v45h50q52 0 81 25t29 65q0 36 -29.5 60.5t-80.5 24.5t-93 -30q-19 -14 -32 -30l-35 35q15 17 42 35q56 35 118 35q69 0 112 -38
t43 -92q0 -56 -43 -89q-18 -13 -42 -21q29 -8 52 -23q53 -37 53 -97q0 -55 -40.5 -93.5t-110.5 -45.5v-111h-44z" />
    <glyph glyph-name="uni049A" unicode="&#x49a;" horiz-adv-x="665" 
d="M110 0v700h50v-430l390 430h65l-265 -290l255 -360h80v-200h-50v150h-55l-263 372l-157 -172v-200h-50z" />
    <glyph glyph-name="uni049B" unicode="&#x49b;" horiz-adv-x="500" 
d="M85 0v480h45v-285l265 285h60l-180 -195l172 -240h73v-165h-45v120h-50l-181 252l-114 -122v-130h-45z" />
    <glyph glyph-name="uni049C" unicode="&#x49c;" horiz-adv-x="660" 
d="M110 0v700h50v-320h80v135h50v-135h67l218 320h60l-235 -345l260 -355h-60l-243 330h-67v-135h-50v135h-80v-330h-50z" />
    <glyph glyph-name="uni049D" unicode="&#x49d;" horiz-adv-x="505" 
d="M85 0v480h45v-215h70v105h45v-105h45l125 215h55l-140 -235l160 -245h-55l-145 220h-45v-100h-45v100h-70v-220h-45z" />
    <glyph glyph-name="uni049E" unicode="&#x49e;" horiz-adv-x="670" 
d="M140 0v545h-140v45h140v110h50v-110h130v-45h-130v-275l390 430h65l-265 -290l290 -410h-60l-263 372l-157 -172v-200h-50z" />
    <glyph glyph-name="uni049F" unicode="&#x49f;" horiz-adv-x="500" 
d="M100 0v555h-85v45h85v100h45v-100h150v-45h-150v-360l265 285h60l-180 -195l205 -285h-55l-181 252l-114 -122v-130h-45z" />
    <glyph glyph-name="uni04A0" unicode="&#x4a0;" horiz-adv-x="720" 
d="M190 0v650h-190v50h240v-430l390 430h65l-265 -290l290 -410h-60l-263 372l-157 -172v-200h-50z" />
    <glyph glyph-name="uni04A1" unicode="&#x4a1;" horiz-adv-x="505" 
d="M105 0v435h-105v45h150v-285l265 285h60l-180 -195l205 -285h-55l-181 252l-114 -122v-130h-45z" />
    <glyph glyph-name="uni04A2" unicode="&#x4a2;" horiz-adv-x="755" 
d="M110 0v700h50v-320h425v320h50v-650h90v-200h-50v150h-90v330h-425v-330h-50z" />
    <glyph glyph-name="uni04A3" unicode="&#x4a3;" horiz-adv-x="590" 
d="M85 0v480h45v-215h310v215h45v-435h80v-165h-45v120h-80v220h-310v-220h-45z" />
    <glyph glyph-name="uni04A4" unicode="&#x4a4;" horiz-adv-x="980" 
d="M110 0v700h50v-320h405v320h395v-50h-345v-650h-50v330h-405v-330h-50z" />
    <glyph glyph-name="uni04A5" unicode="&#x4a5;" horiz-adv-x="725" 
d="M85 0v480h45v-215h295v215h280v-45h-235v-435h-45v220h-295v-220h-45z" />
    <glyph glyph-name="uni04A6" unicode="&#x4a6;" horiz-adv-x="1100" 
d="M110 0v700h515v-380q25 20 52 32q72 33 143 33q109 0 174.5 -66.5t65.5 -178.5q0 -119 -70 -192t-180 -73v50q87 0 143.5 59.5t56.5 155.5q0 90 -51.5 142.5t-138.5 52.5q-78 0 -144 -38q-25 -14 -51 -37v-260h-50v650h-415v-650h-50z" />
    <glyph glyph-name="uni04A7" unicode="&#x4a7;" horiz-adv-x="825" 
d="M85 0v480h385v-275q17 15 35 25q48 25 95 25q81 0 135.5 -61.5t54.5 -163.5q0 -112 -58.5 -176t-141.5 -64v45q65 0 110 51t45 144q0 84 -41.5 132t-103.5 48q-49 0 -95 -30q-21 -14 -35 -30v-150h-45v435h-295v-435h-45z" />
    <glyph glyph-name="uni04A8" unicode="&#x4a8;" horiz-adv-x="815" 
d="M765 75l20 -45q-17 -13 -32 -20q-42 -20 -103 -20q-51 0 -87 12q-14 4 -33 13q-20 -9 -38 -13q-41 -12 -97 -12q-139 0 -237 104t-98 256q0 151 85.5 247t209.5 113v-50q-101 -13 -173 -95.5t-72 -214.5q0 -137 81 -223.5t204 -86.5q27 0 52 5q10 1 23 5q-44 32 -78 79
q-77 109 -77 251q0 119 64.5 194.5t150.5 75.5t150.5 -75.5t64.5 -194.5q0 -141 -83 -253q-37 -48 -82 -77q13 -4 22 -5q25 -5 48 -5q50 0 86 17q18 8 29 18zM530 70q46 25 82 69q83 99 83 241q0 100 -49 160t-116 60t-116 -60t-49 -160q0 -141 82 -239q34 -41 83 -71z" />
    <glyph glyph-name="uni04A9" unicode="&#x4a9;" horiz-adv-x="605" 
d="M575 75l30 -30q-13 -16 -31 -28q-38 -27 -93 -27q-41 0 -75 10q-18 5 -26 10q-7 -4 -25 -10q-32 -10 -70 -10q-99 0 -167 72t-68 183q0 100 55.5 166t134.5 79v-45q-60 -13 -102.5 -66t-42.5 -134q0 -92 55 -151t135 -59q21 0 34 3l16 4q-28 22 -48 52q-47 69 -47 161
q0 86 40.5 135.5t99.5 49.5t99.5 -49.5t40.5 -135.5q0 -91 -48 -161q-20 -29 -47 -52l16 -4q15 -3 39 -3q41 0 70 20q15 10 25 20zM380 60q27 19 47 45q48 62 48 150q0 68 -27.5 104t-67.5 36q-41 0 -68 -36t-27 -104q0 -89 47 -150q21 -27 48 -45z" />
    <glyph glyph-name="uni04AA" unicode="&#x4aa;" horiz-adv-x="750" 
d="M385 -150v141q-136 12 -230.5 115t-94.5 244q0 150 104 255t251 105q117 0 214 -75q42 -34 71 -75l-35 -30q-26 36 -62 65q-83 65 -188 65q-128 0 -216.5 -89.5t-88.5 -220.5t88.5 -220.5t216.5 -89.5q106 0 191 65q38 29 64 65l35 -30q-29 -40 -69 -71q-91 -73 -201 -78
v-141h-50z" />
    <glyph glyph-name="uni04AB" unicode="&#x4ab;" horiz-adv-x="515" 
d="M260 -120v112q-88 10 -149 80.5t-61 167.5q0 104 70 177t165 73q78 0 142 -50q30 -24 48 -50l-35 -30q-15 23 -38 42q-55 43 -117 43q-76 0 -133 -60t-57 -145t57 -145t133 -60q63 0 117 42q24 19 38 43l35 -30q-15 -23 -43 -46q-58 -48 -127 -53v-111h-45z" />
    <glyph glyph-name="uni04AC" unicode="&#x4ac;" horiz-adv-x="550" 
d="M340 -150v150h-90v650h-230v50h510v-50h-230v-600h90v-200h-50z" />
    <glyph glyph-name="uni04AD" unicode="&#x4ad;" horiz-adv-x="445" 
d="M280 -120v120h-80v435h-180v45h405v-45h-180v-390h80v-165h-45z" />
    <glyph glyph-name="uni04AE" unicode="&#x4ae;" horiz-adv-x="600" 
d="M275 0v245l-260 455h60l225 -400l225 400h60l-260 -455v-245h-50z" />
    <glyph glyph-name="uni04AF" unicode="&#x4af;" horiz-adv-x="480" 
d="M218 -210v203l-198 487h50l170 -420l170 420h50l-198 -487v-203h-44z" />
    <glyph glyph-name="uni04B0" unicode="&#x4b0;" horiz-adv-x="600" 
d="M275 0v215h-165v45h165v5l-260 435h60l225 -380l225 380h60l-260 -435v-5h165v-45h-165v-215h-50z" />
    <glyph glyph-name="uni04B1" unicode="&#x4b1;" horiz-adv-x="480" 
d="M218 -210v155h-113v45h113v3l-198 487h50l170 -420l170 420h50l-198 -487v-3h113v-45h-113v-155h-44z" />
    <glyph glyph-name="uni04B2" unicode="&#x4b2;" horiz-adv-x="620" 
d="M15 0l260 365l-240 335h60l210 -295l210 295h60l-240 -335l225 -315h80v-200h-50v150h-55l-230 325l-230 -325h-60z" />
    <glyph glyph-name="uni04B3" unicode="&#x4b3;" horiz-adv-x="450" 
d="M10 0l180 250l-165 230h55l140 -195l140 195h55l-165 -230l147 -205h73v-165h-45v120h-50l-155 215l-155 -215h-55z" />
    <glyph glyph-name="uni04B4" unicode="&#x4b4;" horiz-adv-x="885" 
d="M250 0v650h-230v50h500v-50h-220v-600h414v650h50v-650h91v-200h-50v150h-555z" />
    <glyph glyph-name="uni04B5" unicode="&#x4b5;" horiz-adv-x="695" 
d="M200 0v435h-180v45h405v-45h-180v-390h300v435h45v-435h80v-165h-45v120h-425z" />
    <glyph glyph-name="uni04B6" unicode="&#x4b6;" horiz-adv-x="710" 
d="M630 -150v150h-90v320q-26 -21 -55 -35q-64 -35 -145 -35q-109 0 -174.5 65.5t-65.5 174.5v210h50v-210q0 -91 49.5 -140.5t140.5 -49.5q75 0 145 40q32 18 55 40v320h50v-650h90v-200h-50z" />
    <glyph glyph-name="uni04B7" unicode="&#x4b7;" horiz-adv-x="555" 
d="M485 -120v120h-80v205q-20 -11 -41 -20q-49 -20 -109 -20q-83 0 -131.5 48t-48.5 127v140h45v-140q0 -60 36 -95t99 -35q55 0 109 22q27 13 41 23v225h45v-435h80v-165h-45z" />
    <glyph glyph-name="uni04B8" unicode="&#x4b8;" horiz-adv-x="705" 
d="M325 140v110q-103 4 -164 69.5t-61 170.5v210h50v-210q0 -87 45.5 -136t129.5 -54v145h50v-143q66 9 123 44q30 19 47 34v320h50v-700h-50v320q-20 -16 -47 -30q-62 -32 -123 -38v-112h-50z" />
    <glyph glyph-name="uni04B9" unicode="&#x4b9;" horiz-adv-x="535" 
d="M245 80v85q-77 2 -123.5 50.5t-46.5 124.5v140h45v-140q0 -58 32.5 -92.5t92.5 -37.5v100h45v-98q49 6 84 25q16 8 31 18v225h45v-480h-45v205q-12 -8 -31 -16q-37 -17 -84 -22v-87h-45z" />
    <glyph glyph-name="uni04BA" unicode="&#x4ba;" horiz-adv-x="680" 
d="M110 0v700h50v-320q21 17 55 35q72 35 145 35q109 0 174.5 -65.5t65.5 -174.5v-210h-50v210q0 91 -49.5 140.5t-140.5 49.5q-75 0 -145 -40q-32 -18 -55 -40v-320h-50z" />
    <glyph glyph-name="uni04BB" unicode="&#x4bb;" horiz-adv-x="575" 
d="M90 0v700h45v-305q16 27 39 47q54 48 126 48q83 0 139 -58t56 -147v-285h-45v285q0 71 -42.5 115.5t-107.5 44.5q-69 0 -117 -50.5t-48 -124.5v-270h-45z" />
    <glyph glyph-name="uni04BC" unicode="&#x4bc;" horiz-adv-x="865" 
d="M3 490h47v-24q0 -36 17 -51t58 -15h28q16 137 109 223.5t218 86.5q137 0 233.5 -102t96.5 -258h-610q0 -139 83.5 -224.5t206.5 -85.5q101 0 176 52q31 20 59 53l35 -30q-28 -36 -69 -63q-94 -62 -201 -62q-147 0 -243.5 103t-96.5 257h-25q-125 0 -125 110q0 14 1 21z
M205 400h550q-12 114 -88 187t-187 73t-187 -73t-88 -187z" />
    <glyph glyph-name="uni04BD" unicode="&#x4bd;" horiz-adv-x="620" 
d="M0 321v29h45v-20q0 -34 16 -49.5t54 -15.5h5q8 94 74.5 159.5t155.5 65.5q92 0 156 -70t64 -180v-20h-405q8 -79 62 -132t128 -53q63 0 117 42q24 19 38 43l35 -30q-18 -26 -48 -50q-64 -50 -142 -50q-90 0 -158.5 66t-76.5 164h-5q-56 0 -85.5 27t-29.5 74zM165 265h360
q-8 83 -55.5 131.5t-119.5 48.5q-71 0 -126 -54t-59 -126z" />
    <glyph glyph-name="uni04BE" unicode="&#x4be;" horiz-adv-x="865" 
d="M460 -150v141q-135 12 -222.5 112.5t-87.5 246.5h-25q-125 0 -125 110q0 14 1 21l2 9h47v-24q0 -36 17 -51t58 -15h28q16 137 109 223.5t218 86.5q137 0 233.5 -102t96.5 -258h-610q0 -139 83.5 -224.5t206.5 -85.5q101 0 176 52q31 20 59 53l35 -30q-29 -35 -64 -59
q-83 -60 -186 -65v-141h-50zM205 400h550q-12 114 -88 187t-187 73t-187 -73t-88 -187z" />
    <glyph glyph-name="uni04BF" unicode="&#x4bf;" horiz-adv-x="620" 
d="M325 -120v112q-78 10 -137.5 73.5t-67.5 154.5h-5q-56 0 -85.5 26.5t-29.5 73.5v30h45v-20q0 -34 16 -49.5t54 -15.5h5q8 94 74.5 159.5t155.5 65.5q92 0 156 -70t64 -180v-20h-405q8 -79 62 -132t128 -53q63 0 117 42q24 19 38 43l35 -30q-18 -26 -44 -47
q-58 -48 -131 -53v-110h-45zM165 265h360q-8 83 -55.5 131.5t-119.5 48.5q-71 0 -126 -54t-59 -126z" />
    <glyph glyph-name="uni04C0" unicode="&#x4c0;" horiz-adv-x="270" 
d="M110 0v700h50v-700h-50z" />
    <glyph glyph-name="uni04C1" unicode="&#x4c1;" horiz-adv-x="910" 
d="M0 0l290 410l-265 290h65l340 -375v375h50v-375l340 375h65l-265 -290l290 -410h-60l-265 373l-105 -118v-255h-50v255l-105 118l-265 -373h-60zM325 925h45q0 -38 23.5 -61.5t61.5 -23.5t61.5 23.5t23.5 61.5h45q0 -57 -36.5 -93.5t-93.5 -36.5t-93.5 36.5t-36.5 93.5z
" />
    <glyph glyph-name="uni04C2" unicode="&#x4c2;" horiz-adv-x="695" 
d="M5 0l205 285l-180 195h60l235 -255v255h45v-255l235 255h60l-180 -195l205 -285h-55l-182 252l-83 -92v-160h-45v160l-83 92l-182 -252h-55zM220 695h40q0 -42 24 -66t66 -24t66 24t24 66h40q0 -57 -36.5 -93.5t-93.5 -36.5t-93.5 36.5t-36.5 93.5z" />
    <glyph glyph-name="uni04C3" unicode="&#x4c3;" horiz-adv-x="685" 
d="M110 0v700h50v-430l390 430h65l-300 -330q6 5 20 10q30 10 65 10q105 0 170 -74t65 -206q0 -143 -71 -226.5t-179 -83.5v50q86 0 143 68.5t57 191.5q0 109 -52 169.5t-133 60.5q-114 0 -200 -95l-40 -45v-200h-50z" />
    <glyph glyph-name="uni04C4" unicode="&#x4c4;" horiz-adv-x="500" 
d="M280 -210v45q63 0 104 50.5t41 144.5q0 88 -39.5 134t-105.5 46q-55 0 -111 -35q-25 -18 -39 -35v-140h-45v480h45v-275l265 275h60l-225 -235q30 10 60 10q78 0 129 -60t51 -165q0 -113 -54 -176.5t-136 -63.5z" />
    <glyph glyph-name="uni04C5" unicode="&#x4c5;" horiz-adv-x="735" 
d="M-5 2v48q9 -4 18 -5q20 -5 37 -5q29 0 50.5 17t42 62.5t31.5 139t11 231.5v210h435v-650h105l-100 -200h-40l60 150h-75v650h-335v-160q0 -152 -13.5 -254.5t-39.5 -154t-56 -71.5t-71 -20q-19 0 -41 6z" />
    <glyph glyph-name="uni04C6" unicode="&#x4c6;" horiz-adv-x="555" 
d="M0 0v43q1 0 3 -1t4.5 -2t4.5 -1q9 -4 28 -4q28 0 47.5 20.5t33.5 91t14 193.5v140h335v-435h90l-80 -165h-40l45 120h-60v435h-245v-95q0 -105 -10 -176.5t-29.5 -108t-42 -51t-53.5 -14.5q-17 0 -32 5q-5 1 -13 5z" />
    <glyph glyph-name="uni04C7" unicode="&#x4c7;" horiz-adv-x="745" 
d="M110 0v700h50v-320h425v320h50v-770q0 -140 -120 -140q-26 0 -48 8q-13 6 -17 8v49q4 -2 17 -8q19 -7 43 -7q39 0 57 21t18 69v400h-425v-330h-50z" />
    <glyph glyph-name="uni04C8" unicode="&#x4c8;" horiz-adv-x="570" 
d="M85 0v480h45v-215h310v215h45v-575q0 -56 -28 -85.5t-77 -29.5q-24 0 -43 7q-13 5 -17 8v45l16 -8q15 -7 39 -7q30 0 47.5 18.5t17.5 51.5v315h-310v-220h-45z" />
    <glyph glyph-name="uni04C9" unicode="&#x4c9;" horiz-adv-x="750" 
d="M110 0v700h50v-320h425v320h50v-650h105l-100 -200h-40l60 150h-75v330h-425v-330h-50z" />
    <glyph glyph-name="uni04CA" unicode="&#x4ca;" horiz-adv-x="570" 
d="M85 0v480h45v-215h310v215h45v-435h90l-80 -165h-40l45 120h-60v220h-310v-220h-45z" />
    <glyph glyph-name="uni04CB" unicode="&#x4cb;" horiz-adv-x="700" 
d="M450 -150v200h90v270q-26 -21 -55 -35q-64 -35 -145 -35q-109 0 -174.5 65.5t-65.5 174.5v210h50v-210q0 -91 49.5 -140.5t140.5 -49.5q75 0 145 40q32 18 55 40v320h50v-700h-90v-150h-50z" />
    <glyph glyph-name="uni04CC" unicode="&#x4cc;" horiz-adv-x="535" 
d="M325 -120v165h80v160q-20 -11 -41 -20q-49 -20 -109 -20q-83 0 -131.5 48t-48.5 127v140h45v-140q0 -60 36 -95t99 -35q55 0 109 22q27 13 41 23v225h45v-480h-80v-120h-45z" />
    <glyph glyph-name="uni04CD" unicode="&#x4cd;" horiz-adv-x="925" 
d="M110 0v700h40l310 -415l310 415h40v-650h105l-100 -200h-40l60 150h-75v605l-300 -400l-300 400v-605h-50z" />
    <glyph glyph-name="uni04CE" unicode="&#x4ce;" horiz-adv-x="650" 
d="M85 0v480h35l205 -270l205 270h35v-435h90l-80 -165h-40l45 120h-60v390l-195 -250l-195 250v-390h-45z" />
    <glyph glyph-name="uni04CF" unicode="&#x4cf;" horiz-adv-x="225" 
d="M90 0v700h45v-700h-45z" />
    <glyph glyph-name="uni04D0" unicode="&#x4d0;" horiz-adv-x="670" 
d="M20 0l290 700h50l290 -700h-55l-85 205h-350l-85 -205h-55zM180 255h310l-155 375zM205 925h40q0 -42 24 -66t66 -24t66 24t24 66h40q0 -57 -36.5 -93.5t-93.5 -36.5t-93.5 36.5t-36.5 93.5z" />
    <glyph glyph-name="uni04D1" unicode="&#x4d1;" horiz-adv-x="505" 
d="M130 695h40q0 -42 24 -66t66 -24t66 24t24 66h40q0 -57 -36.5 -93.5t-93.5 -36.5t-93.5 36.5t-36.5 93.5zM380 0v85q-18 -29 -41 -48q-55 -47 -134 -47q-70 0 -115 40.5t-45 94.5q0 57 38.5 95.5t106.5 49.5l190 30q0 67 -37 106t-98 39q-55 0 -104 -35q-23 -18 -36 -35
l-30 30q17 23 44 42q59 43 126 43q79 0 129.5 -52.5t50.5 -137.5v-300h-45zM380 210v45l-180 -30q-110 -17 -110 -100q0 -36 32.5 -63t82.5 -27q75 0 125 50t50 125z" />
    <glyph glyph-name="uni04D2" unicode="&#x4d2;" horiz-adv-x="670" 
d="M215 860q0 15 10 25t25 10t25 -10t10 -25t-10 -25t-25 -10t-25 10t-10 25zM390 860q0 15 10 25t25 10t25 -10t10 -25t-10 -25t-25 -10t-25 10t-10 25zM20 0l290 700h50l290 -700h-55l-85 205h-350l-85 -205h-55zM180 255h310l-155 375z" />
    <glyph glyph-name="uni04D3" unicode="&#x4d3;" horiz-adv-x="505" 
d="M140 630q0 15 10 25t25 10t25 -10t10 -25t-10 -25t-25 -10t-25 10t-10 25zM315 630q0 15 10 25t25 10t25 -10t10 -25t-10 -25t-25 -10t-25 10t-10 25zM380 0v85q-18 -29 -41 -48q-55 -47 -134 -47q-70 0 -115 40.5t-45 94.5q0 57 38.5 95.5t106.5 49.5l190 30
q0 67 -37 106t-98 39q-55 0 -104 -35q-23 -18 -36 -35l-30 30q17 23 44 42q59 43 126 43q79 0 129.5 -52.5t50.5 -137.5v-300h-45zM380 210v45l-180 -30q-110 -17 -110 -100q0 -36 32.5 -63t82.5 -27q75 0 125 50t50 125z" />
    <glyph glyph-name="uni04D6" unicode="&#x4d6;" horiz-adv-x="630" 
d="M220 925h45q0 -38 23.5 -61.5t61.5 -23.5t61.5 23.5t23.5 61.5h45q0 -57 -36.5 -93.5t-93.5 -36.5t-93.5 36.5t-36.5 93.5zM110 0v700h470v-50h-420v-260h340v-50h-340v-290h430v-50h-480z" />
    <glyph glyph-name="uni04D7" unicode="&#x4d7;" horiz-adv-x="550" 
d="M150 695h40q0 -42 24 -66t66 -24t66 24t24 66h40q0 -57 -36.5 -93.5t-93.5 -36.5t-93.5 36.5t-36.5 93.5zM440 120l35 -30q-18 -26 -48 -50q-64 -50 -142 -50q-95 0 -165 73t-70 177q0 107 67.5 178.5t162.5 71.5q92 0 156 -70t64 -180v-20h-405q8 -79 62 -132t128 -53
q63 0 117 42q24 19 38 43zM95 265h360q-8 83 -55.5 131.5t-119.5 48.5q-71 0 -126 -54t-59 -126z" />
    <glyph glyph-name="uni04D8" unicode="&#x4d8;" horiz-adv-x="775" 
d="M55 350h610q0 139 -83.5 224.5t-206.5 85.5q-99 0 -176 -53q-30 -20 -59 -52l-35 30q29 36 69 62q96 63 201 63q147 0 243.5 -103t96.5 -257q0 -156 -96.5 -258t-233.5 -102q-138 0 -234 102t-96 258zM660 300h-550q12 -114 88 -187t187 -73t187 73t88 187z" />
    <glyph glyph-name="uni04D9" unicode="&#x4d9;" horiz-adv-x="550" 
d="M50 240v20h405q-8 79 -62 132t-128 53q-62 0 -117 -43q-23 -19 -38 -42l-35 30q18 26 48 50q64 50 142 50q95 0 165 -73t70 -177q0 -107 -67.5 -178.5t-162.5 -71.5q-92 0 -156 70t-64 180zM455 215h-360q8 -83 55.5 -131.5t119.5 -48.5q71 0 126 54t59 126z" />
    <glyph glyph-name="uni04DA" unicode="&#x4da;" horiz-adv-x="775" 
d="M55 350h610q0 139 -83.5 224.5t-206.5 85.5q-99 0 -176 -53q-30 -20 -59 -52l-35 30q29 36 69 62q96 63 201 63q147 0 243.5 -103t96.5 -257q0 -156 -96.5 -258t-233.5 -102q-138 0 -234 102t-96 258zM660 300h-550q12 -114 88 -187t187 -73t187 73t88 187zM275 860
q0 15 10 25t25 10t25 -10t10 -25t-10 -25t-25 -10t-25 10t-10 25zM450 860q0 15 10 25t25 10t25 -10t10 -25t-10 -25t-25 -10t-25 10t-10 25z" />
    <glyph glyph-name="uni04DB" unicode="&#x4db;" horiz-adv-x="550" 
d="M50 240v20h405q-8 79 -62 132t-128 53q-62 0 -117 -43q-23 -19 -38 -42l-35 30q18 26 48 50q64 50 142 50q95 0 165 -73t70 -177q0 -107 -67.5 -178.5t-162.5 -71.5q-92 0 -156 70t-64 180zM455 215h-360q8 -83 55.5 -131.5t119.5 -48.5q71 0 126 54t59 126zM160 635
q0 15 10 25t25 10t25 -10t10 -25t-10 -25t-25 -10t-25 10t-10 25zM335 635q0 15 10 25t25 10t25 -10t10 -25t-10 -25t-25 -10t-25 10t-10 25z" />
    <glyph glyph-name="uni04DC" unicode="&#x4dc;" horiz-adv-x="910" 
d="M0 0l290 410l-265 290h65l340 -375v375h50v-375l340 375h65l-265 -290l290 -410h-60l-265 373l-105 -118v-255h-50v255l-105 118l-265 -373h-60zM335 860q0 15 10 25t25 10t25 -10t10 -25t-10 -25t-25 -10t-25 10t-10 25zM510 860q0 15 10 25t25 10t25 -10t10 -25
t-10 -25t-25 -10t-25 10t-10 25z" />
    <glyph glyph-name="uni04DD" unicode="&#x4dd;" horiz-adv-x="695" 
d="M5 0l205 285l-180 195h60l235 -255v255h45v-255l235 255h60l-180 -195l205 -285h-55l-182 252l-83 -92v-160h-45v160l-83 92l-182 -252h-55zM225 630q0 15 10 25t25 10t25 -10t10 -25t-10 -25t-25 -10t-25 10t-10 25zM400 630q0 15 10 25t25 10t25 -10t10 -25t-10 -25
t-25 -10t-25 10t-10 25z" />
    <glyph glyph-name="uni04DE" unicode="&#x4de;" horiz-adv-x="570" 
d="M35 95l35 35q21 -27 47 -45q63 -45 148 -45q87 0 138.5 43.5t51.5 106.5q0 66 -51.5 110.5t-138.5 44.5h-85v50h85q79 0 124.5 37.5t45.5 92.5q0 59 -45 97t-125 38q-73 0 -131 -40q-28 -19 -44 -40l-35 35q24 27 54 47q72 48 156 48q98 0 159 -54t61 -131t-65 -124
q-31 -21 -65 -31q40 -10 75 -34q75 -55 75 -146q0 -82 -67 -141t-173 -59q-98 0 -173 52q-32 22 -57 53zM158 860q0 15 10 25t25 10t25 -10t10 -25t-10 -25t-25 -10t-25 10t-10 25zM333 860q0 15 10 25t25 10t25 -10t10 -25t-10 -25t-25 -10t-25 10t-10 25z" />
    <glyph glyph-name="uni04DF" unicode="&#x4df;" horiz-adv-x="425" 
d="M30 75l30 30q16 -21 36 -35q44 -35 104 -35q61 0 95.5 27.5t34.5 67.5t-34.5 67.5t-95.5 27.5h-50v45h50q52 0 81 25t29 65q0 36 -29.5 60.5t-80.5 24.5t-93 -30q-19 -14 -32 -30l-35 35q15 17 42 35q56 35 118 35q69 0 112 -38t43 -92q0 -56 -43 -89q-18 -13 -42 -21
q29 -8 52 -23q53 -37 53 -97q0 -58 -48 -99t-127 -41q-72 0 -128 42q-26 18 -42 43zM90 635q0 15 10 25t25 10t25 -10t10 -25t-10 -25t-25 -10t-25 10t-10 25zM265 635q0 15 10 25t25 10t25 -10t10 -25t-10 -25t-25 -10t-25 10t-10 25z" />
    <glyph glyph-name="uni04E0" unicode="&#x4e0;" horiz-adv-x="560" 
d="M30 95l35 35q21 -26 51 -45q68 -45 149 -45q92 0 141 43t49 117t-49 117t-141 43h-115v40l260 250h-345v50h410v-50l-250 -240h40q110 0 175 -59t65 -151t-65 -151t-175 -59q-101 0 -176 52q-31 20 -59 53z" />
    <glyph glyph-name="uni04E1" unicode="&#x4e1;" horiz-adv-x="470" 
d="M10 -120l35 35q16 -21 44 -40q58 -40 126 -40q77 0 123.5 43t46.5 112t-47 112t-128 43h-90v35l225 255h-305v45h365v-45l-220 -245h25q100 0 160 -56t60 -144q0 -87 -59.5 -143.5t-155.5 -56.5q-85 0 -153 45q-29 19 -52 45z" />
    <glyph glyph-name="uni04E2" unicode="&#x4e2;" horiz-adv-x="775" 
d="M110 0v700h50v-610l465 610h40v-700h-50v610l-465 -610h-40zM250 840v40h270v-40h-270z" />
    <glyph glyph-name="uni04E3" unicode="&#x4e3;" horiz-adv-x="575" 
d="M85 0v480h45v-405l320 405h40v-480h-45v405l-320 -405h-40zM150 620v40h270v-40h-270z" />
    <glyph glyph-name="uni04E4" unicode="&#x4e4;" horiz-adv-x="775" 
d="M110 0v700h50v-610l465 610h40v-700h-50v610l-465 -610h-40zM265 860q0 15 10 25t25 10t25 -10t10 -25t-10 -25t-25 -10t-25 10t-10 25zM440 860q0 15 10 25t25 10t25 -10t10 -25t-10 -25t-25 -10t-25 10t-10 25z" />
    <glyph glyph-name="uni04E5" unicode="&#x4e5;" horiz-adv-x="575" 
d="M85 0v480h45v-405l320 405h40v-480h-45v405l-320 -405h-40zM165 630q0 15 10 25t25 10t25 -10t10 -25t-10 -25t-25 -10t-25 10t-10 25zM340 630q0 15 10 25t25 10t25 -10t10 -25t-10 -25t-25 -10t-25 10t-10 25z" />
    <glyph glyph-name="uni04E6" unicode="&#x4e6;" horiz-adv-x="830" 
d="M295 860q0 15 10 25t25 10t25 -10t10 -25t-10 -25t-25 -10t-25 10t-10 25zM470 860q0 15 10 25t25 10t25 -10t10 -25t-10 -25t-25 -10t-25 10t-10 25zM415 -10q-147 0 -251 105t-104 255t104 255t251 105t251 -105t104 -255t-104 -255t-251 -105zM415 40
q128 0 216.5 89.5t88.5 220.5t-88.5 220.5t-216.5 89.5t-216.5 -89.5t-88.5 -220.5t88.5 -220.5t216.5 -89.5z" />
    <glyph glyph-name="uni04E7" unicode="&#x4e7;" 
d="M170 630q0 15 10 25t25 10t25 -10t10 -25t-10 -25t-25 -10t-25 10t-10 25zM345 630q0 15 10 25t25 10t25 -10t10 -25t-10 -25t-25 -10t-25 10t-10 25zM290 -10q-99 0 -169.5 73t-70.5 177t70.5 177t169.5 73t169.5 -73t70.5 -177t-70.5 -177t-169.5 -73zM290 35
q80 0 137.5 60t57.5 145t-57.5 145t-137.5 60t-137.5 -60t-57.5 -145t57.5 -145t137.5 -60z" />
    <glyph glyph-name="uni04E8" unicode="&#x4e8;" horiz-adv-x="830" 
d="M415 -10q-147 0 -251 105t-104 255t104 255t251 105t251 -105t104 -255t-104 -255t-251 -105zM719 330h-608q8 -124 94.5 -207t209.5 -83t209.5 83t94.5 207zM111 375h608q-10 122 -96 203.5t-208 81.5q-121 0 -208.5 -81.5t-95.5 -203.5z" />
    <glyph glyph-name="uni04E9" unicode="&#x4e9;" 
d="M290 -10q-99 0 -169.5 73t-70.5 177t70.5 177t169.5 73t169.5 -73t70.5 -177t-70.5 -177t-169.5 -73zM484 220h-388q6 -78 62.5 -131.5t131.5 -53.5t130.5 53t63.5 132zM96 265h387q-10 78 -65 129t-128 51t-129.5 -51.5t-64.5 -128.5z" />
    <glyph glyph-name="uni04EA" unicode="&#x4ea;" horiz-adv-x="830" 
d="M415 -10q-147 0 -251 105t-104 255t104 255t251 105t251 -105t104 -255t-104 -255t-251 -105zM719 330h-608q8 -124 94.5 -207t209.5 -83t209.5 83t94.5 207zM111 375h608q-10 122 -96 203.5t-208 81.5q-121 0 -208.5 -81.5t-95.5 -203.5zM295 860q0 15 10 25t25 10
t25 -10t10 -25t-10 -25t-25 -10t-25 10t-10 25zM470 860q0 15 10 25t25 10t25 -10t10 -25t-10 -25t-25 -10t-25 10t-10 25z" />
    <glyph glyph-name="uni04EB" unicode="&#x4eb;" 
d="M290 -10q-99 0 -169.5 73t-70.5 177t70.5 177t169.5 73t169.5 -73t70.5 -177t-70.5 -177t-169.5 -73zM484 220h-388q6 -78 62.5 -131.5t131.5 -53.5t130.5 53t63.5 132zM96 265h387q-10 78 -65 129t-128 51t-129.5 -51.5t-64.5 -128.5zM170 635q0 15 10 25t25 10t25 -10
t10 -25t-10 -25t-25 -10t-25 10t-10 25zM345 635q0 15 10 25t25 10t25 -10t10 -25t-10 -25t-25 -10t-25 10t-10 25z" />
    <glyph glyph-name="uni04EC" unicode="&#x4ec;" horiz-adv-x="740" 
d="M35 140l35 30q23 -34 64 -65q85 -65 191 -65q122 0 209.5 84.5t95.5 205.5h-385v50h385q-12 118 -97.5 199t-207.5 81q-105 0 -188 -65q-36 -29 -62 -65l-35 30q28 41 71 75q95 75 214 75q147 0 251 -105t104 -255t-104 -255t-251 -105q-122 0 -216 75q-41 31 -74 75z
M240 860q0 15 10 25t25 10t25 -10t10 -25t-10 -25t-25 -10t-25 10t-10 25zM415 860q0 15 10 25t25 10t25 -10t10 -25t-10 -25t-25 -10t-25 10t-10 25z" />
    <glyph glyph-name="uni04ED" unicode="&#x4ed;" horiz-adv-x="505" 
d="M30 90l35 30q14 -24 38 -43q54 -42 117 -42q72 0 129 56t61 134h-255v45h255q-12 73 -66 124t-124 51q-62 0 -117 -43q-23 -19 -38 -42l-35 30q18 26 48 50q64 50 142 50q95 0 165 -73t70 -177t-70 -177t-165 -73q-78 0 -142 50q-30 24 -48 50zM115 630q0 15 10 25t25 10
t25 -10t10 -25t-10 -25t-25 -10t-25 10t-10 25zM290 630q0 15 10 25t25 10t25 -10t10 -25t-10 -25t-25 -10t-25 10t-10 25z" />
    <glyph glyph-name="uni04EE" unicode="&#x4ee;" horiz-adv-x="600" 
d="M170 840v40h270v-40h-270zM70 0v50q10 -4 16 -5q18 -5 39 -5q47 0 77.5 24.5t57.5 80.5l30 60l-265 495h55l235 -440l210 440h55l-265 -555q-40 -82 -82.5 -118.5t-107.5 -36.5q-21 0 -39 5q-6 1 -16 5z" />
    <glyph glyph-name="uni04EF" unicode="&#x4ef;" horiz-adv-x="480" 
d="M105 620v40h270v-40h-270zM45 -200v45q8 -4 13 -5q15 -5 32 -5q33 0 54 18t36 57l35 90l-195 480h50l170 -420l170 420h50l-230 -570q-27 -66 -57.5 -93t-82.5 -27q-17 0 -32 5q-5 1 -13 5z" />
    <glyph glyph-name="uni04F0" unicode="&#x4f0;" horiz-adv-x="600" 
d="M70 0v50q10 -4 16 -5q18 -5 39 -5q47 0 77.5 24.5t57.5 80.5l30 60l-265 495h55l235 -440l210 440h55l-265 -555q-40 -82 -82.5 -118.5t-107.5 -36.5q-21 0 -39 5q-6 1 -16 5zM180 860q0 15 10 25t25 10t25 -10t10 -25t-10 -25t-25 -10t-25 10t-10 25zM355 860
q0 15 10 25t25 10t25 -10t10 -25t-10 -25t-25 -10t-25 10t-10 25z" />
    <glyph glyph-name="uni04F1" unicode="&#x4f1;" horiz-adv-x="480" 
d="M120 630q0 15 10 25t25 10t25 -10t10 -25t-10 -25t-25 -10t-25 10t-10 25zM295 630q0 15 10 25t25 10t25 -10t10 -25t-10 -25t-25 -10t-25 10t-10 25zM45 -200v45q8 -4 13 -5q15 -5 32 -5q33 0 54 18t36 57l35 90l-195 480h50l170 -420l170 420h50l-230 -570
q-27 -66 -57.5 -93t-82.5 -27q-17 0 -32 5q-5 1 -13 5z" />
    <glyph glyph-name="uni04F2" unicode="&#x4f2;" horiz-adv-x="600" 
d="M70 0v50q10 -4 16 -5q18 -5 39 -5q47 0 77.5 24.5t57.5 80.5l30 60l-265 495h55l235 -440l210 440h55l-265 -555q-40 -82 -82.5 -118.5t-107.5 -36.5q-21 0 -39 5q-6 1 -16 5zM210 795l75 130h55l-90 -130h-40zM355 795l75 130h55l-90 -130h-40z" />
    <glyph glyph-name="uni04F3" unicode="&#x4f3;" horiz-adv-x="480" 
d="M140 565l75 130h55l-90 -130h-40zM285 565l75 130h55l-90 -130h-40zM45 -200v45q8 -4 13 -5q15 -5 32 -5q33 0 54 18t36 57l35 90l-195 480h50l170 -420l170 420h50l-230 -570q-27 -66 -57.5 -93t-82.5 -27q-17 0 -32 5q-5 1 -13 5z" />
    <glyph glyph-name="uni04F4" unicode="&#x4f4;" horiz-adv-x="700" 
d="M540 0v320q-26 -21 -55 -35q-64 -35 -145 -35q-109 0 -174.5 65.5t-65.5 174.5v210h50v-210q0 -91 49.5 -140.5t140.5 -49.5q75 0 145 40q32 18 55 40v320h50v-700h-50zM225 860q0 15 10 25t25 10t25 -10t10 -25t-10 -25t-25 -10t-25 10t-10 25zM400 860q0 15 10 25
t25 10t25 -10t10 -25t-10 -25t-25 -10t-25 10t-10 25z" />
    <glyph glyph-name="uni04F5" unicode="&#x4f5;" horiz-adv-x="535" 
d="M405 0v205q-20 -11 -41 -20q-49 -20 -109 -20q-83 0 -131.5 48t-48.5 127v140h45v-140q0 -60 36 -95t99 -35q55 0 109 22q27 13 41 23v225h45v-480h-45zM140 630q0 15 10 25t25 10t25 -10t10 -25t-10 -25t-25 -10t-25 10t-10 25zM315 630q0 15 10 25t25 10t25 -10t10 -25
t-10 -25t-25 -10t-25 10t-10 25z" />
    <glyph glyph-name="uni04F6" unicode="&#x4f6;" horiz-adv-x="555" 
d="M200 -150v150h-90v700h425v-50h-375v-600h90v-200h-50z" />
    <glyph glyph-name="uni04F7" unicode="&#x4f7;" horiz-adv-x="410" 
d="M165 -120v120h-80v480h305v-45h-260v-390h80v-165h-45z" />
    <glyph glyph-name="uni04F8" unicode="&#x4f8;" horiz-adv-x="865" 
d="M110 0v700h50v-270h190q97 0 161 -62t64 -153t-64 -153t-161 -62h-240zM705 0v700h50v-700h-50zM160 50h190q78 0 126.5 46.5t48.5 118.5t-48.5 118.5t-126.5 46.5h-190v-330zM310 860q0 15 10 25t25 10t25 -10t10 -25t-10 -25t-25 -10t-25 10t-10 25zM485 860
q0 15 10 25t25 10t25 -10t10 -25t-10 -25t-25 -10t-25 10t-10 25z" />
    <glyph glyph-name="uni04F9" unicode="&#x4f9;" horiz-adv-x="670" 
d="M85 0v480h45v-170h130q77 0 123.5 -43t46.5 -112t-46.5 -112t-123.5 -43h-175zM540 0v480h45v-480h-45zM130 45h130q59 0 92 30t33 80t-33 80t-92 30h-130v-220zM215 630q0 15 10 25t25 10t25 -10t10 -25t-10 -25t-25 -10t-25 10t-10 25zM390 630q0 15 10 25t25 10
t25 -10t10 -25t-10 -25t-25 -10t-25 10t-10 25z" />
    <glyph glyph-name="uni04FA" unicode="&#x4fa;" horiz-adv-x="570" 
d="M110 -200v50q7 -4 14 -5q17 -5 36 -5q55 0 55 70v90h-90v330h-105v50h105v320h425v-50h-375v-270h215v-50h-215v-280h90v-140q0 -56 -29.5 -88t-75.5 -32q-19 0 -36 5q-7 1 -14 5z" />
    <glyph glyph-name="uni04FB" unicode="&#x4fb;" horiz-adv-x="420" 
d="M85 -200v45q6 -4 12 -5q13 -5 28 -5q27 0 38.5 13.5t11.5 46.5v105h-80v210h-85v45h85v225h305v-45h-260v-180h150v-45h-150v-165h80v-151q0 -104 -90 -104q-17 0 -32 5q-5 1 -13 5z" />
    <glyph glyph-name="uni04FC" unicode="&#x4fc;" horiz-adv-x="610" 
d="M15 0l260 365l-240 335h60l210 -295l210 295h60l-240 -335l255 -360q35 -49 35 -95q0 -54 -34 -87t-91 -33q-26 0 -48 8q-13 6 -17 8v49l5 -2.5t7 -3t7 -2.5q21 -7 46 -7q75 0 75 70q0 21 -11.5 43t-43.5 67l-215 305l-230 -325h-60z" />
    <glyph glyph-name="uni04FD" unicode="&#x4fd;" horiz-adv-x="440" 
d="M10 0l180 250l-165 230h55l140 -195l140 195h55l-165 -230l150 -210q36 -50 50.5 -79.5t14.5 -60.5q0 -49 -30.5 -79.5t-79.5 -30.5q-24 0 -39 7l-16 8v45l16 -8q15 -7 39 -7q30 0 47.5 17.5t17.5 47.5q0 24 -15 52t-55 83l-130 180l-155 -215h-55z" />
    <glyph glyph-name="uni04FE" unicode="&#x4fe;" horiz-adv-x="610" 
d="M15 0l242 340h-157v45h160l-225 315h60l210 -295l210 295h60l-226 -315h161v-45h-157l242 -340h-60l-230 325l-230 -325h-60z" />
    <glyph glyph-name="uni04FF" unicode="&#x4ff;" horiz-adv-x="440" 
d="M10 0l162 225h-92v45h95l-150 210h55l140 -195l140 195h55l-151 -210h96v-45h-92l162 -225h-55l-155 215l-155 -215h-55z" />
    <glyph glyph-name="uni0510" unicode="&#x510;" horiz-adv-x="565" 
d="M500 130l35 -35q-25 -31 -57 -53q-75 -52 -173 -52q-106 0 -173 59t-67 141q0 92 75 144q33 24 75 36q-33 9 -65 31q-65 45 -65 124q0 77 61 131t159 54q84 0 156 -48q30 -20 54 -47l-35 -35q-16 21 -44 40q-58 40 -131 40q-80 0 -125 -38t-45 -97q0 -55 45.5 -92.5
t124.5 -37.5h80v-50h-80q-87 0 -138.5 -44.5t-51.5 -110.5q0 -63 51.5 -106.5t138.5 -43.5q85 0 148 45q26 18 47 45z" />
    <glyph glyph-name="uni0511" unicode="&#x511;" horiz-adv-x="425" 
d="M365 95l30 -30q-17 -22 -42 -38q-55 -37 -128 -37q-79 0 -127 41t-48 99q0 60 52 97q23 16 53 23q-25 7 -43 21q-42 32 -42 89q0 54 43 92t112 38q61 0 115 -30q25 -15 40 -30l-35 -35q-14 16 -30 25q-42 25 -90 25q-51 0 -80.5 -24.5t-29.5 -60.5q0 -40 29 -65t81 -25
h55v-45h-55q-61 0 -95.5 -27.5t-34.5 -67.5t34.5 -67.5t95.5 -27.5q56 0 104 30q21 13 36 30z" />
    <glyph glyph-name="uni0512" unicode="&#x512;" horiz-adv-x="730" 
d="M-5 2v48q9 -4 18 -5q20 -5 37 -5q29 0 50.5 17t42 62.5t31.5 139t11 231.5v210h435v-770q0 -140 -120 -140q-26 0 -48 8q-13 6 -17 8v49q4 -2 17 -8q19 -7 43 -7q39 0 57 21t18 69v720h-335v-160q0 -152 -13.5 -254.5t-39.5 -154t-56 -71.5t-71 -20q-19 0 -41 6z" />
    <glyph glyph-name="uni0513" unicode="&#x513;" horiz-adv-x="555" 
d="M0 0v43q1 0 3 -1t4.5 -2t4.5 -1q9 -4 28 -4q28 0 47.5 20.5t33.5 91t14 193.5v140h335v-575q0 -56 -28 -85.5t-77 -29.5q-24 0 -43 7q-13 5 -17 8v45l16 -8q15 -7 39 -7q30 0 47.5 18.5t17.5 51.5v530h-245v-95q0 -105 -10 -176.5t-29.5 -108t-42 -51t-53.5 -14.5
q-17 0 -32 5q-5 1 -13 5z" />
    <glyph glyph-name="Wgrave" unicode="&#x1e80;" horiz-adv-x="1000" 
d="M250 0l-225 700h55l195 -620l200 620h50l200 -620l195 620h55l-225 -700h-50l-200 620l-200 -620h-50zM480 795l-90 130h55l75 -130h-40z" />
    <glyph glyph-name="wgrave" unicode="&#x1e81;" horiz-adv-x="710" 
d="M180 0l-160 480h50l135 -405l130 405h40l130 -410l135 410h50l-160 -480h-45l-130 405l-130 -405h-45zM335 565l-90 130h55l75 -130h-40z" />
    <glyph glyph-name="Wacute" unicode="&#x1e82;" horiz-adv-x="1000" 
d="M250 0l-225 700h55l195 -620l200 620h50l200 -620l195 620h55l-225 -700h-50l-200 620l-200 -620h-50zM480 795l75 130h55l-90 -130h-40z" />
    <glyph glyph-name="wacute" unicode="&#x1e83;" horiz-adv-x="710" 
d="M180 0l-160 480h50l135 -405l130 405h40l130 -410l135 410h50l-160 -480h-45l-130 405l-130 -405h-45zM335 565l75 130h55l-90 -130h-40z" />
    <glyph glyph-name="Wdieresis" unicode="&#x1e84;" horiz-adv-x="1000" 
d="M250 0l-225 700h55l195 -620l200 620h50l200 -620l195 620h55l-225 -700h-50l-200 620l-200 -620h-50zM378 860q0 15 10 25t25 10t25 -10t10 -25t-10 -25t-25 -10t-25 10t-10 25zM553 860q0 15 10 25t25 10t25 -10t10 -25t-10 -25t-25 -10t-25 10t-10 25z" />
    <glyph glyph-name="wdieresis" unicode="&#x1e85;" horiz-adv-x="710" 
d="M180 0l-160 480h50l135 -405l130 405h40l130 -410l135 410h50l-160 -480h-45l-130 405l-130 -405h-45zM235 629q0 15 10 25t25 10t25 -10t10 -25t-10 -25t-25 -10t-25 10t-10 25zM410 629q0 15 10 25t25 10t25 -10t10 -25t-10 -25t-25 -10t-25 10t-10 25z" />
    <glyph glyph-name="uni1E9E" unicode="&#x1e9e;" horiz-adv-x="690" 
d="M100 0v490q0 93 56.5 151.5t143.5 58.5h290v-50l-205 -240h20q100 0 162.5 -58.5t62.5 -146.5t-62.5 -146.5t-162.5 -58.5h-80v50h80q82 0 128.5 42.5t46.5 112.5t-46.5 112.5t-128.5 42.5h-80v50l205 240h-230q-69 0 -109.5 -43t-40.5 -117v-490h-50z" />
    <glyph glyph-name="Ygrave" unicode="&#x1ef2;" horiz-adv-x="600" 
d="M275 0v245l-260 455h60l225 -400l225 400h60l-260 -455v-245h-50zM280 795l-90 130h55l75 -130h-40z" />
    <glyph glyph-name="ygrave" unicode="&#x1ef3;" horiz-adv-x="480" 
d="M45 -200v45q8 -4 13 -5q15 -5 32 -5q33 0 54 18t36 57l35 90l-195 480h50l170 -420l170 420h50l-230 -570q-27 -66 -57.5 -93t-82.5 -27q-17 0 -32 5q-5 1 -13 5zM220 565l-90 130h55l75 -130h-40z" />
    <glyph glyph-name="endash" unicode="&#x2013;" horiz-adv-x="465" 
d="M40 270v45h385v-45h-385z" />
    <glyph glyph-name="emdash" unicode="&#x2014;" horiz-adv-x="705" 
d="M40 270v45h625v-45h-625z" />
    <glyph glyph-name="quoteleft" unicode="&#x2018;" horiz-adv-x="195" 
d="M30 555l105 165l30 -15l-85 -180z" />
    <glyph glyph-name="quoteright" unicode="&#x2019;" horiz-adv-x="195" 
d="M30 540l85 180l50 -30l-105 -165z" />
    <glyph glyph-name="quotesinglbase" unicode="&#x201a;" horiz-adv-x="200" 
d="M0 -110l85 180l50 -30l-105 -165z" />
    <glyph glyph-name="quotedblleft" unicode="&#x201c;" horiz-adv-x="335" 
d="M30 555l105 165l30 -15l-85 -180zM170 555l105 165l30 -15l-85 -180z" />
    <glyph glyph-name="quotedblright" unicode="&#x201d;" horiz-adv-x="335" 
d="M30 540l85 180l50 -30l-105 -165zM170 540l85 180l50 -30l-105 -165z" />
    <glyph glyph-name="quotedblbase" unicode="&#x201e;" horiz-adv-x="340" 
d="M0 -110l85 180l50 -30l-105 -165zM140 -110l85 180l50 -30l-105 -165z" />
    <glyph glyph-name="dagger" unicode="&#x2020;" horiz-adv-x="415" 
d="M185 200v315h-125v45h125v140h45v-140h125v-45h-125v-315h-45z" />
    <glyph glyph-name="daggerdbl" unicode="&#x2021;" horiz-adv-x="415" 
d="M185 200v140h-125v45h125v130h-125v45h125v140h45v-140h125v-45h-125v-130h125v-45h-125v-140h-45z" />
    <glyph glyph-name="bullet" unicode="&#x2022;" horiz-adv-x="400" 
d="M280 240q0 -34 -23 -57t-57 -23t-57 23t-23 57q0 35 23 57.5t57 22.5t57 -23t23 -57z" />
    <glyph glyph-name="ellipsis" unicode="&#x2026;" horiz-adv-x="620" 
d="M65 30q0 15 10 25t25 10t25 -10t10 -25t-10 -25t-25 -10t-25 10t-10 25zM275 30q0 15 10 25t25 10t25 -10t10 -25t-10 -25t-25 -10t-25 10t-10 25zM485 30q0 15 10 25t25 10t25 -10t10 -25t-10 -25t-25 -10t-25 10t-10 25z" />
    <glyph glyph-name="perthousand" unicode="&#x2030;" horiz-adv-x="1110" 
d="M195 400q-64 0 -107 43.5t-43 111.5t43 111.5t107 43.5t107 -43.5t43 -111.5t-43 -111.5t-107 -43.5zM135 0l440 700h50l-440 -700h-50zM195 445q45 0 75 31t30 79t-30 79t-75 31t-75 -31t-30 -79t30 -79t75 -31zM565 -10q-64 0 -107 43.5t-43 111.5t43 111.5t107 43.5
t107 -43.5t43 -111.5t-43 -111.5t-107 -43.5zM915 -10q-64 0 -107 43.5t-43 111.5t43 111.5t107 43.5t107 -43.5t43 -111.5t-43 -111.5t-107 -43.5zM565 35q45 0 75 31t30 79t-30 79t-75 31t-75 -31t-30 -79t30 -79t75 -31zM915 35q45 0 75 31t30 79t-30 79t-75 31t-75 -31
t-30 -79t30 -79t75 -31z" />
    <glyph glyph-name="guilsinglleft" unicode="&#x2039;" horiz-adv-x="270" 
d="M165 80l-115 160l115 160h55l-115 -160l115 -160h-55z" />
    <glyph glyph-name="guilsinglright" unicode="&#x203a;" horiz-adv-x="270" 
d="M50 80l115 160l-115 160h55l115 -160l-115 -160h-55z" />
    <glyph glyph-name="uni203D" unicode="&#x203d;" horiz-adv-x="520" 
d="M225 160v495q-67 -10 -104 -63q-18 -26 -26 -52l-45 15q13 41 41 77q62 78 169 78q92 0 151 -54t59 -131q0 -51 -20 -89t-49 -61.5t-57.5 -47t-48.5 -59t-20 -83.5v-25h-50zM275 660v-335q16 18 45.5 44t49 43.5t35 47.5t15.5 65q0 58 -39 94.5t-106 40.5zM215 30
q0 15 10 25t25 10t25 -10t10 -25t-10 -25t-25 -10t-25 10t-10 25z" />
    <glyph glyph-name="fraction" unicode="&#x2044;" horiz-adv-x="140" 
d="M-170 0l435 700h45l-435 -700h-45z" />
    <glyph glyph-name="uni2070" unicode="&#x2070;" horiz-adv-x="350" 
d="M175 445q-59 0 -99.5 48.5t-40.5 131.5t40.5 131.5t99.5 48.5t99.5 -48.5t40.5 -131.5t-40.5 -131.5t-99.5 -48.5zM175 485q41 0 70.5 37.5t29.5 102.5t-29.5 102.5t-70.5 37.5t-70.5 -37.5t-29.5 -102.5t29.5 -102.5t70.5 -37.5z" />
    <glyph glyph-name="uni2074" unicode="&#x2074;" horiz-adv-x="285" 
d="M10 535v40l160 225h50v-225h45v-40h-45v-85h-40v85h-170zM55 575h125v175z" />
    <glyph glyph-name="uni2075" unicode="&#x2075;" horiz-adv-x="280" 
d="M10 500l30 30q7 -11 23 -23q32 -22 72 -22q41 0 63 19.5t22 50.5q0 34 -21 54.5t-59 20.5q-34 0 -54 -13q-10 -4 -16 -12h-35l15 195h190v-40h-155l-10 -110q7 6 17 10q22 10 48 10q53 0 86.5 -33t33.5 -82q0 -47 -35 -78.5t-90 -31.5q-56 0 -94 27q-18 12 -31 28z" />
    <glyph glyph-name="uni2076" unicode="&#x2076;" horiz-adv-x="290" 
d="M50 650l100 150h45l-80 -120l9 2l21 3q52 0 88.5 -35.5t36.5 -84.5t-36.5 -84.5t-88.5 -35.5t-88.5 35.5t-36.5 84.5q0 29 15 59q7 15 15 26zM60 565q0 -34 23.5 -57t61.5 -23t61.5 23t23.5 57t-23.5 57t-61.5 23t-61.5 -23t-23.5 -57z" />
    <glyph glyph-name="uni2077" unicode="&#x2077;" horiz-adv-x="265" 
d="M75 450l135 310h-185v40h225v-40l-135 -310h-40z" />
    <glyph glyph-name="uni2078" unicode="&#x2078;" horiz-adv-x="280" 
d="M25 550q0 41 30 67q13 11 30 18q-14 6 -25 17q-25 23 -25 58q0 38 30.5 66.5t74.5 28.5t74.5 -28.5t30.5 -66.5q0 -33 -25 -58q-11 -11 -25 -17q17 -7 30 -18q30 -26 30 -67q0 -42 -33.5 -73.5t-81.5 -31.5t-81.5 31.5t-33.5 73.5zM75 710q0 -24 18 -39.5t47 -15.5
t47 15.5t18 39.5t-18 39.5t-47 15.5t-47 -15.5t-18 -39.5zM65 550q0 -27 21 -46t54 -19t54 19t21 46t-21 46t-54 19t-54 -19t-21 -46z" />
    <glyph glyph-name="uni2079" unicode="&#x2079;" horiz-adv-x="290" 
d="M95 450l80 120l-9 -3q-14 -2 -21 -2q-52 0 -88.5 35.5t-36.5 84.5t36.5 84.5t88.5 35.5t88.5 -35.5t36.5 -84.5q0 -25 -15 -59l-15 -26l-100 -150h-45zM60 685q0 -34 23.5 -57t61.5 -23t61.5 23t23.5 57t-23.5 57t-61.5 23t-61.5 -23t-23.5 -57z" />
    <glyph glyph-name="uni2080" unicode="&#x2080;" horiz-adv-x="350" 
d="M175 -105q-59 0 -99.5 48.5t-40.5 131.5t40.5 131.5t99.5 48.5t99.5 -48.5t40.5 -131.5t-40.5 -131.5t-99.5 -48.5zM175 -65q41 0 70.5 37.5t29.5 102.5t-29.5 102.5t-70.5 37.5t-70.5 -37.5t-29.5 -102.5t29.5 -102.5t70.5 -37.5z" />
    <glyph glyph-name="uni2081" unicode="&#x2081;" horiz-adv-x="220" 
d="M110 -100v290q-6 -9 -16 -15q-21 -15 -54 -15v35q33 0 56 27q13 15 19 28h35v-350h-40z" />
    <glyph glyph-name="uni2082" unicode="&#x2082;" horiz-adv-x="285" 
d="M68 -60h187v-40h-230q0 42 19.5 75t47.5 54.5t56 40t47.5 39.5t19.5 45t-20.5 42.5t-49.5 18.5q-39 0 -63 -30q-11 -15 -17 -30l-35 15q8 24 24 42q35 43 91 43q49 0 79.5 -30.5t30.5 -70.5q0 -39 -25 -69t-56 -47t-63.5 -43t-42.5 -55z" />
    <glyph glyph-name="uni2083" unicode="&#x2083;" horiz-adv-x="295" 
d="M20 -45l30 30q11 -14 25 -25q31 -25 70 -25q38 0 59 17.5t21 47.5q0 29 -20.5 47t-57.5 18h-47v40h45q65 0 65 55q0 24 -18.5 39.5t-51.5 15.5t-60 -23q-14 -14 -20 -22l-30 30q9 14 28 27q35 28 82 28q48 0 79 -28t31 -67q0 -37 -23 -60q-11 -11 -22 -15q15 -4 30 -16
q30 -26 30 -69t-34.5 -74t-85.5 -31t-93 30q-19 14 -32 30z" />
    <glyph glyph-name="uni2084" unicode="&#x2084;" horiz-adv-x="285" 
d="M10 -15v40l160 225h50v-225h45v-40h-45v-85h-40v85h-170zM55 25h125v175z" />
    <glyph glyph-name="uni2085" unicode="&#x2085;" horiz-adv-x="280" 
d="M10 -50l30 30q7 -11 23 -23q32 -22 72 -22q41 0 63 19.5t22 50.5q0 34 -21 54.5t-59 20.5q-34 0 -54 -13q-10 -4 -16 -12h-35l15 195h190v-40h-155l-10 -110q7 6 17 10q22 10 48 10q53 0 86.5 -33t33.5 -82q0 -47 -35 -78.5t-90 -31.5q-56 0 -94 27q-18 12 -31 28z" />
    <glyph glyph-name="uni2086" unicode="&#x2086;" horiz-adv-x="290" 
d="M50 100l100 150h45l-80 -120l9 2l21 3q52 0 88.5 -35.5t36.5 -84.5t-36.5 -84.5t-88.5 -35.5t-88.5 35.5t-36.5 84.5q0 29 15 59q7 15 15 26zM60 15q0 -34 23.5 -57t61.5 -23t61.5 23t23.5 57t-23.5 57t-61.5 23t-61.5 -23t-23.5 -57z" />
    <glyph glyph-name="uni2087" unicode="&#x2087;" horiz-adv-x="265" 
d="M75 -100l135 310h-185v40h225v-40l-135 -310h-40z" />
    <glyph glyph-name="uni2088" unicode="&#x2088;" horiz-adv-x="280" 
d="M25 0q0 41 30 67q13 11 30 18q-14 6 -25 17q-25 23 -25 58q0 38 30.5 66.5t74.5 28.5t74.5 -28.5t30.5 -66.5q0 -33 -25 -58q-11 -11 -25 -17q17 -7 30 -18q30 -26 30 -67q0 -42 -33.5 -73.5t-81.5 -31.5t-81.5 31.5t-33.5 73.5zM75 160q0 -24 18 -39.5t47 -15.5t47 15.5
t18 39.5t-18 39.5t-47 15.5t-47 -15.5t-18 -39.5zM65 0q0 -27 21 -46t54 -19t54 19t21 46t-21 46t-54 19t-54 -19t-21 -46z" />
    <glyph glyph-name="uni2089" unicode="&#x2089;" horiz-adv-x="290" 
d="M95 -100l80 120l-9 -3q-14 -2 -21 -2q-52 0 -88.5 35.5t-36.5 84.5t36.5 84.5t88.5 35.5t88.5 -35.5t36.5 -84.5q0 -25 -15 -59l-15 -26l-100 -150h-45zM60 135q0 -34 23.5 -57t61.5 -23t61.5 23t23.5 57t-23.5 57t-61.5 23t-61.5 -23t-23.5 -57z" />
    <glyph glyph-name="uni20A9" unicode="&#x20a9;" horiz-adv-x="930" 
d="M250 0l-69 245h-151v45h139l-32 115h-107v45h94l-69 250h55l68 -250h194l68 250h50l68 -250h194l68 250h55l-70 -250h95v-45h-107l-32 -115h139v-45h-152l-68 -245h-50l-67 245h-197l-66 -245h-50zM378 290h173l-31 115h-111zM221 290h108l31 115h-170zM601 290h108
l31 115h-170zM421 450h87l-43 160zM275 90l42 155h-84zM655 90l42 155h-84z" />
    <glyph glyph-name="Euro" unicode="&#x20ac;" horiz-adv-x="720" 
d="M20 245v45h95l-3 19q-2 22 -2 41t2 41l3 19h-95v45h100q23 99 113.5 177t201.5 78q92 0 176 -55q36 -25 64 -55l-35 -35q-24 26 -56 47q-72 48 -149 48q-93 0 -170 -66t-90 -139h250v-45h-260l-3 -19q-2 -22 -2 -41t2 -41l3 -19h260v-45h-250q13 -73 90 -139t170 -66
q79 0 149 47q33 22 56 48l35 -35q-28 -31 -64 -55q-81 -55 -176 -55q-111 0 -201.5 78t-113.5 177h-100z" />
    <glyph glyph-name="uni20B4" unicode="&#x20b4;" horiz-adv-x="610" 
d="M60 405v50h370q5 5 15 19q15 26 15 56q0 55 -45.5 92.5t-124.5 37.5q-68 0 -124 -35q-25 -16 -41 -35l-35 35q21 24 51 42q72 43 149 43q98 0 159 -53t61 -127q0 -32 -10 -56q-6 -14 -10 -19h60v-50h-490zM60 245v50h490v-50h-370q-8 -7 -15 -19q-15 -24 -15 -56
q0 -55 45.5 -92.5t124.5 -37.5q72 0 124 35q24 15 41 35l35 -35q-20 -25 -51 -43q-70 -42 -149 -42q-98 0 -159 53t-61 127q0 30 10 56q6 14 10 19h-60z" />
    <glyph glyph-name="uni20B8" unicode="&#x20b8;" horiz-adv-x="550" 
d="M250 0v490h-230v50h510v-50h-230v-490h-50zM20 650v50h510v-50h-510z" />
    <glyph glyph-name="uni20B9" unicode="&#x20b9;" horiz-adv-x="595" 
d="M80 300v50h160q75 0 118 34.5t52 90.5h-330v50h330q-9 56 -52 90.5t-118 34.5h-160v50h475v-50h-165q18 -11 31 -29q33 -41 39 -96h95v-50h-95q-9 -75 -67.5 -125t-152.5 -50h-80l370 -300h-80z" />
    <glyph glyph-name="uni20BA" unicode="&#x20ba;" horiz-adv-x="535" 
d="M125 -10v282l-85 -27v50l85 27v110l-85 -27v50l85 27v218h50v-202l190 62v-50l-190 -62v-110l190 62v-50l-190 -62v-243q144 11 212 56.5t68 108.5q0 21 -5 36l-5 14l40 25q4 -7 10 -21q10 -26 10 -54q0 -87 -92 -149t-288 -71z" />
    <glyph glyph-name="uni20BD" unicode="&#x20bd;" horiz-adv-x="650" 
d="M125 0v140h-85v50h85v100h-85v50h85v360h250q93 0 154 -59t61 -146t-61 -146t-154 -59h-200v-100h259v-50h-259v-140h-50zM175 340h200q74 0 119.5 43t45.5 112t-45.5 112t-119.5 43h-200v-310z" />
    <glyph glyph-name="uni20BF" unicode="&#x20bf;" horiz-adv-x="660" 
d="M215 -120v120h-105v700h105v120h50v-120h79v120h51v-121q72 -6 118.5 -55t46.5 -119q0 -73 -45 -118q-20 -20 -45 -32q34 -13 62 -38q63 -57 63 -142q0 -83 -55 -137t-145 -58v-120h-51v120h-79v-120h-50zM160 50h220q77 0 121 40t44 105q0 69 -43.5 109.5t-121.5 40.5
h-220v-295zM160 395h210q67 0 103.5 34.5t36.5 95.5q0 58 -36.5 91.5t-103.5 33.5h-210v-255z" />
    <glyph glyph-name="uni2113" unicode="&#x2113;" horiz-adv-x="360" 
d="M100 120v120q-4 -1 -8 -2.5t-9.5 -3t-9.5 -2.5q-28 -7 -68 -11v45q50 6 68 13q18 5 27 11v284q0 63 31.5 99.5t78.5 36.5q51 0 83 -37.5t32 -107.5q0 -108 -49.5 -186t-130.5 -119v-140q0 -85 80 -85q25 0 43 7q13 5 17 8v-45l-5 -2.5t-7 -3t-7 -2.5q-21 -7 -46 -7
q-57 0 -88.5 33.5t-31.5 96.5zM145 570v-260q61 36 98 101t37 154q0 51 -19 75.5t-51 24.5q-28 0 -46.5 -24.5t-18.5 -70.5z" />
    <glyph glyph-name="uni2116" unicode="&#x2116;" horiz-adv-x="1110" 
d="M110 0v700h40l455 -605v605h50v-700h-40l-455 605v-605h-50zM910 170q-64 0 -107 43.5t-43 111.5t43 111.5t107 43.5t107 -43.5t43 -111.5t-43 -111.5t-107 -43.5zM910 215q45 0 75 31t30 79t-30 79t-75 31t-75 -31t-30 -79t30 -79t75 -31zM770 0v45h280v-45h-280z" />
    <glyph glyph-name="uni2117" unicode="&#x2117;" horiz-adv-x="870" 
d="M375 340h80q41 0 63 20t22 55t-22 55t-63 20h-80v-150zM75 350q0 150 105 255t255 105t255 -105t105 -255t-105 -255t-255 -105t-255 105t-105 255zM435 35q135 0 225 90t90 225t-90 225t-225 90t-225 -90t-90 -225t90 -225t225 -90zM330 165v370h125q57 0 93.5 -34.5
t36.5 -85.5t-36.5 -85.5t-93.5 -34.5h-80v-130h-45z" />
    <glyph glyph-name="trademark" unicode="&#x2122;" horiz-adv-x="660" 
d="M105 400v260h-95v40h235v-40h-95v-260h-45zM300 400v300h40l110 -155l110 155h40v-300h-45v220l-105 -145l-105 145v-220h-45z" />
    <glyph glyph-name="uni2126" unicode="&#x2126;" horiz-adv-x="830" 
d="M105 0v50h165q-81 45 -135.5 124t-54.5 196q0 142 98.5 241t236.5 99t236.5 -99t98.5 -241q0 -117 -54.5 -196t-135.5 -124h165v-50h-230v65q205 95 205 305q0 124 -83 207t-202 83t-202 -83t-83 -207q0 -210 205 -305v-65h-230z" />
    <glyph glyph-name="estimated" unicode="&#x212e;" horiz-adv-x="870" 
d="M225 345v-247q22 -22 56 -39q72 -39 164 -39q120 0 212 75q41 32 73 75l25 -20q-37 -48 -80 -80q-106 -80 -230 -80q-157 0 -263.5 104.5t-106.5 255.5q0 150 105 255t255 105q151 0 255.5 -105.5t104.5 -259.5h-570zM225 375h420v227q-91 78 -210 78t-210 -76v-229z" />
    <glyph glyph-name="uni2150" unicode="&#x2150;" horiz-adv-x="680" 
d="M70 0l435 700h45l-435 -700h-45zM110 350v290q-6 -9 -16 -15q-21 -15 -54 -15v35q33 0 56 27q13 15 19 28h35v-350h-40zM475 0l135 310h-185v40h225v-40l-135 -310h-40z" />
    <glyph glyph-name="uni2151" unicode="&#x2151;" horiz-adv-x="690" 
d="M70 0l435 700h45l-435 -700h-45zM110 350v290q-6 -9 -16 -15q-21 -15 -54 -15v35q33 0 56 27q13 15 19 28h35v-350h-40zM485 0l80 120l-9 -3q-14 -2 -21 -2q-52 0 -88.5 35.5t-36.5 84.5t36.5 84.5t88.5 35.5t88.5 -35.5t36.5 -84.5q0 -25 -15 -59l-15 -26l-100 -150h-45
zM450 235q0 -34 23.5 -57t61.5 -23t61.5 23t23.5 57t-23.5 57t-61.5 23t-61.5 -23t-23.5 -57z" />
    <glyph glyph-name="uni2152" unicode="&#x2152;" horiz-adv-x="930" 
d="M70 0l435 700h45l-435 -700h-45zM110 350v290q-6 -9 -16 -15q-21 -15 -54 -15v35q33 0 56 27q13 15 19 28h35v-350h-40zM485 0v290q-6 -9 -16 -15q-21 -15 -54 -15v35q33 0 56 27q13 15 19 28h35v-350h-40zM750 -5q-59 0 -99.5 48.5t-40.5 131.5t40.5 131.5t99.5 48.5
t99.5 -48.5t40.5 -131.5t-40.5 -131.5t-99.5 -48.5zM750 35q41 0 70.5 37.5t29.5 102.5t-29.5 102.5t-70.5 37.5t-70.5 -37.5t-29.5 -102.5t29.5 -102.5t70.5 -37.5z" />
    <glyph glyph-name="onethird" unicode="&#x2153;" horiz-adv-x="685" 
d="M70 0l435 700h45l-435 -700h-45zM110 350v290q-6 -9 -16 -15q-21 -15 -54 -15v35q33 0 56 27q13 15 19 28h35v-350h-40zM400 55l30 30q11 -14 25 -25q31 -25 70 -25q38 0 59 17.5t21 47.5q0 29 -20.5 47t-57.5 18h-47v40h45q65 0 65 55q0 24 -18.5 39.5t-51.5 15.5
t-60 -23q-14 -14 -20 -22l-30 30q9 14 28 27q35 28 82 28q48 0 79 -28t31 -67q0 -37 -23 -60q-11 -11 -22 -15q15 -4 30 -16q30 -26 30 -69t-34.5 -74t-85.5 -31t-93 30q-19 14 -32 30z" />
    <glyph glyph-name="twothirds" unicode="&#x2154;" horiz-adv-x="755" 
d="M150 0l435 700h45l-435 -700h-45zM73 390h187v-40h-230q0 42 19.5 75t47.5 54.5t56 40t47.5 39.5t19.5 45t-20.5 42.5t-49.5 18.5q-39 0 -63 -30q-11 -15 -17 -30l-35 15q7 24 24 42q35 43 91 43q50 0 80 -30.5t30 -70.5q0 -39 -25 -69t-56 -47t-63.5 -43t-42.5 -55z
M470 55l30 30q11 -14 25 -25q31 -25 70 -25q38 0 59 17.5t21 47.5q0 29 -20.5 47t-57.5 18h-47v40h45q65 0 65 55q0 24 -18.5 39.5t-51.5 15.5t-60 -23q-14 -14 -20 -22l-30 30q9 14 28 27q35 28 82 28q48 0 79 -28t31 -67q0 -37 -23 -60q-11 -11 -22 -15q15 -4 30 -16
q30 -26 30 -69t-34.5 -74t-85.5 -31t-93 30q-19 14 -32 30z" />
    <glyph glyph-name="uni2155" unicode="&#x2155;" horiz-adv-x="675" 
d="M70 0l435 700h45l-435 -700h-45zM110 350v290q-6 -9 -16 -15q-21 -15 -54 -15v35q33 0 56 27q13 15 19 28h35v-350h-40zM395 50l30 30q7 -11 23 -23q32 -22 72 -22q41 0 63 19.5t22 50.5q0 34 -21 54.5t-59 20.5q-34 0 -54 -13q-10 -4 -16 -12h-35l15 195h190v-40h-155
l-10 -110q7 6 17 10q22 10 48 10q53 0 86.5 -33t33.5 -82q0 -47 -35 -78.5t-90 -31.5q-56 0 -94 27q-18 12 -31 28z" />
    <glyph glyph-name="uni2156" unicode="&#x2156;" horiz-adv-x="750" 
d="M150 0l435 700h45l-435 -700h-45zM73 390h187v-40h-230q0 42 19.5 75t47.5 54.5t56 40t47.5 39.5t19.5 45t-20.5 42.5t-49.5 18.5q-39 0 -63 -30q-11 -15 -17 -30l-35 15q7 24 24 42q35 43 91 43q50 0 80 -30.5t30 -70.5q0 -39 -25 -69t-56 -47t-63.5 -43t-42.5 -55z
M470 50l30 30q7 -11 23 -23q32 -22 72 -22q41 0 63 19.5t22 50.5q0 34 -21 54.5t-59 20.5q-34 0 -54 -13q-10 -4 -16 -12h-35l15 195h190v-40h-155l-10 -110q7 6 17 10q22 10 48 10q53 0 86.5 -33t33.5 -82q0 -47 -35 -78.5t-90 -31.5q-56 0 -94 27q-18 12 -31 28z" />
    <glyph glyph-name="uni2157" unicode="&#x2157;" horiz-adv-x="745" 
d="M140 0l435 700h45l-435 -700h-45zM30 405l30 30q11 -14 25 -25q31 -25 70 -25q38 0 59 17.5t21 47.5q0 29 -20.5 47t-57.5 18h-47v40h45q65 0 65 55q0 24 -18.5 39.5t-51.5 15.5t-60 -23q-14 -14 -20 -22l-30 30q9 14 28 27q35 28 82 28q48 0 79 -28t31 -67
q0 -37 -23 -60q-11 -11 -22 -15q15 -4 30 -16q30 -26 30 -69t-34.5 -74t-85.5 -31t-93 30q-19 14 -32 30zM465 50l30 30q7 -11 23 -23q32 -22 72 -22q41 0 63 19.5t22 50.5q0 34 -21 54.5t-59 20.5q-34 0 -54 -13q-10 -4 -16 -12h-35l15 195h190v-40h-155l-10 -110
q7 6 17 10q22 10 48 10q53 0 86.5 -33t33.5 -82q0 -47 -35 -78.5t-90 -31.5q-56 0 -94 27q-18 12 -31 28z" />
    <glyph glyph-name="uni2158" unicode="&#x2158;" horiz-adv-x="765" 
d="M160 0l435 700h45l-435 -700h-45zM30 435v40l160 225h50v-225h45v-40h-45v-85h-40v85h-170zM75 475h125v175zM485 50l30 30q7 -11 23 -23q32 -22 72 -22q41 0 63 19.5t22 50.5q0 34 -21 54.5t-59 20.5q-34 0 -54 -13q-10 -4 -16 -12h-35l15 195h190v-40h-155l-10 -110
q7 6 17 10q22 10 48 10q53 0 86.5 -33t33.5 -82q0 -47 -35 -78.5t-90 -31.5q-56 0 -94 27q-18 12 -31 28z" />
    <glyph glyph-name="uni2159" unicode="&#x2159;" horiz-adv-x="655" 
d="M70 0l435 700h45l-435 -700h-45zM110 350v290q-6 -9 -16 -15q-21 -15 -54 -15v35q33 0 56 27q13 15 19 28h35v-350h-40zM405 200l100 150h45l-80 -120l9 2q2 0 6 1t7.5 1.5t7.5 0.5q52 0 88.5 -35.5t36.5 -84.5t-36.5 -84.5t-88.5 -35.5t-88.5 35.5t-36.5 84.5
q0 29 15 59q7 15 15 26zM415 115q0 -34 23.5 -57t61.5 -23t61.5 23t23.5 57t-23.5 57t-61.5 23t-61.5 -23t-23.5 -57z" />
    <glyph glyph-name="uni215A" unicode="&#x215a;" horiz-adv-x="735" 
d="M150 0l435 700h45l-435 -700h-45zM30 400l30 30q7 -11 23 -23q32 -22 72 -22q41 0 63 19.5t22 50.5q0 34 -21 54.5t-59 20.5q-34 0 -54 -13q-10 -4 -16 -12h-35l15 195h190v-40h-155l-10 -110q7 6 17 10q22 10 48 10q53 0 86.5 -33t33.5 -82q0 -47 -35 -78.5t-90 -31.5
q-56 0 -94 27q-18 12 -31 28zM485 200l100 150h45l-80 -120l9 2l21 3q52 0 88.5 -35.5t36.5 -84.5t-36.5 -84.5t-88.5 -35.5t-88.5 35.5t-36.5 84.5q0 29 15 59q7 15 15 26zM495 115q0 -34 23.5 -57t61.5 -23t61.5 23t23.5 57t-23.5 57t-61.5 23t-61.5 -23t-23.5 -57z" />
    <glyph glyph-name="oneeighth" unicode="&#x215b;" horiz-adv-x="680" 
d="M70 0l435 700h45l-435 -700h-45zM110 350v290q-6 -9 -16 -15q-21 -15 -54 -15v35q33 0 56 27q13 15 19 28h35v-350h-40zM410 100q0 41 30 67q14 11 30 18q-14 6 -25 17q-25 23 -25 58q0 38 30.5 66.5t74.5 28.5t74.5 -28.5t30.5 -66.5q0 -33 -25 -58q-11 -11 -25 -17
q16 -7 30 -18q30 -26 30 -67q0 -42 -33.5 -73.5t-81.5 -31.5t-81.5 31.5t-33.5 73.5zM460 260q0 -24 18 -39.5t47 -15.5t47 15.5t18 39.5t-18 39.5t-47 15.5t-47 -15.5t-18 -39.5zM450 100q0 -27 21 -46t54 -19t54 19t21 46t-21 46t-54 19t-54 -19t-21 -46z" />
    <glyph glyph-name="threeeighths" unicode="&#x215c;" horiz-adv-x="740" 
d="M140 0l435 700h45l-435 -700h-45zM30 405l30 30q11 -14 25 -25q31 -25 70 -25q38 0 59 17.5t21 47.5q0 29 -20.5 47t-57.5 18h-47v40h45q65 0 65 55q0 24 -18.5 39.5t-51.5 15.5t-60 -23q-14 -14 -20 -22l-30 30q9 14 28 27q35 28 82 28q48 0 79 -28t31 -67
q0 -37 -23 -60q-11 -11 -22 -15q15 -4 30 -16q30 -26 30 -69t-34.5 -74t-85.5 -31t-93 30q-19 14 -32 30zM470 100q0 41 30 67q14 11 30 18q-14 6 -25 17q-25 23 -25 58q0 38 30.5 66.5t74.5 28.5t74.5 -28.5t30.5 -66.5q0 -33 -25 -58q-11 -11 -25 -17q16 -7 30 -18
q30 -26 30 -67q0 -42 -33.5 -73.5t-81.5 -31.5t-81.5 31.5t-33.5 73.5zM520 260q0 -24 18 -39.5t47 -15.5t47 15.5t18 39.5t-18 39.5t-47 15.5t-47 -15.5t-18 -39.5zM510 100q0 -27 21 -46t54 -19t54 19t21 46t-21 46t-54 19t-54 -19t-21 -46z" />
    <glyph glyph-name="fiveeighths" unicode="&#x215d;" horiz-adv-x="755" 
d="M150 0l435 700h45l-435 -700h-45zM30 400l30 30q7 -11 23 -23q32 -22 72 -22q41 0 63 19.5t22 50.5q0 34 -21 54.5t-59 20.5q-34 0 -54 -13q-10 -4 -16 -12h-35l15 195h190v-40h-155l-10 -110q7 6 17 10q22 10 48 10q53 0 86.5 -33t33.5 -82q0 -47 -35 -78.5t-90 -31.5
q-56 0 -94 27q-18 12 -31 28zM485 100q0 41 30 67q13 11 30 18q-14 6 -25 17q-25 23 -25 58q0 38 30.5 66.5t74.5 28.5t74.5 -28.5t30.5 -66.5q0 -33 -25 -58q-11 -11 -25 -17q17 -7 30 -18q30 -26 30 -67q0 -42 -33.5 -73.5t-81.5 -31.5t-81.5 31.5t-33.5 73.5zM535 260
q0 -24 18 -39.5t47 -15.5t47 15.5t18 39.5t-18 39.5t-47 15.5t-47 -15.5t-18 -39.5zM525 100q0 -27 21 -46t54 -19t54 19t21 46t-21 46t-54 19t-54 -19t-21 -46z" />
    <glyph glyph-name="seveneighths" unicode="&#x215e;" horiz-adv-x="685" 
d="M80 0l435 700h45l-435 -700h-45zM80 350l135 310h-185v40h225v-40l-135 -310h-40zM415 100q0 41 30 67q13 11 30 18q-14 6 -25 17q-25 23 -25 58q0 38 30.5 66.5t74.5 28.5t74.5 -28.5t30.5 -66.5q0 -33 -25 -58q-11 -11 -25 -17q17 -7 30 -18q30 -26 30 -67
q0 -42 -33.5 -73.5t-81.5 -31.5t-81.5 31.5t-33.5 73.5zM465 260q0 -24 18 -39.5t47 -15.5t47 15.5t18 39.5t-18 39.5t-47 15.5t-47 -15.5t-18 -39.5zM455 100q0 -27 21 -46t54 -19t54 19t21 46t-21 46t-54 19t-54 -19t-21 -46z" />
    <glyph glyph-name="uni215F" unicode="&#x215f;" horiz-adv-x="390" 
d="M70 0l435 700h45l-435 -700h-45zM110 350v290q-6 -9 -16 -15q-21 -15 -54 -15v35q33 0 56 27q13 15 19 28h35v-350h-40z" />
    <glyph glyph-name="arrowleft" unicode="&#x2190;" horiz-adv-x="1000" 
d="M125 330l235 235l35 -35l-175 -175h655v-50h-655l175 -175l-35 -35z" />
    <glyph glyph-name="arrowup" unicode="&#x2191;" horiz-adv-x="1000" 
d="M475 -25v655l-175 -175l-35 35l235 235l235 -235l-35 -35l-175 175v-655h-50z" />
    <glyph glyph-name="arrowright" unicode="&#x2192;" horiz-adv-x="1000" 
d="M125 305v50h655l-175 175l35 35l235 -235l-235 -235l-35 35l175 175h-655z" />
    <glyph glyph-name="arrowdown" unicode="&#x2193;" horiz-adv-x="1000" 
d="M265 210l35 35l175 -175v655h50v-655l175 175l35 -35l-235 -235z" />
    <glyph glyph-name="arrowboth" unicode="&#x2194;" horiz-adv-x="1000" 
d="M125 330l235 235l35 -35l-175 -175h560l-175 175l35 35l235 -235l-235 -235l-35 35l175 175h-560l175 -175l-35 -35z" />
    <glyph glyph-name="arrowupdn" unicode="&#x2195;" horiz-adv-x="1000" 
d="M265 210l35 35l175 -175v560l-175 -175l-35 35l235 235l235 -235l-35 -35l-175 175v-560l175 175l35 -35l-235 -235z" />
    <glyph glyph-name="uni2196" unicode="&#x2196;" horiz-adv-x="1000" 
d="M225 275v330h330v-50h-245l465 -465l-35 -35l-465 465v-245h-50z" />
    <glyph glyph-name="uni2197" unicode="&#x2197;" horiz-adv-x="1000" 
d="M225 90l465 465h-245v50h330v-330h-50v245l-465 -465z" />
    <glyph glyph-name="uni2198" unicode="&#x2198;" horiz-adv-x="1000" 
d="M445 55v50h245l-465 465l35 35l465 -465v245h50v-330h-330z" />
    <glyph glyph-name="uni2199" unicode="&#x2199;" horiz-adv-x="1000" 
d="M225 55v330h50v-245l465 465l35 -35l-465 -465h245v-50h-330z" />
    <glyph glyph-name="partialdiff" unicode="&#x2202;" horiz-adv-x="590" 
d="M130 630v50q15 7 38 15q51 15 102 15q109 0 179.5 -95.5t70.5 -284.5q0 -170 -63 -255t-172 -85q-94 0 -154.5 61t-60.5 159q0 99 61.5 159.5t163.5 60.5q71 0 133 -30q28 -14 47 -30q-8 146 -64.5 220.5t-140.5 74.5q-44 0 -98 -18q-19 -6 -42 -17zM115 210
q0 -78 47.5 -126.5t122.5 -48.5q87 0 134.5 63.5t55.5 211.5q-21 21 -47 37q-62 38 -133 38q-83 0 -131.5 -48t-48.5 -127z" />
    <glyph glyph-name="emptyset" unicode="&#x2205;" horiz-adv-x="880" 
d="M90 -5l92 102q-102 104 -102 253q0 150 105 255t255 105q127 0 224 -78l66 73h60l-93 -103q103 -105 103 -252q0 -150 -105 -255t-255 -105q-125 0 -225 78l-65 -73h-60zM665 566l-417 -462q83 -64 192 -64q131 0 220.5 89.5t89.5 220.5q0 126 -85 216zM215 134l416 462
q-83 64 -191 64q-131 0 -220.5 -89.5t-89.5 -220.5q0 -126 85 -216z" />
    <glyph glyph-name="uni2206" unicode="&#x2206;" horiz-adv-x="610" 
d="M30 0l255 700h40l255 -700h-550zM102 50h406l-203 560z" />
    <glyph glyph-name="product" unicode="&#x220f;" horiz-adv-x="775" 
d="M140 -110v810h495v-810h-50v760h-395v-760h-50z" />
    <glyph glyph-name="summation" unicode="&#x2211;" horiz-adv-x="570" 
d="M75 -110v40l255 385l-255 345v40h440v-50h-370l245 -335l-248 -375h373v-50h-440z" />
    <glyph glyph-name="minus" unicode="&#x2212;" horiz-adv-x="505" 
d="M45 270v45h415v-45h-415z" />
    <glyph glyph-name="radical" unicode="&#x221a;" horiz-adv-x="645" 
d="M255 -110l-118 275h-112v50h145l108 -251l302 846h50l-325 -920h-50z" />
    <glyph glyph-name="infinity" unicode="&#x221e;" horiz-adv-x="860" 
d="M125 330q0 -48 30 -79t75 -31q24 0 44 6.5t44 26t36.5 31.5t45.5 46q-33 34 -45.5 46t-36.5 31.5t-44 26t-44 6.5q-45 0 -75 -31t-30 -79zM460 330q54 -58 90 -84t80 -26q45 0 75 31t30 79t-30 79t-75 31q-44 0 -80 -26t-90 -84zM430 370q58 62 100.5 91t99.5 29
q64 0 109.5 -46.5t45.5 -113.5t-45.5 -113.5t-109.5 -46.5q-57 0 -99.5 29t-100.5 91q-58 -62 -100.5 -91t-99.5 -29q-64 0 -109.5 46.5t-45.5 113.5t45.5 113.5t109.5 46.5q57 0 99.5 -29t100.5 -91z" />
    <glyph glyph-name="integral" unicode="&#x222b;" horiz-adv-x="355" 
d="M40 -110v45h30q85 0 85 90v650q0 63 35 99t95 36h30v-45h-30q-85 0 -85 -90v-650q0 -63 -35 -99t-95 -36h-30z" />
    <glyph glyph-name="approxequal" unicode="&#x2248;" horiz-adv-x="530" 
d="M75 330l-35 25q13 21 33 40q46 40 97 40q52 0 102 -35t88 -35q40 0 72 32q14 14 23 33l35 -25q-13 -21 -33 -40q-46 -40 -97 -40q-34 0 -61 11t-41.5 24t-37.5 24t-50 11q-39 0 -72 -33q-14 -14 -23 -32zM75 160l-35 25q13 21 33 40q46 40 97 40q52 0 102 -35t88 -35
q40 0 72 32q14 14 23 33l35 -25q-13 -21 -33 -40q-46 -40 -97 -40q-34 0 -61 11t-41.5 24t-37.5 24t-50 11q-39 0 -72 -33q-14 -14 -23 -32z" />
    <glyph glyph-name="notequal" unicode="&#x2260;" horiz-adv-x="495" 
d="M110 70l60 115h-120v45h140l65 130h-205v45h225l60 115h50l-60 -115h120v-45h-140l-65 -130h205v-45h-225l-60 -115h-50z" />
    <glyph glyph-name="lessequal" unicode="&#x2264;" horiz-adv-x="490" 
d="M50 335v30l390 185v-50l-330 -150l330 -150v-50zM50 25v45h390v-45h-390z" />
    <glyph glyph-name="greaterequal" unicode="&#x2265;" horiz-adv-x="490" 
d="M50 150v50l330 150l-330 150v50l390 -185v-30zM50 25v45h390v-45h-390z" />
    <glyph glyph-name="uni2318" unicode="&#x2318;" horiz-adv-x="870" 
d="M345 260h180v180h-180v-180zM220 485h80v80q0 42 -23 66t-62 24q-38 0 -61.5 -23.5t-23.5 -61.5q0 -39 24 -62t66 -23zM220 260h80v180h-80q-60 0 -97.5 36.5t-37.5 93.5t36.5 93.5t93.5 36.5t93.5 -37.5t36.5 -97.5v-80h180v80q0 60 36.5 97.5t93.5 37.5t93.5 -36.5
t36.5 -93.5t-37.5 -93.5t-97.5 -36.5h-80v-180h80q60 0 97.5 -36.5t37.5 -93.5t-36.5 -93.5t-93.5 -36.5t-93.5 37.5t-36.5 97.5v80h-180v-80q0 -60 -36.5 -97.5t-93.5 -37.5t-93.5 36.5t-36.5 93.5t37.5 93.5t97.5 36.5zM570 485h80q42 0 66 23t24 62q0 38 -23.5 61.5
t-61.5 23.5q-39 0 -62 -24t-23 -66v-80zM300 135v80h-80q-42 0 -66 -23t-24 -62q0 -38 23.5 -61.5t61.5 -23.5q39 0 62 24t23 66zM570 215v-80q0 -42 23 -66t62 -24q38 0 61.5 23.5t23.5 61.5q0 39 -24 62t-66 23h-80z" />
    <glyph glyph-name="uni2460" unicode="&#x2460;" horiz-adv-x="1000" 
d="M500 165v305q-11 -14 -25 -24q-39 -24 -85 -29v38q48 6 87 49q18 20 28 41h40v-380h-45zM60 350q0 182 129 311t311 129t311 -129t129 -311t-129 -311t-311 -129t-311 129t-129 311zM105 350q0 -164 115.5 -279.5t279.5 -115.5t279.5 115.5t115.5 279.5t-115.5 279.5
t-279.5 115.5t-279.5 -115.5t-115.5 -279.5z" />
    </font>
</defs>
</svg>
