<?xml version="1.0" encoding="utf-8"?><svg viewBox="0 0 24 24" xmlns="http://www.w3.org/2000/svg" xmlns:xlink="http://www.w3.org/1999/xlink"><style>:root>svg{display:none}:root>svg:target{display:block}</style><svg viewBox="0 0 24 24" id="send" xmlns="http://www.w3.org/2000/svg"><path d="M12 23.754C5.566 23.754.246 18.434.246 12 .246 5.555 5.555.246 11.988.246 18.434.246 23.754 5.555 23.754 12c0 6.434-5.32 11.754-11.754 11.754zm0-1.524A10.22 10.22 0 0022.242 12 10.233 10.233 0 0011.988 1.758C6.328 1.758 1.77 6.328 1.77 12A10.21 10.21 0 0012 22.23zm0-4.418c-.398 0-.68-.28-.68-.69v-6.798l.059-2.156-1.29 1.441-1.687 1.7a.645.645 0 01-.48.199.638.638 0 01-.656-.645c0-.187.058-.351.175-.468l4.043-4.032c.176-.176.329-.258.516-.258.2 0 .363.082.527.258l4.043 4.032a.654.654 0 01.188.468c0 .364-.293.645-.668.645-.2 0-.352-.07-.48-.2L13.921 9.61l-1.3-1.453.07 2.168v6.797c0 .41-.282.692-.692.692z"/></svg></svg>