<svg width="24" height="24" viewBox="0 0 24 24" xmlns="http://www.w3.org/2000/svg"><path d="M12 23.7539C5.56641 23.7539 0.246094 18.4336 0.246094 12C0.246094 5.55469 5.55469 0.246094 11.9883 0.246094C18.4336 0.246094 23.7539 5.55469 23.7539 12C23.7539 18.4336 18.4336 23.7539 12 23.7539ZM12 22.2305C17.6719 22.2305 22.2422 17.6602 22.2422 12C22.2422 6.32812 17.6602 1.75781 11.9883 1.75781C6.32812 1.75781 1.76953 6.32812 1.76953 12C1.76953 17.6602 6.32812 22.2305 12 22.2305ZM12 17.8125C11.6016 17.8125 11.3203 17.5312 11.3203 17.1211V10.3242L11.3789 8.16797L10.0898 9.60938L8.40234 11.3086C8.27344 11.4375 8.12109 11.5078 7.92188 11.5078C7.54688 11.5078 7.26562 11.2266 7.26562 10.8633C7.26562 10.6758 7.32422 10.5117 7.44141 10.3945L11.4844 6.36328C11.6602 6.1875 11.8125 6.10547 12 6.10547C12.1992 6.10547 12.3633 6.1875 12.5273 6.36328L16.5703 10.3945C16.6875 10.5117 16.7578 10.6758 16.7578 10.8633C16.7578 11.2266 16.4648 11.5078 16.0898 11.5078C15.8906 11.5078 15.7383 11.4375 15.6094 11.3086L13.9219 9.60938L12.6211 8.15625L12.6914 10.3242V17.1211C12.6914 17.5312 12.4102 17.8125 12 17.8125Z"/></svg>